{"glyphs":{"0":{"ha":875,"x_min":15,"x_max":861,"o":"m 407 -21 q 135 125 239 0 q 49 288 78 193 q 15 519 15 390 q 49 751 15 649 q 135 915 78 846 q 407 1060 239 1039 l 407 979 q 342 928 358 963 q 326 846 328 900 l 326 193 q 342 111 328 139 q 407 60 358 76 l 407 -21 m 469 1060 q 742 915 638 1039 q 828 751 799 846 q 861 519 861 649 q 828 288 861 390 q 742 125 799 193 q 469 -21 638 0 l 469 60 q 535 111 518 76 q 550 193 549 139 l 550 846 q 535 928 549 900 q 469 979 518 963 l 469 1060 z "},"1":{"ha":875,"x_min":197,"x_max":679,"o":"m 586 142 q 643 81 586 97 q 679 42 679 76 q 650 4 679 14 q 628 0 640 1 l 251 0 q 229 4 239 1 q 200 42 200 14 q 236 81 200 76 q 293 142 293 97 l 293 840 q 283 919 293 903 q 249 938 276 933 q 197 975 197 943 q 226 1017 197 1006 q 249 1021 236 1019 l 586 1039 l 586 142 z "},"2":{"ha":875,"x_min":65,"x_max":813,"o":"m 403 1060 q 667 989 558 1063 q 783 756 788 904 q 707 558 781 640 q 526 442 643 488 l 324 346 l 310 336 q 238 322 276 336 q 203 310 222 318 l 171 296 l 168 299 q 221 363 192 332 q 274 410 244 386 l 318 444 q 324 450 322 447 q 371 488 354 472 q 443 583 419 531 q 472 754 471 650 l 472 793 q 465 861 471 829 q 444 931 458 903 q 403 976 428 965 l 403 1060 m 736 81 q 538 -21 661 -21 q 450 -10 499 -21 q 361 14 417 -3 l 278 38 q 203 49 233 49 q 171 40 186 49 q 157 33 164 38 l 124 7 q 103 -1 113 -1 q 65 44 65 -1 q 143 211 65 140 q 329 274 215 274 q 428 265 371 274 l 594 239 q 665 233 635 233 q 733 285 719 233 q 774 336 747 336 q 813 276 813 336 q 789 174 813 232 q 736 81 767 119 m 339 974 q 310 965 324 972 q 293 943 293 956 q 307 926 293 936 l 336 904 q 364 867 354 888 q 378 801 378 839 q 332 701 378 743 q 228 660 288 660 q 118 707 160 660 q 76 819 76 751 q 161 985 76 918 q 339 1057 236 1044 l 339 974 z "},"3":{"ha":875,"x_min":63,"x_max":815,"o":"m 356 974 q 318 961 333 969 q 297 933 297 950 q 308 914 297 924 l 333 894 q 368 808 368 863 q 329 714 368 754 q 235 672 289 672 q 97 811 97 672 q 179 979 97 911 q 356 1056 251 1039 l 356 974 m 581 528 q 754 439 700 494 q 815 274 815 378 q 799 174 815 221 q 736 76 778 118 q 614 4 688 29 q 418 -21 531 -24 l 418 61 q 504 186 504 82 l 504 372 q 489 457 504 429 q 414 496 469 493 q 357 535 357 499 q 414 576 357 571 q 493 631 471 582 l 499 650 q 503 667 501 658 q 504 681 504 674 l 504 850 q 418 978 504 958 l 418 1060 q 594 1039 517 1064 q 713 971 663 1015 q 799 785 799 892 q 738 618 799 686 q 581 531 681 556 l 581 528 m 356 -21 q 160 43 242 -11 q 63 214 63 108 q 104 321 63 278 q 211 365 146 365 q 307 325 264 365 q 351 231 351 283 q 313 133 351 174 l 292 114 q 286 108 288 111 q 274 90 274 97 q 307 68 274 76 l 335 63 l 356 61 l 356 -21 z "},"4":{"ha":875,"x_min":33,"x_max":843,"o":"m 354 236 l 78 236 q 65 238 69 236 q 50 243 57 239 q 33 289 33 254 q 64 364 33 322 l 351 761 l 354 761 l 354 644 l 121 317 l 354 317 l 354 236 m 417 844 l 526 994 q 589 1039 567 1039 l 689 1039 q 703 1035 699 1039 q 710 981 710 1026 l 710 317 l 817 317 q 829 311 824 315 q 839 300 836 307 q 843 276 843 290 q 839 253 843 263 q 829 242 836 246 q 817 236 824 238 l 710 236 l 710 142 q 767 81 710 97 q 803 42 803 76 q 774 4 803 14 q 751 0 764 1 l 375 0 q 353 4 363 1 q 324 42 324 14 q 360 81 324 76 q 417 142 417 97 l 417 844 z "},"5":{"ha":875,"x_min":68,"x_max":808,"o":"m 215 738 l 201 575 q 271 628 235 607 q 354 661 313 653 l 354 553 q 215 499 272 533 l 190 483 q 163 476 175 476 q 117 517 117 476 l 138 746 l 215 738 m 418 60 q 485 122 467 74 q 497 207 497 154 l 497 406 q 485 490 497 458 q 418 553 467 539 l 418 665 q 693 583 588 668 q 808 322 808 490 q 693 61 808 154 q 418 -21 588 -24 l 418 60 m 354 -21 q 164 44 249 -17 q 68 213 68 114 q 111 322 68 278 q 218 367 154 367 q 317 326 275 367 q 356 231 357 286 q 319 138 354 178 l 294 114 q 283 99 283 103 q 313 74 283 85 q 336 65 322 69 l 354 61 l 354 -21 m 453 1036 q 622 1035 533 1029 q 772 1060 721 1042 q 636 860 743 940 q 500 799 575 815 q 351 786 443 786 l 138 801 l 165 1060 l 453 1036 z "},"6":{"ha":875,"x_min":39,"x_max":853,"o":"m 431 554 q 590 600 513 600 q 778 522 701 600 q 853 332 853 444 q 753 78 853 179 q 490 -21 649 -26 l 490 61 q 535 86 521 67 q 540 100 539 93 q 542 110 542 106 l 542 433 q 540 442 542 438 q 535 463 539 453 q 490 494 522 490 q 460 488 478 494 l 431 472 l 431 554 m 428 -21 q 167 119 278 -18 q 76 289 110 192 q 39 519 42 393 q 76 750 42 646 q 167 919 110 847 q 428 1060 278 1057 l 428 978 q 365 935 383 969 q 350 856 350 907 l 350 182 q 365 103 350 131 q 428 60 383 68 l 428 -21 m 490 1060 q 683 1000 596 1058 q 783 835 783 933 q 739 728 783 769 q 631 686 696 686 q 539 722 579 686 q 499 808 497 758 q 508 854 499 833 q 517 871 511 863 l 526 886 q 531 892 528 889 l 544 910 q 553 936 553 924 q 490 978 553 978 l 490 1060 z "},"7":{"ha":875,"x_min":110,"x_max":789,"o":"m 267 194 q 301 343 267 271 q 383 469 328 400 q 433 528 403 493 l 485 586 q 533 646 514 619 q 575 708 558 678 q 672 735 617 711 q 579 489 597 589 q 582 290 561 397 l 588 260 q 593 231 592 242 q 599 168 599 197 q 556 46 599 97 q 436 -11 510 -11 q 308 53 354 -11 q 267 194 267 108 m 203 944 q 232 968 213 953 l 257 990 q 304 1024 283 1013 q 431 1053 354 1053 q 510 1043 471 1053 l 638 1003 q 688 993 674 993 q 735 1015 710 993 l 746 1025 q 760 1031 753 1031 q 789 999 789 1031 q 771 931 789 976 q 740 867 756 892 q 551 782 690 782 q 476 790 519 782 q 436 799 460 793 l 417 803 q 407 806 410 804 q 397 807 401 807 q 318 822 349 818 q 242 822 275 826 q 181 786 197 815 q 168 719 169 765 l 168 708 l 110 708 l 158 1033 l 214 1033 l 203 944 z "},"8":{"ha":875,"x_min":47,"x_max":829,"o":"m 469 1060 q 707 989 610 1054 q 813 783 821 911 q 740 619 806 682 q 581 539 683 565 l 581 536 q 760 443 696 510 q 829 256 829 371 q 817 175 829 217 q 767 81 800 121 q 657 3 724 29 q 469 -21 579 -28 l 469 60 q 511 103 500 71 q 517 125 515 114 q 518 133 518 129 l 518 433 q 517 444 518 439 q 513 461 515 453 q 469 497 500 486 l 469 578 q 511 615 499 588 q 517 636 515 625 q 518 647 518 642 l 518 913 q 514 933 518 924 q 469 979 504 965 l 469 1060 m 407 497 q 364 461 376 486 q 360 444 361 453 q 358 433 358 439 l 358 133 q 360 125 358 129 q 365 103 361 114 q 407 60 376 71 l 407 -21 q 219 3 297 -28 q 110 81 153 29 q 60 175 76 121 q 47 256 47 217 q 117 443 47 371 q 296 536 181 510 l 296 539 q 129 621 189 565 q 64 783 60 685 q 178 989 71 914 q 407 1060 271 1054 l 407 979 q 363 933 372 965 q 358 913 358 924 l 358 647 q 360 636 358 642 q 365 615 361 625 q 407 578 378 588 l 407 497 z "},"9":{"ha":875,"x_min":21,"x_max":835,"o":"m 443 485 q 283 439 361 439 q 96 517 172 439 q 21 707 21 594 q 121 961 21 860 q 383 1060 225 1065 l 383 978 q 339 953 353 972 q 333 939 335 946 q 332 929 332 933 l 332 606 q 333 597 332 601 q 339 576 335 586 q 383 544 351 549 q 414 551 396 544 l 443 567 l 443 485 m 446 1060 q 707 919 596 1057 q 797 750 764 847 q 835 519 832 646 q 797 289 832 393 q 707 119 764 192 q 446 -21 596 -18 l 446 61 q 508 104 490 69 q 524 183 524 132 l 524 857 q 508 936 524 908 q 446 979 490 971 l 446 1060 m 383 -21 q 190 39 278 -19 q 90 204 90 106 q 135 313 90 269 q 243 353 178 353 q 333 317 294 353 q 375 231 374 281 q 349 153 376 189 l 329 129 q 321 103 321 115 q 383 61 321 61 l 383 -21 z "}," ":{"ha":472,"x_min":0,"x_max":0,"o":""},"!":{"ha":525,"x_min":106,"x_max":419,"o":"m 419 129 q 376 24 419 68 q 269 -21 333 -21 q 163 24 206 -21 q 119 129 119 68 q 163 235 119 190 q 269 279 206 279 q 376 235 333 279 q 419 129 419 190 m 263 1060 q 382 1001 339 1060 q 419 868 419 949 q 406 778 419 831 q 393 731 401 757 l 356 615 q 336 543 343 575 q 313 393 315 461 q 263 336 310 336 q 213 393 215 336 q 190 543 210 461 q 169 615 182 575 l 132 731 q 119 778 124 757 q 106 868 106 831 q 143 1001 106 949 q 263 1060 186 1060 z "},"\"":{"ha":463,"x_min":35,"x_max":428,"o":"m 107 1060 q 179 976 179 1060 q 176 926 179 963 l 150 669 q 107 621 146 621 q 64 669 68 621 l 38 926 q 35 976 35 963 q 107 1060 35 1060 m 356 1060 q 428 976 428 1060 q 425 926 428 963 l 399 669 q 356 621 394 621 q 313 669 317 621 l 286 926 q 283 976 283 963 q 356 1060 283 1060 z "},"#":{"ha":876,"x_min":56,"x_max":815,"o":"m 153 21 l 219 290 l 56 290 l 81 467 l 258 467 l 296 615 l 144 615 l 169 790 l 336 790 l 392 1018 l 475 1018 l 229 21 l 153 21 m 506 467 l 544 614 l 424 614 l 467 790 l 583 790 l 639 1018 l 725 1018 l 668 790 l 815 790 l 790 615 l 631 615 l 590 467 l 731 467 l 704 290 l 550 290 l 486 21 l 400 21 l 465 290 l 347 290 l 389 467 l 506 467 z "},"$":{"ha":792,"x_min":31,"x_max":761,"o":"m 346 314 l 426 283 l 426 81 q 514 114 474 79 q 556 203 556 151 q 514 289 556 253 q 346 379 469 328 q 126 525 192 451 q 58 717 57 604 q 144 933 60 842 q 346 1036 226 1019 l 346 1138 l 426 1138 l 426 1039 q 618 986 535 1035 q 721 822 721 925 q 594 710 721 710 q 481 817 481 710 q 488 856 481 838 q 493 871 489 864 q 501 885 496 878 q 508 896 503 889 l 514 906 q 521 921 521 915 q 481 951 521 939 q 426 958 444 961 l 426 756 l 346 790 l 346 958 q 264 847 253 936 q 324 750 271 794 q 424 692 361 719 l 538 639 q 703 521 651 588 q 761 326 761 444 q 661 93 761 185 q 426 0 567 7 l 426 -114 l 346 -114 l 346 0 q 142 58 233 3 q 31 232 31 125 q 163 365 31 365 q 249 328 214 365 q 283 240 283 292 q 247 160 283 192 q 233 150 240 154 q 226 146 231 147 q 221 142 222 142 q 210 129 210 133 q 269 92 210 111 q 346 81 328 72 l 346 314 z "},"%":{"ha":1135,"x_min":10,"x_max":1125,"o":"m 868 58 q 918 125 918 69 l 918 328 q 868 394 918 383 l 868 453 q 1049 400 981 453 q 1125 226 1125 340 q 1049 53 1125 113 q 868 0 981 0 l 868 58 m 857 1039 l 353 0 l 264 0 l 768 1039 l 857 1039 m 828 394 q 778 328 778 383 l 778 125 q 828 58 778 69 l 828 0 q 647 53 715 0 q 571 226 571 113 q 647 400 571 340 q 828 453 715 453 l 828 394 m 307 665 q 357 732 357 676 l 357 935 q 307 1001 357 990 l 307 1060 q 488 1007 419 1060 q 564 833 564 947 q 488 660 564 719 q 307 607 419 607 l 307 665 m 267 1001 q 217 935 217 990 l 217 732 q 267 665 217 676 l 267 607 q 86 660 154 607 q 10 833 10 719 q 86 1007 10 947 q 267 1060 154 1060 l 267 1001 z "},"&":{"ha":1085,"x_min":40,"x_max":1049,"o":"m 335 608 q 285 803 285 696 q 378 990 285 914 q 579 1061 465 1061 l 629 1057 l 629 963 q 581 894 581 947 q 608 807 581 860 l 961 150 q 1022 79 992 96 q 1049 42 1049 67 q 1028 6 1049 17 q 1013 1 1021 3 q 1001 0 1007 0 l 674 0 l 335 608 m 692 1047 q 801 985 757 1039 q 844 864 844 931 q 740 682 844 743 l 703 751 q 761 860 761 803 q 692 963 761 931 l 692 1047 m 867 447 q 889 519 889 483 q 885 553 889 538 q 879 567 882 560 l 863 599 q 857 617 857 608 q 889 654 857 640 q 942 667 915 667 q 988 638 974 667 q 999 581 999 615 q 972 468 999 521 q 906 375 951 428 l 867 447 m 328 503 q 308 460 308 479 q 318 419 308 436 l 457 163 q 497 115 478 124 q 518 111 506 111 l 546 111 l 588 39 q 376 -21 482 -21 q 203 24 282 -22 q 46 278 40 117 q 124 461 50 378 q 289 572 192 538 l 328 503 z "},"’":{"ha":521,"x_min":103,"x_max":417,"o":"m 417 879 q 378 750 417 817 q 290 646 343 690 q 150 568 207 576 q 103 600 103 563 q 125 635 103 617 l 163 658 q 264 757 264 719 q 247 774 264 769 q 232 776 242 776 l 219 778 q 140 826 172 782 q 110 918 110 868 q 154 1019 110 979 q 257 1060 196 1060 q 374 1003 328 1060 q 417 879 417 951 z "},"(":{"ha":538,"x_min":58,"x_max":521,"o":"m 58 453 q 182 814 58 644 q 332 971 243 899 l 346 982 q 364 996 356 990 q 403 1026 385 1014 q 486 1060 454 1060 q 521 1033 521 1060 q 514 1018 521 1026 q 501 1006 510 1011 q 403 892 458 974 q 328 765 357 825 q 251 454 251 613 q 319 153 251 304 q 396 17 346 90 q 501 -103 454 -68 l 507 -108 q 514 -114 511 -112 q 521 -131 521 -122 q 486 -157 521 -157 q 407 -126 454 -157 q 315 -56 365 -101 q 232 28 274 -18 q 176 96 197 68 q 85 286 111 186 q 67 369 75 324 q 58 453 58 421 z "},")":{"ha":538,"x_min":17,"x_max":479,"o":"m 479 450 q 356 89 479 258 q 206 -68 294 4 l 192 -79 q 174 -93 182 -87 q 135 -122 153 -111 q 51 -157 83 -157 q 17 -131 17 -157 q 24 -114 17 -124 q 36 -103 28 -108 q 136 11 79 -71 q 210 138 181 78 q 286 449 286 290 q 218 750 286 600 q 142 886 192 813 q 36 1006 83 971 l 24 1018 q 17 1033 17 1025 q 51 1060 17 1060 q 131 1029 83 1060 q 222 958 172 1004 q 306 875 264 921 q 361 807 340 835 q 453 617 426 717 q 471 533 463 579 q 479 450 479 482 z "},"*":{"ha":617,"x_min":88,"x_max":546,"o":"m 257 978 q 256 1033 238 1013 q 322 1060 279 1060 q 389 1033 365 1060 q 400 1006 403 1019 q 396 992 400 999 l 322 864 l 257 978 m 431 971 q 440 982 435 978 q 469 988 451 992 q 525 943 504 978 q 536 871 546 906 q 488 844 529 844 l 356 844 l 431 971 m 150 844 q 100 871 110 844 q 111 942 90 906 q 168 986 136 978 q 215 957 196 992 l 281 844 l 150 844 m 379 675 q 381 619 399 640 q 314 593 357 593 q 246 619 272 593 q 236 649 235 635 l 244 668 q 246 671 244 668 q 247 675 247 674 l 314 789 l 379 675 m 206 682 q 196 672 200 675 q 165 667 185 663 q 110 713 131 674 q 99 783 88 749 q 147 810 108 807 l 278 810 l 206 682 m 485 810 q 533 783 526 807 q 522 713 543 746 q 467 667 503 674 q 438 672 449 663 q 428 682 432 675 l 353 810 l 485 810 z "},"+":{"ha":814,"x_min":67,"x_max":747,"o":"m 492 339 l 492 32 l 324 32 l 324 339 l 67 339 l 67 503 l 324 503 l 324 794 l 492 794 l 492 503 l 747 503 l 747 339 l 492 339 z "},",":{"ha":521,"x_min":104,"x_max":418,"o":"m 418 114 q 379 -15 418 51 q 292 -119 344 -75 q 151 -197 208 -189 q 104 -165 104 -203 q 126 -131 104 -149 l 164 -107 q 265 -8 265 -46 q 249 8 265 4 q 233 11 243 11 l 221 13 q 142 61 174 17 q 111 153 111 103 q 156 254 111 214 q 258 294 197 294 q 375 238 329 294 q 418 114 418 186 z "},"-":{"ha":694,"x_min":104,"x_max":590,"o":"m 590 621 l 590 410 l 104 410 l 104 621 l 590 621 z "},".":{"ha":506,"x_min":103,"x_max":403,"o":"m 403 129 q 360 24 403 68 q 253 -21 317 -21 q 146 24 189 -21 q 103 129 103 68 q 146 235 103 190 q 253 279 189 279 q 360 235 317 279 q 403 129 403 190 z "},"/":{"ha":435,"x_min":-54,"x_max":490,"o":"m 490 1039 l 63 -157 l -54 -157 l 374 1039 l 490 1039 z "},":":{"ha":506,"x_min":103,"x_max":403,"o":"m 403 621 q 360 515 403 560 q 253 471 317 471 q 146 515 189 471 q 103 621 103 560 q 146 726 103 682 q 253 771 189 771 q 360 726 317 771 q 403 621 403 682 m 403 129 q 360 24 403 68 q 253 -21 317 -21 q 146 24 189 -21 q 103 129 103 68 q 146 235 103 190 q 253 279 189 279 q 360 235 317 279 q 403 129 403 190 z "},";":{"ha":521,"x_min":103,"x_max":418,"o":"m 418 115 q 379 -14 418 53 q 292 -118 344 -74 q 151 -196 208 -187 q 104 -164 104 -201 q 126 -129 104 -147 l 164 -106 q 265 -7 265 -44 q 249 10 265 6 q 233 13 243 13 l 221 14 q 142 63 174 18 q 111 154 111 104 q 156 256 111 215 q 258 296 197 296 q 375 239 329 296 q 418 115 418 188 m 403 621 q 360 515 403 560 q 253 471 317 471 q 146 515 189 471 q 103 621 103 560 q 146 726 103 682 q 253 771 189 771 q 360 726 317 771 q 403 621 403 682 z "},"<":{"ha":814,"x_min":68,"x_max":746,"o":"m 68 336 l 68 508 l 746 838 l 746 658 l 222 424 l 222 421 l 746 186 l 746 6 l 68 336 z "},"=":{"ha":814,"x_min":67,"x_max":747,"o":"m 67 507 l 67 671 l 747 671 l 747 507 l 67 507 m 67 172 l 67 335 l 747 335 l 747 172 l 67 172 z "},">":{"ha":814,"x_min":68,"x_max":746,"o":"m 746 507 l 746 335 l 69 6 l 69 186 l 593 421 l 593 425 l 68 658 l 68 838 l 746 507 z "},"?":{"ha":842,"x_min":104,"x_max":739,"o":"m 392 979 q 389 978 390 979 l 378 975 q 367 969 371 972 q 356 946 356 961 q 363 915 356 936 q 372 868 372 892 q 333 782 372 818 q 244 747 296 747 q 146 783 186 747 q 104 878 104 819 q 171 999 104 947 q 392 1060 250 1060 l 392 979 m 458 1056 q 657 957 575 1044 q 739 753 739 869 q 647 531 739 621 q 410 422 558 442 q 358 371 360 415 q 319 325 358 325 q 278 388 278 325 l 278 649 q 282 663 279 658 q 325 671 289 671 q 506 858 506 675 q 458 975 506 938 l 458 1056 m 488 129 q 444 24 488 68 q 338 -21 401 -21 q 231 24 274 -21 q 188 129 188 68 q 231 235 188 190 q 338 279 274 279 q 444 235 401 279 q 488 129 488 190 z "},"@":{"ha":1275,"x_min":76,"x_max":1207,"o":"m 1026 -56 q 919 -144 979 -106 q 803 -203 864 -179 q 590 -246 692 -246 q 226 -118 364 -246 q 76 285 76 24 q 131 543 76 424 q 275 738 182 654 q 721 904 461 904 q 1083 781 951 904 q 1207 483 1207 665 q 1096 172 1207 294 q 807 47 983 47 q 682 175 658 47 l 693 224 l 690 226 q 569 104 647 158 q 425 47 488 47 q 339 210 335 47 q 369 368 340 293 q 471 522 403 454 q 615 615 524 576 q 789 657 710 657 q 896 642 840 657 q 958 635 918 635 q 876 239 933 540 q 908 133 857 133 q 1040 217 986 133 q 1101 476 1101 311 q 992 739 1101 639 q 721 838 885 838 q 354 682 496 838 q 214 293 214 529 q 318 -7 214 113 q 454 -104 374 -71 q 651 -142 542 -142 q 725 -136 689 -142 q 808 -117 768 -131 q 994 -8 907 -85 l 1026 -56 m 704 581 q 633 538 671 582 q 579 431 600 496 q 553 250 553 350 q 578 200 553 200 q 636 240 600 200 q 711 371 678 289 l 735 471 q 754 561 750 532 q 706 582 738 582 l 704 581 z "},"A":{"ha":965,"x_min":-11,"x_max":954,"o":"m 343 688 l 213 213 q 208 124 197 153 q 257 83 218 100 q 299 38 299 65 q 274 4 299 13 q 250 0 264 1 l 56 0 q 43 1 49 0 q 18 6 28 3 q -11 42 -11 15 q 4 72 -11 63 l 43 89 q 90 131 71 103 q 136 235 118 168 l 303 844 l 307 844 l 343 688 m 492 269 l 289 269 l 308 350 l 478 350 l 338 964 l 356 1039 l 663 1039 l 876 135 q 883 113 879 121 q 919 79 893 90 q 954 36 954 64 q 926 4 954 11 q 901 0 915 1 l 532 0 q 488 6 503 0 q 464 39 464 15 q 490 78 464 64 q 519 163 533 103 l 492 269 z "},"B":{"ha":1043,"x_min":46,"x_max":976,"o":"m 464 0 l 90 0 q 79 1 85 0 q 64 7 71 3 q 46 43 46 17 q 76 81 46 71 q 124 156 124 96 l 124 883 q 76 958 124 943 q 46 996 46 968 q 64 1032 46 1022 q 79 1038 71 1036 q 90 1039 85 1039 l 464 1039 l 464 0 m 526 1039 l 603 1039 q 635 1038 621 1039 q 700 1033 671 1038 q 826 999 772 1025 q 963 785 963 931 q 882 613 963 678 q 700 540 814 558 l 700 538 q 896 460 828 517 q 976 271 976 393 q 846 46 976 118 q 713 4 788 13 q 643 0 682 1 l 526 0 l 526 81 q 614 117 589 83 q 631 188 631 140 l 631 367 q 613 453 631 424 q 526 497 588 493 l 526 578 q 617 621 594 583 q 631 697 631 644 l 631 836 q 610 917 631 886 q 526 958 583 953 l 526 1039 z "},"C":{"ha":911,"x_min":31,"x_max":858,"o":"m 543 1060 q 590 1050 560 1060 q 646 1032 610 1044 l 699 1013 q 738 1004 725 1004 q 775 1031 763 1004 q 813 1060 789 1060 q 851 1038 840 1060 q 857 1021 856 1031 l 857 676 q 851 660 856 667 q 813 638 840 638 q 761 688 772 638 q 692 863 740 788 q 543 979 632 956 l 543 1060 m 771 257 q 817 301 786 301 q 858 254 858 301 q 754 72 856 165 q 543 -21 649 -25 l 543 60 q 771 257 724 100 m 481 -21 q 142 136 261 -17 q 31 501 31 275 q 154 897 31 743 q 481 1060 279 1053 l 481 979 q 411 932 433 969 q 392 850 392 899 l 392 192 q 481 60 392 82 l 481 -21 z "},"D":{"ha":1010,"x_min":36,"x_max":972,"o":"m 517 1039 q 824 915 704 1042 q 967 519 954 776 q 935 300 972 401 q 833 138 901 207 q 517 0 701 0 l 517 81 q 593 136 572 88 q 604 181 600 156 q 606 224 606 197 l 606 815 q 604 858 606 842 q 593 903 600 883 q 517 958 572 951 l 517 1039 m 454 0 l 101 0 q 36 43 36 0 q 67 81 36 71 q 114 156 114 96 l 114 901 q 113 921 114 913 q 90 950 107 944 l 69 957 q 53 965 60 961 q 36 999 36 976 q 99 1039 36 1039 l 454 1039 l 454 0 z "},"E":{"ha":914,"x_min":51,"x_max":851,"o":"m 51 996 q 75 1032 51 1021 q 93 1038 83 1036 q 103 1039 99 1039 l 469 1039 l 469 0 l 103 0 q 93 1 99 0 q 75 7 83 3 q 51 43 51 18 q 82 81 51 71 q 129 156 129 96 l 129 883 q 82 958 129 943 q 51 996 51 968 m 532 1039 l 842 1039 l 842 757 q 840 749 842 753 q 836 738 839 743 q 824 728 831 732 q 799 724 813 724 q 761 758 772 724 q 532 958 706 931 l 532 1039 m 532 81 q 768 282 707 103 q 811 325 788 325 q 849 304 839 325 q 851 288 851 296 l 851 0 l 532 0 l 532 81 m 532 575 q 597 622 572 586 q 629 697 618 651 q 674 743 643 743 q 708 717 701 743 q 710 696 710 708 l 710 368 q 708 347 710 356 q 674 321 701 321 q 629 367 643 321 q 597 442 618 413 q 532 489 572 478 l 532 575 z "},"F":{"ha":882,"x_min":63,"x_max":853,"o":"m 140 883 q 93 958 140 943 q 63 996 63 968 q 86 1032 63 1021 q 104 1038 94 1036 q 114 1039 110 1039 l 481 1039 l 481 156 q 528 81 481 96 q 558 43 558 71 q 535 7 558 18 q 517 1 526 3 q 507 0 511 0 l 114 0 q 104 1 110 0 q 86 7 94 3 q 63 43 63 18 q 93 81 63 71 q 140 156 140 96 l 140 883 m 543 1039 l 853 1039 l 853 757 q 851 749 853 753 q 847 738 850 743 q 835 728 842 732 q 810 724 824 724 q 772 758 783 724 q 543 958 717 931 l 543 1039 m 543 575 q 608 622 583 586 q 640 697 629 651 q 685 743 654 743 q 719 717 713 743 q 721 696 721 708 l 721 368 q 719 347 721 356 q 685 321 713 321 q 640 367 654 321 q 608 442 629 413 q 543 489 583 478 l 543 575 z "},"G":{"ha":965,"x_min":31,"x_max":928,"o":"m 392 188 q 404 113 392 142 q 458 60 421 74 l 458 -21 q 154 140 278 -15 q 31 519 31 296 q 154 900 31 743 q 458 1060 278 1056 l 458 979 q 404 928 421 965 q 392 853 392 899 l 392 188 m 521 1060 q 617 1046 571 1056 q 688 1029 653 1039 l 725 1018 q 729 1017 726 1017 l 735 1015 q 757 1008 753 1008 q 781 1017 771 1008 q 789 1025 785 1019 l 804 1043 q 814 1051 808 1049 q 839 1060 824 1060 q 874 1040 865 1060 q 878 1025 876 1033 l 878 694 q 872 678 876 685 q 835 656 863 656 q 782 711 796 656 q 678 910 751 839 q 521 979 610 975 l 521 1060 m 521 60 q 576 103 561 71 q 583 128 581 114 q 585 139 585 133 l 585 399 q 528 446 585 436 q 492 488 492 456 q 517 521 492 511 q 536 525 525 524 q 547 526 542 526 l 890 526 q 906 522 899 526 q 928 485 928 514 q 903 443 928 460 l 886 431 l 879 418 q 878 408 878 414 l 878 126 q 521 -21 719 -17 l 521 60 z "},"H":{"ha":1176,"x_min":78,"x_max":1099,"o":"m 496 156 q 543 81 496 96 q 574 43 574 71 q 550 7 574 18 q 532 1 542 3 q 522 0 526 0 l 129 0 q 119 1 125 0 q 101 7 110 3 q 78 43 78 18 q 108 81 78 71 q 156 156 156 96 l 156 883 q 108 958 156 943 q 78 996 78 968 q 101 1032 78 1021 q 119 1038 110 1036 q 129 1039 125 1039 l 522 1039 q 532 1038 526 1039 q 550 1032 542 1036 q 574 996 574 1021 q 543 958 574 968 q 496 883 496 943 l 496 156 m 681 488 l 558 488 l 558 568 l 681 568 l 681 883 q 633 958 681 943 q 603 996 603 968 q 626 1032 603 1021 q 644 1038 635 1036 q 654 1039 650 1039 l 1047 1039 q 1057 1038 1051 1039 q 1075 1032 1067 1036 q 1099 996 1099 1021 q 1068 958 1099 968 q 1021 883 1021 943 l 1021 156 q 1068 81 1021 96 q 1099 43 1099 71 q 1075 7 1099 18 q 1057 1 1067 3 q 1047 0 1051 0 l 654 0 q 644 1 650 0 q 626 7 635 3 q 603 43 603 18 q 633 81 603 71 q 681 156 681 96 l 681 488 z "},"I":{"ha":621,"x_min":63,"x_max":558,"o":"m 481 156 q 528 81 481 96 q 558 43 558 71 q 535 7 558 18 q 517 1 526 3 q 507 0 511 0 l 114 0 q 104 1 110 0 q 86 7 94 3 q 63 43 63 18 q 93 81 63 71 q 140 156 140 96 l 140 883 q 93 958 140 943 q 63 996 63 968 q 86 1032 63 1021 q 104 1038 94 1036 q 114 1039 110 1039 l 507 1039 q 517 1038 511 1039 q 535 1032 526 1036 q 558 996 558 1021 q 528 958 558 968 q 481 883 481 943 l 481 156 z "},"J":{"ha":839,"x_min":1,"x_max":797,"o":"m 263 -17 q 83 57 157 -6 q 1 226 1 125 q 49 344 1 296 q 164 394 96 394 q 269 351 225 394 q 315 246 315 307 q 219 107 315 146 q 211 103 215 104 q 206 96 206 99 q 213 86 206 92 q 229 76 218 81 q 249 69 238 72 l 263 65 l 263 -17 m 719 282 q 703 160 719 208 q 635 58 683 100 q 511 -3 588 18 q 374 -21 444 -21 l 325 -19 l 325 63 q 372 118 361 79 q 379 190 379 140 l 379 883 q 332 958 379 943 q 301 996 301 968 q 325 1032 301 1021 q 343 1038 333 1036 q 353 1039 349 1039 l 746 1039 q 756 1038 750 1039 q 774 1032 765 1036 q 797 996 797 1021 q 767 958 797 968 q 719 883 719 943 l 719 282 z "},"K":{"ha":1143,"x_min":78,"x_max":1101,"o":"m 1028 129 q 1036 111 1032 118 q 1068 82 1047 92 q 1101 38 1101 67 q 1075 4 1101 11 q 1051 0 1065 1 l 654 0 q 631 6 640 1 q 606 43 606 15 q 635 83 606 68 q 663 111 663 97 q 658 132 663 118 q 651 153 656 144 l 558 432 l 553 453 q 547 496 547 476 q 557 533 547 515 l 567 550 l 740 796 q 776 883 776 844 q 724 954 776 932 q 681 997 681 974 q 704 1035 681 1025 q 725 1039 713 1038 l 986 1039 q 1036 1033 1021 1039 q 1060 993 1060 1022 q 1008 942 1060 961 q 901 874 944 918 q 863 828 883 856 l 796 738 l 1028 129 m 496 156 q 543 81 496 96 q 574 43 574 71 q 550 7 574 18 q 532 1 542 3 q 522 0 526 0 l 129 0 q 119 1 125 0 q 101 7 110 3 q 78 43 78 18 q 108 81 78 71 q 156 156 156 96 l 156 883 q 108 958 156 943 q 78 996 78 968 q 101 1032 78 1021 q 119 1038 110 1036 q 129 1039 125 1039 l 522 1039 q 532 1038 526 1039 q 550 1032 542 1036 q 574 996 574 1021 q 543 958 574 968 q 496 883 496 943 l 496 156 z "},"L":{"ha":829,"x_min":56,"x_max":829,"o":"m 474 0 l 107 0 q 97 1 103 0 q 79 7 88 3 q 56 43 56 18 q 86 81 56 71 q 133 156 133 96 l 133 883 q 86 958 133 943 q 56 996 56 968 q 79 1032 56 1021 q 97 1038 88 1036 q 107 1039 103 1039 l 500 1039 q 510 1038 504 1039 q 528 1032 519 1036 q 551 996 551 1021 q 521 958 551 968 q 474 883 474 943 l 474 0 m 536 81 q 671 158 617 92 q 742 322 718 219 q 794 361 750 361 q 829 308 829 361 l 829 0 l 536 0 l 536 81 z "},"M":{"ha":1221,"x_min":57,"x_max":1165,"o":"m 174 688 l 176 688 l 254 458 l 254 219 q 281 126 261 161 q 318 88 294 101 l 351 69 q 365 40 365 60 q 335 4 365 13 q 311 0 325 1 l 117 0 q 93 4 103 1 q 63 40 63 13 q 76 69 63 60 l 110 88 q 147 126 133 101 q 174 219 167 161 l 174 688 m 747 1039 l 1114 1039 q 1124 1038 1118 1039 q 1142 1032 1133 1036 q 1165 996 1165 1021 q 1135 958 1165 968 q 1088 883 1088 943 l 1088 156 q 1135 81 1088 96 q 1165 43 1165 71 q 1142 7 1165 18 q 1124 1 1133 3 q 1114 0 1118 0 l 721 0 q 711 1 717 0 q 693 7 701 3 q 669 43 669 18 q 700 81 669 71 q 747 156 747 96 l 747 1039 m 57 996 q 81 1033 57 1024 q 99 1039 88 1038 l 468 1039 l 617 613 l 619 613 l 682 843 l 685 843 l 685 590 l 508 0 l 468 0 l 178 860 q 172 875 175 871 l 167 890 q 153 919 160 907 q 111 958 131 957 l 96 960 q 78 965 85 963 q 57 996 57 974 z "},"N":{"ha":1046,"x_min":49,"x_max":997,"o":"m 160 778 l 163 778 l 240 639 l 240 219 q 267 126 247 161 q 304 88 281 101 l 338 69 q 351 40 351 60 q 321 4 351 13 q 297 0 311 1 l 103 0 q 79 4 89 1 q 49 40 49 13 q 63 69 49 60 l 96 88 q 133 126 119 101 q 160 219 153 161 l 160 778 m 803 788 q 785 894 803 856 q 746 943 772 925 l 715 960 q 707 965 710 963 q 689 997 689 978 q 714 1033 689 1022 q 733 1038 722 1036 q 749 1039 740 1039 l 938 1039 q 953 1038 946 1039 q 972 1033 964 1036 q 997 997 997 1022 q 979 965 997 978 q 971 960 976 963 l 940 943 q 901 894 914 925 q 883 788 883 856 l 883 450 l 881 450 l 803 590 l 803 788 m 883 336 l 883 0 l 676 0 l 153 903 q 139 922 146 915 q 93 951 124 942 q 51 996 51 967 q 76 1032 51 1024 q 99 1038 85 1036 l 117 1039 l 479 1039 l 883 336 z "},"O":{"ha":988,"x_min":31,"x_max":957,"o":"m 463 979 q 403 933 419 964 q 392 879 392 913 l 392 160 q 403 106 392 126 q 463 60 419 75 l 463 -21 q 136 156 251 -1 q 31 519 31 300 q 136 883 31 739 q 463 1060 251 1040 l 463 979 m 525 60 q 585 106 568 75 q 596 160 596 126 l 596 879 q 585 933 596 913 q 525 979 568 964 l 525 1060 q 851 883 736 1040 q 957 519 957 739 q 851 156 957 300 q 525 -21 736 -1 l 525 60 z "},"P":{"ha":992,"x_min":44,"x_max":943,"o":"m 525 1039 q 800 988 711 1039 q 943 718 943 903 q 800 449 943 533 q 525 397 711 397 l 525 478 q 599 528 581 488 q 611 618 611 556 l 611 828 q 596 913 611 883 q 525 958 575 951 l 525 1039 m 122 883 q 75 958 122 943 q 44 996 44 968 q 68 1032 44 1021 q 86 1038 76 1036 q 96 1039 92 1039 l 463 1039 l 463 156 q 510 81 463 96 q 540 43 540 71 q 517 7 540 18 q 499 1 508 3 q 489 0 493 0 l 96 0 q 86 1 92 0 q 68 7 76 3 q 44 43 44 18 q 75 81 44 71 q 122 156 122 96 l 122 883 z "},"Q":{"ha":997,"x_min":31,"x_max":968,"o":"m 463 979 q 403 933 419 964 q 392 879 392 913 l 392 160 q 403 106 392 126 q 463 60 419 75 l 463 -21 q 136 156 251 -1 q 31 519 31 300 q 136 883 31 739 q 463 1060 251 1040 l 463 979 m 599 879 q 588 933 599 913 q 528 979 571 964 l 528 1060 l 529 1060 q 856 883 740 1040 q 960 519 963 739 q 921 289 958 389 q 789 92 879 179 q 867 61 818 61 q 914 69 889 61 l 931 74 q 943 76 939 76 q 968 47 968 76 q 929 -8 968 17 q 797 -53 865 -53 q 644 10 701 -53 q 525 -21 601 -21 l 525 61 l 538 68 q 549 75 544 71 q 568 92 561 82 q 504 143 536 133 q 456 179 456 146 q 524 224 456 224 q 599 206 569 224 l 599 879 z "},"R":{"ha":1089,"x_min":69,"x_max":1081,"o":"m 147 883 q 100 958 147 943 q 69 996 69 968 q 93 1032 69 1021 q 111 1038 101 1036 q 121 1039 117 1039 l 488 1039 l 488 156 q 535 81 488 96 q 565 43 565 71 q 542 7 565 18 q 524 1 533 3 q 514 0 518 0 l 121 0 q 111 1 117 0 q 93 7 101 3 q 69 43 69 18 q 100 81 69 71 q 147 156 147 96 l 147 883 m 550 1039 l 625 1039 q 693 1035 664 1038 q 825 1001 769 1028 q 967 774 964 933 q 899 594 968 661 q 722 511 839 539 l 722 508 q 813 490 775 500 q 890 456 858 476 q 967 307 965 407 l 967 160 q 981 144 969 144 q 1007 165 990 144 q 1040 185 1022 185 q 1067 172 1054 185 q 1081 144 1081 158 q 1054 81 1081 117 q 1004 29 1032 50 q 847 -21 943 -21 q 690 38 749 -21 q 644 119 657 72 q 635 214 635 157 l 635 308 q 633 357 635 340 q 624 404 631 385 q 550 458 606 453 l 550 540 q 621 578 601 544 q 635 661 635 603 l 635 829 q 550 957 635 926 l 550 1039 z "},"S":{"ha":876,"x_min":57,"x_max":819,"o":"m 414 979 q 315 865 315 946 q 354 776 315 813 q 518 692 399 738 q 761 528 688 626 q 819 339 819 449 q 704 81 819 182 q 435 -21 594 -18 l 435 60 q 522 103 493 78 q 561 188 560 135 q 504 286 563 244 q 449 317 482 301 l 329 368 l 268 399 q 160 472 203 433 q 57 711 57 564 q 158 963 57 867 q 414 1060 257 1054 l 414 979 m 782 760 q 736 693 782 693 q 686 747 694 693 q 617 893 675 826 q 476 979 556 963 l 476 1060 q 542 1050 507 1060 q 601 1032 569 1044 l 647 1014 q 672 1006 668 1006 q 707 1031 690 1006 q 742 1056 724 1056 q 778 1031 769 1056 q 782 1011 781 1022 l 782 760 m 57 311 q 65 356 57 340 q 101 379 75 379 q 153 333 144 379 q 224 164 169 240 q 372 60 288 78 l 372 -21 q 297 -11 332 -19 q 247 6 272 -6 l 210 24 q 175 31 192 31 q 133 8 151 31 q 100 -15 117 -15 q 63 11 72 -15 q 57 31 58 19 l 57 311 z "},"T":{"ha":925,"x_min":31,"x_max":896,"o":"m 293 1039 l 633 1039 l 633 156 q 681 81 633 96 q 711 43 711 71 q 688 7 711 18 q 669 1 679 3 q 660 0 664 0 l 267 0 q 257 1 263 0 q 239 7 247 3 q 215 43 215 18 q 246 81 215 71 q 293 156 293 96 l 293 1039 m 896 715 q 894 707 896 711 q 889 693 893 699 q 850 675 876 675 q 813 697 824 675 q 800 742 804 711 q 789 800 794 776 q 771 858 781 832 q 696 958 744 924 l 696 1039 l 896 1039 l 896 715 m 31 1039 l 231 1039 l 231 958 q 156 858 182 924 q 138 800 146 832 q 126 742 132 776 q 114 697 122 711 q 76 675 103 675 q 38 693 50 675 q 32 707 33 699 q 31 715 31 711 l 31 1039 z "},"U":{"ha":1056,"x_min":61,"x_max":1011,"o":"m 819 819 q 793 913 813 878 q 756 951 779 938 l 722 969 q 708 999 708 979 q 739 1035 708 1026 q 763 1039 749 1038 l 957 1039 q 981 1035 971 1038 q 1011 999 1011 1026 q 997 969 1011 979 l 964 951 q 926 913 940 938 q 900 819 907 878 l 900 296 q 867 150 896 215 q 796 54 840 94 q 633 -18 719 -17 l 633 64 q 819 299 807 117 l 819 819 m 571 -21 q 493 -19 519 -21 q 421 -14 453 -18 q 281 33 346 -3 q 163 129 193 82 q 139 225 139 167 l 139 883 q 92 958 139 943 q 61 996 61 968 q 85 1032 61 1021 q 103 1038 93 1036 q 113 1039 108 1039 l 506 1039 q 515 1038 510 1039 q 533 1032 525 1036 q 557 996 557 1021 q 526 958 557 968 q 479 883 479 943 l 479 190 q 486 144 479 165 q 571 61 506 81 l 571 -21 z "},"V":{"ha":940,"x_min":24,"x_max":933,"o":"m 563 0 l 363 0 l 96 893 q 51 954 83 940 q 24 994 24 968 q 57 1033 24 1024 q 86 1039 69 1038 l 464 1039 q 479 1038 472 1039 q 517 997 517 1029 q 507 968 517 979 q 497 961 503 964 q 486 954 494 958 q 475 949 479 950 l 465 940 q 456 910 456 929 q 463 869 456 897 l 635 267 l 563 0 m 624 515 l 706 822 q 715 876 715 853 q 663 951 715 933 q 619 996 619 967 q 649 1033 619 1024 q 674 1039 658 1038 l 878 1039 q 904 1036 893 1039 q 933 1000 933 1029 q 890 954 933 975 q 819 897 843 932 q 782 804 797 860 l 665 372 l 663 372 l 624 515 z "},"W":{"ha":1279,"x_min":21,"x_max":1258,"o":"m 501 0 l 336 0 l 89 904 q 54 951 79 940 q 21 993 21 967 q 53 1033 21 1024 q 82 1038 65 1038 q 97 1039 89 1039 l 457 1039 q 483 1036 472 1039 q 511 999 511 1028 q 501 972 511 983 l 481 957 l 468 950 l 458 942 q 449 913 449 929 q 456 878 449 901 l 593 368 l 501 0 m 822 1039 l 1004 346 l 917 0 l 751 0 l 571 669 l 665 1039 l 822 1039 m 993 615 l 1046 832 l 1053 860 q 1056 889 1056 876 q 1013 953 1056 928 q 968 1001 968 978 q 1022 1039 968 1039 l 1201 1039 q 1258 1000 1258 1039 q 1229 965 1258 979 q 1157 906 1182 944 q 1124 817 1139 878 l 1035 464 l 1032 465 l 993 615 z "},"X":{"ha":947,"x_min":15,"x_max":932,"o":"m 853 142 q 897 88 874 100 q 932 44 932 71 q 901 6 932 15 q 872 1 889 1 q 858 0 867 0 l 493 0 q 463 3 475 0 q 426 44 426 11 q 450 78 426 63 q 474 111 474 94 q 468 140 474 126 l 456 168 l 96 890 q 43 954 74 936 q 15 992 15 971 q 47 1035 15 1025 q 76 1039 58 1038 l 440 1039 q 456 1038 449 1039 q 483 1033 472 1038 q 515 992 515 1022 q 494 960 515 972 q 472 929 472 947 q 485 890 472 915 l 853 142 m 606 775 l 626 815 l 649 851 q 658 892 658 872 q 614 956 658 933 q 581 997 581 974 q 592 1025 581 1014 q 617 1038 601 1035 q 631 1039 622 1039 l 831 1039 q 872 1035 857 1039 q 897 1004 897 1026 q 851 954 897 978 q 751 854 794 922 l 647 690 l 606 775 m 332 288 l 307 246 l 276 196 q 257 140 257 161 q 299 88 257 106 q 339 43 339 69 q 315 6 339 18 q 286 0 307 1 l 94 0 q 50 6 65 0 q 25 38 25 14 q 64 81 25 65 q 163 168 121 103 l 289 374 l 332 288 z "},"Y":{"ha":932,"x_min":6,"x_max":926,"o":"m 613 651 l 685 813 q 706 886 706 857 q 658 951 706 931 q 611 996 611 971 q 644 1036 611 1028 q 674 1039 656 1039 l 856 1039 q 903 1032 888 1039 q 926 994 926 1022 q 892 953 926 968 q 793 851 828 926 l 657 553 l 613 651 m 288 403 l 78 900 q 38 958 61 943 q 6 999 6 975 q 32 1035 6 1026 q 56 1039 42 1038 l 447 1039 q 472 1035 463 1038 q 499 997 499 1026 q 468 956 499 975 q 442 922 442 942 q 456 869 442 903 l 628 476 l 628 156 q 675 81 628 96 q 706 43 706 71 q 682 7 706 18 q 664 1 674 3 q 654 0 658 0 l 261 0 q 251 1 257 0 q 233 7 242 3 q 210 43 210 18 q 240 81 210 71 q 288 156 288 96 l 288 403 z "},"Z":{"ha":815,"x_min":31,"x_max":785,"o":"m 785 951 l 364 0 l 31 0 l 31 75 l 454 1039 l 785 1039 l 785 951 m 57 1039 l 392 1039 l 357 958 q 138 765 181 924 q 96 724 125 724 q 74 729 82 724 q 63 740 65 733 q 57 754 58 746 l 57 1039 m 785 0 l 426 0 l 463 81 q 619 144 569 103 q 704 282 667 185 q 744 324 717 324 q 767 318 758 324 q 779 307 775 314 q 783 293 782 301 l 785 0 z "},"[":{"ha":486,"x_min":93,"x_max":457,"o":"m 457 1060 l 457 979 l 301 979 l 301 -76 l 457 -76 l 457 -157 l 93 -157 l 93 1060 l 457 1060 z "},"\\":{"ha":483,"x_min":32,"x_max":453,"o":"m 335 -75 l 32 1111 l 151 1111 l 453 -75 l 335 -75 z "},"]":{"ha":486,"x_min":29,"x_max":393,"o":"m 29 -157 l 29 -76 l 185 -76 l 185 979 l 29 979 l 29 1060 l 393 1060 l 393 -157 l 29 -157 z "},"^":{"ha":835,"x_min":54,"x_max":776,"o":"m 596 432 l 414 858 l 228 432 l 54 432 l 336 1035 l 497 1035 l 776 432 l 596 432 z "},"_":{"ha":694,"x_min":0,"x_max":694,"o":"m 694 -51 l 694 -262 l 0 -262 l 0 -51 l 694 -51 z "},"‘":{"ha":521,"x_min":104,"x_max":418,"o":"m 104 749 q 143 878 104 811 q 231 982 178 938 q 371 1060 314 1051 q 418 1028 418 1065 q 396 993 418 1011 l 358 969 q 257 871 257 908 q 274 854 257 858 q 289 851 279 851 l 301 850 q 382 801 349 846 q 411 710 411 760 q 367 608 411 649 q 264 568 325 568 q 147 625 193 568 q 104 749 104 676 z "},"a":{"ha":965,"x_min":-11,"x_max":954,"o":"m 343 688 l 213 213 q 208 124 197 153 q 257 83 218 100 q 299 38 299 65 q 274 4 299 13 q 250 0 264 1 l 56 0 q 43 1 49 0 q 18 6 28 3 q -11 42 -11 15 q 4 72 -11 63 l 43 89 q 90 131 71 103 q 136 235 118 168 l 303 844 l 307 844 l 343 688 m 492 269 l 289 269 l 308 350 l 478 350 l 338 964 l 356 1039 l 663 1039 l 876 135 q 883 113 879 121 q 919 79 893 90 q 954 36 954 64 q 926 4 954 11 q 901 0 915 1 l 532 0 q 488 6 503 0 q 464 39 464 15 q 490 78 464 64 q 519 163 533 103 l 492 269 z "},"b":{"ha":1043,"x_min":46,"x_max":976,"o":"m 464 0 l 90 0 q 79 1 85 0 q 64 7 71 3 q 46 43 46 17 q 76 81 46 71 q 124 156 124 96 l 124 883 q 76 958 124 943 q 46 996 46 968 q 64 1032 46 1022 q 79 1038 71 1036 q 90 1039 85 1039 l 464 1039 l 464 0 m 526 1039 l 603 1039 q 635 1038 621 1039 q 700 1033 671 1038 q 826 999 772 1025 q 963 785 963 931 q 882 613 963 678 q 700 540 814 558 l 700 538 q 896 460 828 517 q 976 271 976 393 q 846 46 976 118 q 713 4 788 13 q 643 0 682 1 l 526 0 l 526 81 q 614 117 589 83 q 631 188 631 140 l 631 367 q 613 453 631 424 q 526 497 588 493 l 526 578 q 617 621 594 583 q 631 697 631 644 l 631 836 q 610 917 631 886 q 526 958 583 953 l 526 1039 z "},"c":{"ha":911,"x_min":31,"x_max":858,"o":"m 543 1060 q 590 1050 560 1060 q 646 1032 610 1044 l 699 1013 q 738 1004 725 1004 q 775 1031 763 1004 q 813 1060 789 1060 q 851 1038 840 1060 q 857 1021 856 1031 l 857 676 q 851 660 856 667 q 813 638 840 638 q 761 688 772 638 q 692 863 740 788 q 543 979 632 956 l 543 1060 m 771 257 q 817 301 786 301 q 858 254 858 301 q 754 72 856 165 q 543 -21 649 -25 l 543 60 q 771 257 724 100 m 481 -21 q 142 136 261 -17 q 31 501 31 275 q 154 897 31 743 q 481 1060 279 1053 l 481 979 q 411 932 433 969 q 392 850 392 899 l 392 192 q 481 60 392 82 l 481 -21 z "},"d":{"ha":1010,"x_min":36,"x_max":972,"o":"m 517 1039 q 824 915 704 1042 q 967 519 954 776 q 935 300 972 401 q 833 138 901 207 q 517 0 701 0 l 517 81 q 593 136 572 88 q 604 181 600 156 q 606 224 606 197 l 606 815 q 604 858 606 842 q 593 903 600 883 q 517 958 572 951 l 517 1039 m 454 0 l 101 0 q 36 43 36 0 q 67 81 36 71 q 114 156 114 96 l 114 901 q 113 921 114 913 q 90 950 107 944 l 69 957 q 53 965 60 961 q 36 999 36 976 q 99 1039 36 1039 l 454 1039 l 454 0 z "},"e":{"ha":914,"x_min":51,"x_max":851,"o":"m 51 996 q 75 1032 51 1021 q 93 1038 83 1036 q 103 1039 99 1039 l 469 1039 l 469 0 l 103 0 q 93 1 99 0 q 75 7 83 3 q 51 43 51 18 q 82 81 51 71 q 129 156 129 96 l 129 883 q 82 958 129 943 q 51 996 51 968 m 532 1039 l 842 1039 l 842 757 q 840 749 842 753 q 836 738 839 743 q 824 728 831 732 q 799 724 813 724 q 761 758 772 724 q 532 958 706 931 l 532 1039 m 532 81 q 768 282 707 103 q 811 325 788 325 q 849 304 839 325 q 851 288 851 296 l 851 0 l 532 0 l 532 81 m 532 575 q 597 622 572 586 q 629 697 618 651 q 674 743 643 743 q 708 717 701 743 q 710 696 710 708 l 710 368 q 708 347 710 356 q 674 321 701 321 q 629 367 643 321 q 597 442 618 413 q 532 489 572 478 l 532 575 z "},"f":{"ha":882,"x_min":63,"x_max":853,"o":"m 140 883 q 93 958 140 943 q 63 996 63 968 q 86 1032 63 1021 q 104 1038 94 1036 q 114 1039 110 1039 l 481 1039 l 481 156 q 528 81 481 96 q 558 43 558 71 q 535 7 558 18 q 517 1 526 3 q 507 0 511 0 l 114 0 q 104 1 110 0 q 86 7 94 3 q 63 43 63 18 q 93 81 63 71 q 140 156 140 96 l 140 883 m 543 1039 l 853 1039 l 853 757 q 851 749 853 753 q 847 738 850 743 q 835 728 842 732 q 810 724 824 724 q 772 758 783 724 q 543 958 717 931 l 543 1039 m 543 575 q 608 622 583 586 q 640 697 629 651 q 685 743 654 743 q 719 717 713 743 q 721 696 721 708 l 721 368 q 719 347 721 356 q 685 321 713 321 q 640 367 654 321 q 608 442 629 413 q 543 489 583 478 l 543 575 z "},"g":{"ha":965,"x_min":31,"x_max":928,"o":"m 392 188 q 404 113 392 142 q 458 60 421 74 l 458 -21 q 154 140 278 -15 q 31 519 31 296 q 154 900 31 743 q 458 1060 278 1056 l 458 979 q 404 928 421 965 q 392 853 392 899 l 392 188 m 521 1060 q 617 1046 571 1056 q 688 1029 653 1039 l 725 1018 q 729 1017 726 1017 l 735 1015 q 757 1008 753 1008 q 781 1017 771 1008 q 789 1025 785 1019 l 804 1043 q 814 1051 808 1049 q 839 1060 824 1060 q 874 1040 865 1060 q 878 1025 876 1033 l 878 694 q 872 678 876 685 q 835 656 863 656 q 782 711 796 656 q 678 910 751 839 q 521 979 610 975 l 521 1060 m 521 60 q 576 103 561 71 q 583 128 581 114 q 585 139 585 133 l 585 399 q 528 446 585 436 q 492 488 492 456 q 517 521 492 511 q 536 525 525 524 q 547 526 542 526 l 890 526 q 906 522 899 526 q 928 485 928 514 q 903 443 928 460 l 886 431 l 879 418 q 878 408 878 414 l 878 126 q 521 -21 719 -17 l 521 60 z "},"h":{"ha":1176,"x_min":78,"x_max":1099,"o":"m 496 156 q 543 81 496 96 q 574 43 574 71 q 550 7 574 18 q 532 1 542 3 q 522 0 526 0 l 129 0 q 119 1 125 0 q 101 7 110 3 q 78 43 78 18 q 108 81 78 71 q 156 156 156 96 l 156 883 q 108 958 156 943 q 78 996 78 968 q 101 1032 78 1021 q 119 1038 110 1036 q 129 1039 125 1039 l 522 1039 q 532 1038 526 1039 q 550 1032 542 1036 q 574 996 574 1021 q 543 958 574 968 q 496 883 496 943 l 496 156 m 681 488 l 558 488 l 558 568 l 681 568 l 681 883 q 633 958 681 943 q 603 996 603 968 q 626 1032 603 1021 q 644 1038 635 1036 q 654 1039 650 1039 l 1047 1039 q 1057 1038 1051 1039 q 1075 1032 1067 1036 q 1099 996 1099 1021 q 1068 958 1099 968 q 1021 883 1021 943 l 1021 156 q 1068 81 1021 96 q 1099 43 1099 71 q 1075 7 1099 18 q 1057 1 1067 3 q 1047 0 1051 0 l 654 0 q 644 1 650 0 q 626 7 635 3 q 603 43 603 18 q 633 81 603 71 q 681 156 681 96 l 681 488 z "},"i":{"ha":621,"x_min":63,"x_max":558,"o":"m 481 156 q 528 81 481 96 q 558 43 558 71 q 535 7 558 18 q 517 1 526 3 q 507 0 511 0 l 114 0 q 104 1 110 0 q 86 7 94 3 q 63 43 63 18 q 93 81 63 71 q 140 156 140 96 l 140 883 q 93 958 140 943 q 63 996 63 968 q 86 1032 63 1021 q 104 1038 94 1036 q 114 1039 110 1039 l 507 1039 q 517 1038 511 1039 q 535 1032 526 1036 q 558 996 558 1021 q 528 958 558 968 q 481 883 481 943 l 481 156 z "},"j":{"ha":839,"x_min":1,"x_max":797,"o":"m 263 -17 q 83 57 157 -6 q 1 226 1 125 q 49 344 1 296 q 164 394 96 394 q 269 351 225 394 q 315 246 315 307 q 219 107 315 146 q 211 103 215 104 q 206 96 206 99 q 213 86 206 92 q 229 76 218 81 q 249 69 238 72 l 263 65 l 263 -17 m 719 282 q 703 160 719 208 q 635 58 683 100 q 511 -3 588 18 q 374 -21 444 -21 l 325 -19 l 325 63 q 372 118 361 79 q 379 190 379 140 l 379 883 q 332 958 379 943 q 301 996 301 968 q 325 1032 301 1021 q 343 1038 333 1036 q 353 1039 349 1039 l 746 1039 q 756 1038 750 1039 q 774 1032 765 1036 q 797 996 797 1021 q 767 958 797 968 q 719 883 719 943 l 719 282 z "},"k":{"ha":1143,"x_min":78,"x_max":1101,"o":"m 1028 129 q 1036 111 1032 118 q 1068 82 1047 92 q 1101 38 1101 67 q 1075 4 1101 11 q 1051 0 1065 1 l 654 0 q 631 6 640 1 q 606 43 606 15 q 635 83 606 68 q 663 111 663 97 q 658 132 663 118 q 651 153 656 144 l 558 432 l 553 453 q 547 496 547 476 q 557 533 547 515 l 567 550 l 740 796 q 776 883 776 844 q 724 954 776 932 q 681 997 681 974 q 704 1035 681 1025 q 725 1039 713 1038 l 986 1039 q 1036 1033 1021 1039 q 1060 993 1060 1022 q 1008 942 1060 961 q 901 874 944 918 q 863 828 883 856 l 796 738 l 1028 129 m 496 156 q 543 81 496 96 q 574 43 574 71 q 550 7 574 18 q 532 1 542 3 q 522 0 526 0 l 129 0 q 119 1 125 0 q 101 7 110 3 q 78 43 78 18 q 108 81 78 71 q 156 156 156 96 l 156 883 q 108 958 156 943 q 78 996 78 968 q 101 1032 78 1021 q 119 1038 110 1036 q 129 1039 125 1039 l 522 1039 q 532 1038 526 1039 q 550 1032 542 1036 q 574 996 574 1021 q 543 958 574 968 q 496 883 496 943 l 496 156 z "},"l":{"ha":829,"x_min":56,"x_max":829,"o":"m 474 0 l 107 0 q 97 1 103 0 q 79 7 88 3 q 56 43 56 18 q 86 81 56 71 q 133 156 133 96 l 133 883 q 86 958 133 943 q 56 996 56 968 q 79 1032 56 1021 q 97 1038 88 1036 q 107 1039 103 1039 l 500 1039 q 510 1038 504 1039 q 528 1032 519 1036 q 551 996 551 1021 q 521 958 551 968 q 474 883 474 943 l 474 0 m 536 81 q 671 158 617 92 q 742 322 718 219 q 794 361 750 361 q 829 308 829 361 l 829 0 l 536 0 l 536 81 z "},"m":{"ha":1221,"x_min":57,"x_max":1165,"o":"m 174 688 l 176 688 l 254 458 l 254 219 q 281 126 261 161 q 318 88 294 101 l 351 69 q 365 40 365 60 q 335 4 365 13 q 311 0 325 1 l 117 0 q 93 4 103 1 q 63 40 63 13 q 76 69 63 60 l 110 88 q 147 126 133 101 q 174 219 167 161 l 174 688 m 747 1039 l 1114 1039 q 1124 1038 1118 1039 q 1142 1032 1133 1036 q 1165 996 1165 1021 q 1135 958 1165 968 q 1088 883 1088 943 l 1088 156 q 1135 81 1088 96 q 1165 43 1165 71 q 1142 7 1165 18 q 1124 1 1133 3 q 1114 0 1118 0 l 721 0 q 711 1 717 0 q 693 7 701 3 q 669 43 669 18 q 700 81 669 71 q 747 156 747 96 l 747 1039 m 57 996 q 81 1033 57 1024 q 99 1039 88 1038 l 468 1039 l 617 613 l 619 613 l 682 843 l 685 843 l 685 590 l 508 0 l 468 0 l 178 860 q 172 875 175 871 l 167 890 q 153 919 160 907 q 111 958 131 957 l 96 960 q 78 965 85 963 q 57 996 57 974 z "},"n":{"ha":1046,"x_min":49,"x_max":997,"o":"m 160 778 l 163 778 l 240 639 l 240 219 q 267 126 247 161 q 304 88 281 101 l 338 69 q 351 40 351 60 q 321 4 351 13 q 297 0 311 1 l 103 0 q 79 4 89 1 q 49 40 49 13 q 63 69 49 60 l 96 88 q 133 126 119 101 q 160 219 153 161 l 160 778 m 803 788 q 785 894 803 856 q 746 943 772 925 l 715 960 q 707 965 710 963 q 689 997 689 978 q 714 1033 689 1022 q 733 1038 722 1036 q 749 1039 740 1039 l 938 1039 q 953 1038 946 1039 q 972 1033 964 1036 q 997 997 997 1022 q 979 965 997 978 q 971 960 976 963 l 940 943 q 901 894 914 925 q 883 788 883 856 l 883 450 l 881 450 l 803 590 l 803 788 m 883 336 l 883 0 l 676 0 l 153 903 q 139 922 146 915 q 93 951 124 942 q 51 996 51 967 q 76 1032 51 1024 q 99 1038 85 1036 l 117 1039 l 479 1039 l 883 336 z "},"o":{"ha":988,"x_min":31,"x_max":957,"o":"m 463 979 q 403 933 419 964 q 392 879 392 913 l 392 160 q 403 106 392 126 q 463 60 419 75 l 463 -21 q 136 156 251 -1 q 31 519 31 300 q 136 883 31 739 q 463 1060 251 1040 l 463 979 m 525 60 q 585 106 568 75 q 596 160 596 126 l 596 879 q 585 933 596 913 q 525 979 568 964 l 525 1060 q 851 883 736 1040 q 957 519 957 739 q 851 156 957 300 q 525 -21 736 -1 l 525 60 z "},"p":{"ha":992,"x_min":44,"x_max":943,"o":"m 525 1039 q 800 988 711 1039 q 943 718 943 903 q 800 449 943 533 q 525 397 711 397 l 525 478 q 599 528 581 488 q 611 618 611 556 l 611 828 q 596 913 611 883 q 525 958 575 951 l 525 1039 m 122 883 q 75 958 122 943 q 44 996 44 968 q 68 1032 44 1021 q 86 1038 76 1036 q 96 1039 92 1039 l 463 1039 l 463 156 q 510 81 463 96 q 540 43 540 71 q 517 7 540 18 q 499 1 508 3 q 489 0 493 0 l 96 0 q 86 1 92 0 q 68 7 76 3 q 44 43 44 18 q 75 81 44 71 q 122 156 122 96 l 122 883 z "},"q":{"ha":997,"x_min":31,"x_max":968,"o":"m 463 979 q 403 933 419 964 q 392 879 392 913 l 392 160 q 403 106 392 126 q 463 60 419 75 l 463 -21 q 136 156 251 -1 q 31 519 31 300 q 136 883 31 739 q 463 1060 251 1040 l 463 979 m 599 879 q 588 933 599 913 q 528 979 571 964 l 528 1060 l 529 1060 q 856 883 740 1040 q 960 519 963 739 q 921 289 958 389 q 789 92 879 179 q 867 61 818 61 q 914 69 889 61 l 931 74 q 943 76 939 76 q 968 47 968 76 q 929 -8 968 17 q 797 -53 865 -53 q 644 10 701 -53 q 525 -21 601 -21 l 525 61 l 538 68 q 549 75 544 71 q 568 92 561 82 q 504 143 536 133 q 456 179 456 146 q 524 224 456 224 q 599 206 569 224 l 599 879 z "},"r":{"ha":1089,"x_min":69,"x_max":1081,"o":"m 147 883 q 100 958 147 943 q 69 996 69 968 q 93 1032 69 1021 q 111 1038 101 1036 q 121 1039 117 1039 l 488 1039 l 488 156 q 535 81 488 96 q 565 43 565 71 q 542 7 565 18 q 524 1 533 3 q 514 0 518 0 l 121 0 q 111 1 117 0 q 93 7 101 3 q 69 43 69 18 q 100 81 69 71 q 147 156 147 96 l 147 883 m 550 1039 l 625 1039 q 693 1035 664 1038 q 825 1001 769 1028 q 967 774 964 933 q 899 594 968 661 q 722 511 839 539 l 722 508 q 813 490 775 500 q 890 456 858 476 q 967 307 965 407 l 967 160 q 981 144 969 144 q 1007 165 990 144 q 1040 185 1022 185 q 1067 172 1054 185 q 1081 144 1081 158 q 1054 81 1081 117 q 1004 29 1032 50 q 847 -21 943 -21 q 690 38 749 -21 q 644 119 657 72 q 635 214 635 157 l 635 308 q 633 357 635 340 q 624 404 631 385 q 550 458 606 453 l 550 540 q 621 578 601 544 q 635 661 635 603 l 635 829 q 550 957 635 926 l 550 1039 z "},"s":{"ha":876,"x_min":57,"x_max":819,"o":"m 414 979 q 315 865 315 946 q 354 776 315 813 q 518 692 399 738 q 761 528 688 626 q 819 339 819 449 q 704 81 819 182 q 435 -21 594 -18 l 435 60 q 522 103 493 78 q 561 188 560 135 q 504 286 563 244 q 449 317 482 301 l 329 368 l 268 399 q 160 472 203 433 q 57 711 57 564 q 158 963 57 867 q 414 1060 257 1054 l 414 979 m 782 760 q 736 693 782 693 q 686 747 694 693 q 617 893 675 826 q 476 979 556 963 l 476 1060 q 542 1050 507 1060 q 601 1032 569 1044 l 647 1014 q 672 1006 668 1006 q 707 1031 690 1006 q 742 1056 724 1056 q 778 1031 769 1056 q 782 1011 781 1022 l 782 760 m 57 311 q 65 356 57 340 q 101 379 75 379 q 153 333 144 379 q 224 164 169 240 q 372 60 288 78 l 372 -21 q 297 -11 332 -19 q 247 6 272 -6 l 210 24 q 175 31 192 31 q 133 8 151 31 q 100 -15 117 -15 q 63 11 72 -15 q 57 31 58 19 l 57 311 z "},"t":{"ha":925,"x_min":31,"x_max":896,"o":"m 293 1039 l 633 1039 l 633 156 q 681 81 633 96 q 711 43 711 71 q 688 7 711 18 q 669 1 679 3 q 660 0 664 0 l 267 0 q 257 1 263 0 q 239 7 247 3 q 215 43 215 18 q 246 81 215 71 q 293 156 293 96 l 293 1039 m 896 715 q 894 707 896 711 q 889 693 893 699 q 850 675 876 675 q 813 697 824 675 q 800 742 804 711 q 789 800 794 776 q 771 858 781 832 q 696 958 744 924 l 696 1039 l 896 1039 l 896 715 m 31 1039 l 231 1039 l 231 958 q 156 858 182 924 q 138 800 146 832 q 126 742 132 776 q 114 697 122 711 q 76 675 103 675 q 38 693 50 675 q 32 707 33 699 q 31 715 31 711 l 31 1039 z "},"u":{"ha":1056,"x_min":61,"x_max":1011,"o":"m 819 819 q 793 913 813 878 q 756 951 779 938 l 722 969 q 708 999 708 979 q 739 1035 708 1026 q 763 1039 749 1038 l 957 1039 q 981 1035 971 1038 q 1011 999 1011 1026 q 997 969 1011 979 l 964 951 q 926 913 940 938 q 900 819 907 878 l 900 296 q 867 150 896 215 q 796 54 840 94 q 633 -18 719 -17 l 633 64 q 819 299 807 117 l 819 819 m 571 -21 q 493 -19 519 -21 q 421 -14 453 -18 q 281 33 346 -3 q 163 129 193 82 q 139 225 139 167 l 139 883 q 92 958 139 943 q 61 996 61 968 q 85 1032 61 1021 q 103 1038 93 1036 q 113 1039 108 1039 l 506 1039 q 515 1038 510 1039 q 533 1032 525 1036 q 557 996 557 1021 q 526 958 557 968 q 479 883 479 943 l 479 190 q 486 144 479 165 q 571 61 506 81 l 571 -21 z "},"v":{"ha":940,"x_min":24,"x_max":933,"o":"m 563 0 l 363 0 l 96 893 q 51 954 83 940 q 24 994 24 968 q 57 1033 24 1024 q 86 1039 69 1038 l 464 1039 q 479 1038 472 1039 q 517 997 517 1029 q 507 968 517 979 q 497 961 503 964 q 486 954 494 958 q 475 949 479 950 l 465 940 q 456 910 456 929 q 463 869 456 897 l 635 267 l 563 0 m 624 515 l 706 822 q 715 876 715 853 q 663 951 715 933 q 619 996 619 967 q 649 1033 619 1024 q 674 1039 658 1038 l 878 1039 q 904 1036 893 1039 q 933 1000 933 1029 q 890 954 933 975 q 819 897 843 932 q 782 804 797 860 l 665 372 l 663 372 l 624 515 z "},"w":{"ha":1279,"x_min":21,"x_max":1258,"o":"m 501 0 l 336 0 l 89 904 q 54 951 79 940 q 21 993 21 967 q 53 1033 21 1024 q 82 1038 65 1038 q 97 1039 89 1039 l 457 1039 q 483 1036 472 1039 q 511 999 511 1028 q 501 972 511 983 l 481 957 l 468 950 l 458 942 q 449 913 449 929 q 456 878 449 901 l 593 368 l 501 0 m 822 1039 l 1004 346 l 917 0 l 751 0 l 571 669 l 665 1039 l 822 1039 m 993 615 l 1046 832 l 1053 860 q 1056 889 1056 876 q 1013 953 1056 928 q 968 1001 968 978 q 1022 1039 968 1039 l 1201 1039 q 1258 1000 1258 1039 q 1229 965 1258 979 q 1157 906 1182 944 q 1124 817 1139 878 l 1035 464 l 1032 465 l 993 615 z "},"x":{"ha":947,"x_min":15,"x_max":932,"o":"m 853 142 q 897 88 874 100 q 932 44 932 71 q 901 6 932 15 q 872 1 889 1 q 858 0 867 0 l 493 0 q 463 3 475 0 q 426 44 426 11 q 450 78 426 63 q 474 111 474 94 q 468 140 474 126 l 456 168 l 96 890 q 43 954 74 936 q 15 992 15 971 q 47 1035 15 1025 q 76 1039 58 1038 l 440 1039 q 456 1038 449 1039 q 483 1033 472 1038 q 515 992 515 1022 q 494 960 515 972 q 472 929 472 947 q 485 890 472 915 l 853 142 m 606 775 l 626 815 l 649 851 q 658 892 658 872 q 614 956 658 933 q 581 997 581 974 q 592 1025 581 1014 q 617 1038 601 1035 q 631 1039 622 1039 l 831 1039 q 872 1035 857 1039 q 897 1004 897 1026 q 851 954 897 978 q 751 854 794 922 l 647 690 l 606 775 m 332 288 l 307 246 l 276 196 q 257 140 257 161 q 299 88 257 106 q 339 43 339 69 q 315 6 339 18 q 286 0 307 1 l 94 0 q 50 6 65 0 q 25 38 25 14 q 64 81 25 65 q 163 168 121 103 l 289 374 l 332 288 z "},"y":{"ha":932,"x_min":6,"x_max":926,"o":"m 613 651 l 685 813 q 706 886 706 857 q 658 951 706 931 q 611 996 611 971 q 644 1036 611 1028 q 674 1039 656 1039 l 856 1039 q 903 1032 888 1039 q 926 994 926 1022 q 892 953 926 968 q 793 851 828 926 l 657 553 l 613 651 m 288 403 l 78 900 q 38 958 61 943 q 6 999 6 975 q 32 1035 6 1026 q 56 1039 42 1038 l 447 1039 q 472 1035 463 1038 q 499 997 499 1026 q 468 956 499 975 q 442 922 442 942 q 456 869 442 903 l 628 476 l 628 156 q 675 81 628 96 q 706 43 706 71 q 682 7 706 18 q 664 1 674 3 q 654 0 658 0 l 261 0 q 251 1 257 0 q 233 7 242 3 q 210 43 210 18 q 240 81 210 71 q 288 156 288 96 l 288 403 z "},"z":{"ha":815,"x_min":31,"x_max":785,"o":"m 785 951 l 364 0 l 31 0 l 31 75 l 454 1039 l 785 1039 l 785 951 m 57 1039 l 392 1039 l 357 958 q 138 765 181 924 q 96 724 125 724 q 74 729 82 724 q 63 740 65 733 q 57 754 58 746 l 57 1039 m 785 0 l 426 0 l 463 81 q 619 144 569 103 q 704 282 667 185 q 744 324 717 324 q 767 318 758 324 q 779 307 775 314 q 783 293 782 301 l 785 0 z "},"{":{"ha":486,"x_min":85,"x_max":475,"o":"m 361 43 q 383 -83 361 -44 q 475 -153 407 -128 l 475 -157 q 383 -156 411 -157 q 313 -151 340 -156 q 208 -107 236 -144 q 171 76 171 -58 l 171 265 q 85 450 171 418 l 85 454 q 171 639 171 486 l 171 828 q 208 1011 171 963 q 313 1056 236 1049 q 383 1060 340 1058 l 475 1060 l 475 1057 q 383 988 407 1032 q 361 861 361 949 l 361 675 q 344 528 361 574 q 268 454 324 472 l 268 450 q 344 378 324 432 q 361 229 361 331 l 361 43 z "},"|":{"ha":438,"x_min":135,"x_max":303,"o":"m 135 -414 l 135 1249 l 303 1249 l 303 -414 l 135 -414 z "},"}":{"ha":486,"x_min":11,"x_max":401,"o":"m 125 860 q 104 986 125 947 q 11 1056 79 1031 l 11 1060 l 103 1060 q 174 1054 146 1058 q 278 1010 250 1047 q 315 826 315 961 l 315 638 q 401 453 315 485 l 401 449 q 315 264 315 417 l 315 75 q 278 -108 315 -60 q 174 -153 250 -146 q 103 -157 146 -156 l 11 -157 l 11 -154 q 104 -85 79 -129 q 125 42 125 -46 l 125 228 q 142 376 125 329 q 218 449 163 431 l 218 453 q 142 526 163 471 q 125 674 125 572 l 125 860 z "},"~":{"ha":814,"x_min":36,"x_max":771,"o":"m 771 465 q 547 297 674 297 q 388 353 469 297 l 360 372 q 332 388 344 382 q 272 403 303 403 q 194 369 231 403 q 165 336 182 357 l 138 299 l 36 393 q 136 508 71 461 q 279 558 207 558 q 365 543 326 558 q 399 528 382 538 q 413 519 406 525 l 426 511 q 540 456 511 456 q 610 486 576 456 q 669 560 632 507 l 771 465 z "},"¡":{"ha":525,"x_min":106,"x_max":419,"o":"m 413 621 q 369 515 413 560 q 263 471 326 471 q 156 515 199 471 q 113 621 113 560 q 156 726 113 682 q 263 771 199 771 q 369 726 326 771 q 413 621 413 682 m 263 -310 q 143 -251 186 -310 q 106 -118 106 -199 q 119 -28 106 -81 q 132 19 124 -7 l 169 135 q 190 208 182 175 q 213 357 210 289 q 263 414 215 414 q 313 357 310 414 q 336 208 315 289 q 356 135 343 175 l 393 19 q 406 -28 401 -7 q 419 -118 419 -81 q 382 -251 419 -199 q 263 -310 339 -310 z "},"¢":{"ha":833,"x_min":93,"x_max":742,"o":"m 456 69 l 456 -81 l 375 -81 l 375 69 l 456 69 m 375 268 q 403 201 375 228 q 499 167 436 168 q 607 213 557 165 q 674 317 654 254 q 708 353 683 353 q 742 315 742 353 q 661 174 739 243 q 481 103 576 101 q 183 226 283 107 q 93 511 93 332 q 193 819 93 701 q 469 947 296 942 q 529 942 499 949 q 578 928 551 938 l 618 914 q 647 907 636 907 q 676 926 667 907 q 706 949 685 949 q 725 943 718 949 q 736 932 732 939 q 740 918 739 925 l 740 649 q 736 636 739 642 q 725 624 732 628 q 706 618 718 618 q 669 657 681 618 q 611 793 647 738 q 496 885 564 865 q 401 860 435 901 q 375 782 375 828 l 375 268 m 375 1140 l 456 1140 l 456 982 l 375 982 l 375 1140 z "},"£":{"ha":894,"x_min":19,"x_max":875,"o":"m 136 206 l 133 208 q 171 279 158 244 q 188 360 188 321 q 158 515 188 457 l 19 515 l 19 596 l 138 596 q 138 825 110 728 q 235 974 163 913 q 369 1042 289 1021 q 521 1060 438 1060 q 689 1036 615 1060 q 799 976 754 1015 q 875 818 875 910 q 749 699 875 699 q 642 804 642 699 q 661 864 642 836 q 707 907 675 883 q 647 961 689 943 q 567 979 613 976 q 468 933 506 982 q 435 826 435 889 q 469 596 435 765 l 707 596 l 707 515 l 469 515 q 460 447 465 476 q 440 381 453 410 q 376 297 418 325 q 332 275 358 285 l 136 206 m 186 182 q 325 224 246 204 q 467 246 415 246 q 556 232 514 246 q 621 201 585 222 l 647 185 l 674 171 q 728 157 701 157 q 782 192 757 157 l 786 197 q 790 203 789 203 q 799 214 794 210 q 822 224 808 224 q 846 192 846 224 q 775 47 846 121 q 685 -18 736 6 q 560 -44 628 -44 q 442 -24 503 -44 q 389 -4 417 -17 l 290 44 q 244 64 264 57 q 156 85 194 85 q 125 81 142 85 l 72 65 q 51 61 60 61 q 19 92 19 61 q 51 132 19 114 q 79 143 63 138 l 186 182 z "},"⁄":{"ha":293,"x_min":-219,"x_max":517,"o":"m -153 -71 l -219 -21 l 449 1083 l 517 1040 l -153 -71 z "},"¥":{"ha":932,"x_min":6,"x_max":926,"o":"m 613 651 l 685 813 q 706 886 706 857 q 658 951 706 931 q 611 996 611 971 q 644 1036 611 1028 q 674 1039 656 1039 l 856 1039 q 903 1032 888 1039 q 926 994 926 1022 q 892 953 926 968 q 793 851 828 926 l 657 553 l 613 651 m 288 253 l 182 253 l 182 333 l 288 333 l 288 403 l 78 900 q 38 958 61 943 q 6 999 6 975 q 32 1035 6 1026 q 56 1039 42 1038 l 447 1039 q 472 1035 463 1038 q 499 997 499 1026 q 468 956 499 975 q 442 922 442 942 q 456 869 442 903 l 628 476 l 628 333 l 733 333 l 733 253 l 628 253 l 628 156 q 675 81 628 96 q 706 43 706 71 q 682 7 706 18 q 664 1 674 3 q 654 0 658 0 l 261 0 q 251 1 257 0 q 233 7 242 3 q 210 43 210 18 q 240 81 210 71 q 288 156 288 96 l 288 253 z "},"ƒ":{"ha":1000,"x_min":-158,"x_max":1051,"o":"m 786 1050 q 950 989 874 1043 q 1046 839 1038 926 q 1017 742 1051 781 q 925 701 982 701 q 836 738 875 701 q 793 822 799 772 q 818 904 789 869 l 839 926 q 847 940 847 936 q 825 961 846 953 l 786 969 l 786 1050 m 308 464 l 153 464 l 164 544 l 318 544 l 351 797 q 365 872 358 844 q 417 982 382 943 q 513 1046 453 1026 q 724 1060 593 1072 l 724 979 q 658 926 681 975 q 621 706 631 864 l 600 544 l 776 544 l 767 464 l 590 464 l 522 -76 q 511 -132 518 -108 q 464 -233 496 -194 l 451 -246 l 436 -260 q 385 -285 414 -275 q 300 -300 349 -296 q 171 -296 243 -303 l 171 -215 q 225 -151 206 -222 q 239 -87 232 -125 l 308 464 m 107 -289 q -57 -228 21 -282 q -153 -78 -146 -165 q -125 19 -158 -19 q -32 60 -90 60 q 57 24 18 60 q 100 -61 96 -12 q 75 -143 104 -108 q 64 -156 71 -149 l 54 -165 q 46 -179 46 -175 q 68 -200 46 -192 l 107 -208 l 107 -289 z "},"§":{"ha":874,"x_min":65,"x_max":815,"o":"m 815 372 q 678 22 815 196 q 364 -196 539 -153 q 269 -182 318 -196 q 179 -139 214 -167 q 144 -74 144 -110 q 169 -19 144 -56 q 231 39 197 19 q 275 44 256 54 q 286 35 279 42 q 292 28 288 32 l 315 1 l 336 -18 q 446 -67 390 -67 q 510 -18 510 -67 q 403 82 510 0 l 236 194 q 111 333 150 258 q 65 539 65 418 q 83 657 65 596 q 129 767 99 711 q 250 928 181 863 q 371 1028 324 997 q 508 1079 431 1064 q 697 1011 636 1079 q 724 958 724 982 q 689 888 724 926 q 633 843 660 856 q 617 839 625 839 q 593 849 604 839 l 531 914 q 436 961 481 961 q 372 906 372 961 q 396 865 372 886 q 417 849 403 858 l 496 792 l 672 672 q 772 561 738 624 q 815 374 814 483 l 815 372 m 192 665 q 228 551 192 607 q 354 428 269 488 l 463 358 q 557 294 532 313 q 621 222 596 260 q 654 125 653 174 l 658 126 q 685 211 685 160 q 529 449 685 349 q 432 511 493 469 l 333 579 q 233 785 228 669 l 228 788 q 204 735 213 763 q 192 667 192 699 l 192 665 z "},"¤":{"ha":881,"x_min":83,"x_max":799,"o":"m 693 94 l 597 217 q 440 169 536 169 q 285 218 344 169 l 190 94 l 83 193 l 189 311 q 128 515 128 396 q 190 718 128 646 l 85 825 l 190 925 l 283 811 q 440 863 344 863 q 522 853 489 863 q 599 813 567 842 l 694 928 l 797 825 l 692 717 q 756 515 756 649 q 692 311 756 393 l 799 193 l 693 94 m 440 701 q 339 647 379 701 q 300 515 300 593 q 443 331 300 331 q 546 383 506 331 q 585 515 585 435 q 546 647 585 593 q 443 701 504 701 l 440 701 z "},"'":{"ha":308,"x_min":82,"x_max":226,"o":"m 154 1060 q 226 976 226 1060 q 224 926 226 963 l 197 669 q 154 621 193 621 q 111 669 115 621 l 85 926 q 82 976 82 963 q 154 1060 82 1060 z "},"“":{"ha":885,"x_min":104,"x_max":782,"o":"m 104 749 q 143 878 104 811 q 231 982 178 938 q 371 1060 314 1051 q 418 1028 418 1065 q 396 993 418 1011 l 358 969 q 257 871 257 908 q 274 854 257 858 q 289 851 279 851 l 301 850 q 382 801 349 846 q 411 710 411 760 q 367 608 411 649 q 264 568 325 568 q 147 625 193 568 q 104 749 104 676 m 468 749 q 507 878 468 811 q 594 982 542 938 q 735 1060 678 1051 q 782 1028 782 1065 q 760 993 782 1011 l 722 969 q 621 871 621 908 q 638 854 621 858 q 653 851 643 851 l 665 850 q 746 801 713 846 q 775 710 775 760 q 731 608 775 649 q 628 568 689 568 q 511 625 557 568 q 468 749 468 676 z "},"«":{"ha":843,"x_min":106,"x_max":738,"o":"m 313 819 q 339 808 319 819 q 378 781 357 797 q 426 721 426 739 q 403 675 426 707 l 319 583 q 296 556 304 567 q 271 515 271 526 q 296 475 271 504 q 319 447 304 464 l 403 356 q 426 310 426 324 q 378 250 426 292 q 339 222 357 233 q 313 211 319 211 q 286 228 297 211 l 125 471 q 106 515 106 496 q 125 560 106 535 l 286 803 q 313 819 297 819 m 624 819 q 650 808 631 819 q 689 781 668 797 q 738 721 738 739 q 714 675 738 707 l 631 583 q 607 556 615 567 q 582 515 582 526 q 607 475 582 504 q 631 447 615 464 l 714 356 q 738 310 738 324 q 689 250 738 292 q 650 222 668 233 q 624 211 631 211 q 597 228 608 211 l 436 471 q 417 515 417 496 q 436 560 417 535 l 597 803 q 624 819 608 819 z "},"‹":{"ha":472,"x_min":75,"x_max":396,"o":"m 282 819 q 308 808 289 819 q 347 781 326 797 q 396 721 396 739 q 372 675 396 707 l 289 583 q 265 556 274 567 q 240 515 240 526 q 265 475 240 504 q 289 447 274 464 l 372 356 q 396 310 396 324 q 347 250 396 292 q 308 222 326 233 q 282 211 289 211 q 256 228 267 211 l 94 471 q 75 515 75 496 q 94 560 75 535 l 256 803 q 282 819 267 819 z "},"›":{"ha":472,"x_min":75,"x_max":396,"o":"m 189 819 q 215 803 204 819 l 376 560 q 396 515 396 535 q 376 471 396 496 l 215 228 q 189 211 204 211 q 163 222 182 211 q 124 250 144 233 q 75 310 75 292 q 100 356 75 324 q 153 417 115 375 l 207 475 q 231 515 231 504 q 207 556 231 526 l 153 614 q 100 675 115 656 q 75 721 75 707 q 124 781 75 739 q 163 808 144 797 q 189 819 182 819 z "},"ﬁ":{"ha":1503,"x_min":63,"x_max":1440,"o":"m 543 1039 l 853 1039 l 853 757 q 851 749 853 753 q 847 738 850 743 q 835 728 842 732 q 810 724 824 724 q 772 758 783 724 q 543 958 717 931 l 543 1039 m 140 883 q 93 958 140 943 q 63 996 63 968 q 86 1032 63 1021 q 104 1038 94 1036 q 114 1039 110 1039 l 481 1039 l 481 156 q 528 81 481 96 q 558 43 558 71 q 535 7 558 18 q 517 1 526 3 q 507 0 511 0 l 114 0 q 104 1 110 0 q 86 7 94 3 q 63 43 63 18 q 93 81 63 71 q 140 156 140 96 l 140 883 m 1363 156 q 1410 81 1363 96 q 1440 43 1440 71 q 1417 7 1440 18 q 1399 1 1408 3 q 1389 0 1393 0 l 996 0 q 986 1 992 0 q 968 7 976 3 q 944 43 944 18 q 975 81 944 71 q 1022 156 1022 96 l 1022 883 q 975 958 1022 943 q 944 996 944 968 q 968 1032 944 1021 q 986 1038 976 1036 q 996 1039 992 1039 l 1389 1039 q 1399 1038 1393 1039 q 1417 1032 1408 1036 q 1440 996 1440 1021 q 1410 958 1440 968 q 1363 883 1363 943 l 1363 156 m 543 575 q 608 622 583 586 q 640 697 629 651 q 685 743 654 743 q 719 717 713 743 q 721 696 721 708 l 721 368 q 719 347 721 356 q 685 321 713 321 q 640 367 654 321 q 608 442 629 413 q 543 489 583 478 l 543 575 z "},"ﬂ":{"ha":1711,"x_min":63,"x_max":1711,"o":"m 140 883 q 93 958 140 943 q 63 996 63 968 q 86 1032 63 1021 q 104 1038 94 1036 q 114 1039 110 1039 l 481 1039 l 481 156 q 528 81 481 96 q 558 43 558 71 q 535 7 558 18 q 517 1 526 3 q 507 0 511 0 l 114 0 q 104 1 110 0 q 86 7 94 3 q 63 43 63 18 q 93 81 63 71 q 140 156 140 96 l 140 883 m 543 1039 l 853 1039 l 853 757 q 851 749 853 753 q 847 738 850 743 q 835 728 842 732 q 810 724 824 724 q 772 758 783 724 q 543 958 717 931 l 543 1039 m 1356 0 l 989 0 q 979 1 985 0 q 961 7 969 3 q 938 43 938 18 q 968 81 938 71 q 1015 156 1015 96 l 1015 883 q 968 958 1015 943 q 938 996 938 968 q 961 1032 938 1021 q 979 1038 969 1036 q 989 1039 985 1039 l 1382 1039 q 1392 1038 1386 1039 q 1410 1032 1401 1036 q 1433 996 1433 1021 q 1403 958 1433 968 q 1356 883 1356 943 l 1356 0 m 1418 81 q 1553 158 1499 92 q 1624 322 1600 219 q 1676 361 1632 361 q 1711 308 1711 361 l 1711 0 l 1418 0 l 1418 81 m 543 575 q 608 622 583 586 q 640 697 629 651 q 685 743 654 743 q 719 717 713 743 q 721 696 721 708 l 721 368 q 719 347 721 356 q 685 321 713 321 q 640 367 654 321 q 608 442 629 413 q 543 489 583 478 l 543 575 z "},"–":{"ha":694,"x_min":0,"x_max":694,"o":"m 694 621 l 694 410 l 0 410 l 0 621 l 694 621 z "},"†":{"ha":804,"x_min":46,"x_max":754,"o":"m 350 -178 q 354 -94 353 -137 l 354 3 q 347 154 354 83 q 328 268 340 215 q 304 351 318 313 q 279 410 293 382 l 313 465 q 339 519 329 496 q 364 635 365 578 q 250 601 304 633 q 168 532 211 578 q 46 665 93 556 q 169 800 96 778 q 253 729 208 756 q 364 694 307 696 q 331 826 361 772 q 299 872 318 847 l 260 917 q 400 1063 304 1014 q 540 915 496 1018 l 501 872 q 469 828 481 849 q 438 694 439 776 q 550 728 499 696 q 631 800 585 750 q 754 664 708 775 q 631 532 700 551 q 554 600 592 578 q 438 635 503 633 q 464 518 436 581 q 492 464 474 496 l 515 424 q 524 410 519 415 q 521 404 521 406 l 500 351 q 474 267 485 310 q 453 153 460 213 q 444 3 444 82 q 446 -94 444 -67 q 450 -178 446 -137 l 350 -178 z "},"‡":{"ha":803,"x_min":46,"x_max":751,"o":"m 751 224 q 626 89 701 115 l 594 122 q 556 156 574 142 q 438 192 504 190 q 469 60 439 118 q 501 11 482 38 l 539 -36 q 397 -175 494 -142 q 257 -36 304 -142 l 278 -14 q 297 10 289 -1 q 331 57 318 35 q 363 192 363 115 q 246 156 299 190 q 204 124 225 143 l 171 89 q 46 224 93 115 q 171 356 93 331 q 246 285 208 308 q 363 251 296 253 q 329 389 361 335 q 296 431 317 410 l 258 465 l 296 503 q 329 543 317 525 q 363 665 361 593 q 246 632 297 664 q 206 600 226 619 l 175 568 q 174 567 174 568 l 171 564 q 103 617 143 574 q 46 694 63 658 q 103 776 63 735 q 171 828 143 821 l 204 790 q 243 760 224 772 q 363 725 290 729 q 332 839 363 790 q 299 881 319 858 q 279 901 292 890 l 258 924 q 317 1004 276 963 q 399 1063 360 1050 q 539 924 497 1029 l 518 901 q 515 899 518 900 l 499 881 q 467 839 478 857 q 436 725 438 793 q 553 758 504 726 q 626 828 586 779 q 696 776 654 821 q 751 694 736 733 q 626 564 706 592 l 593 597 q 554 631 574 618 q 438 665 504 664 q 469 544 438 594 q 501 503 481 525 l 539 465 q 501 432 514 444 q 469 390 482 413 q 436 257 438 339 q 438 251 438 257 q 551 285 500 251 q 592 319 571 299 q 626 356 606 332 q 751 224 701 331 z "},"·":{"ha":506,"x_min":103,"x_max":403,"o":"m 403 382 q 360 276 403 321 q 253 232 317 232 q 146 276 189 232 q 103 382 103 321 q 146 488 103 443 q 253 532 189 532 q 360 488 317 532 q 403 382 403 443 z "},"¶":{"ha":865,"x_min":67,"x_max":829,"o":"m 771 828 l 663 810 l 663 65 q 526 -260 663 -143 q 413 -325 479 -300 q 365 -340 388 -335 q 338 -344 346 -344 q 257 -326 299 -344 q 199 -289 221 -311 q 176 -222 164 -257 q 251 -136 193 -162 q 294 -142 271 -122 q 353 -187 317 -167 q 431 -212 396 -212 q 521 -171 493 -212 q 556 39 556 -115 l 556 224 l 413 163 l 406 161 q 383 158 396 158 q 171 254 267 158 q 67 518 67 360 q 199 811 67 710 q 458 907 311 907 l 822 907 l 829 885 l 771 828 z "},"•":{"ha":547,"x_min":14,"x_max":533,"o":"m 533 519 q 460 338 533 413 q 274 260 383 260 q 88 338 164 260 q 14 519 14 413 q 88 701 14 625 q 274 779 164 779 q 460 701 383 779 q 533 519 533 625 z "},"‚":{"ha":521,"x_min":104,"x_max":418,"o":"m 418 115 q 379 -14 418 53 q 292 -118 344 -74 q 151 -196 208 -187 q 104 -164 104 -201 q 126 -129 104 -147 l 164 -106 q 265 -7 265 -44 q 249 10 265 6 q 233 13 243 13 l 221 14 q 142 63 174 18 q 111 154 111 104 q 156 256 111 215 q 258 296 197 296 q 375 239 329 296 q 418 115 418 188 z "},"„":{"ha":885,"x_min":103,"x_max":781,"o":"m 781 115 q 742 -14 781 53 q 654 -118 707 -74 q 514 -196 571 -187 q 467 -164 467 -201 q 489 -129 467 -147 l 526 -106 q 628 -7 628 -44 q 611 10 628 6 q 596 13 606 13 l 583 14 q 504 63 536 18 q 474 154 474 104 q 518 256 474 215 q 621 296 560 296 q 738 239 692 296 q 781 115 781 188 m 417 115 q 378 -14 417 53 q 290 -118 343 -74 q 150 -196 207 -187 q 103 -164 103 -201 q 125 -129 103 -147 l 163 -106 q 264 -7 264 -44 q 247 10 264 6 q 232 13 242 13 l 219 14 q 140 63 172 18 q 110 154 110 104 q 154 256 110 215 q 257 296 196 296 q 374 239 328 296 q 417 115 417 188 z "},"”":{"ha":885,"x_min":103,"x_max":781,"o":"m 781 879 q 742 750 781 817 q 654 646 707 690 q 514 568 571 576 q 467 600 467 563 q 489 635 467 617 l 526 658 q 628 757 628 719 q 611 774 628 769 q 596 776 606 776 l 583 778 q 504 826 536 782 q 474 918 474 868 q 518 1019 474 979 q 621 1060 560 1060 q 738 1003 692 1060 q 781 879 781 951 m 417 879 q 378 750 417 817 q 290 646 343 690 q 150 568 207 576 q 103 600 103 563 q 125 635 103 617 l 163 658 q 264 757 264 719 q 247 774 264 769 q 232 776 242 776 l 219 778 q 140 826 172 782 q 110 918 110 868 q 154 1019 110 979 q 257 1060 196 1060 q 374 1003 328 1060 q 417 879 417 951 z "},"»":{"ha":843,"x_min":106,"x_max":738,"o":"m 531 819 q 557 803 546 819 l 718 560 q 738 515 738 535 q 718 471 738 496 l 557 228 q 531 211 546 211 q 504 222 524 211 q 465 250 486 233 q 417 310 417 292 q 442 356 417 324 q 494 417 457 375 l 549 475 q 572 515 572 504 q 549 556 572 526 l 494 614 q 442 675 457 656 q 417 721 417 707 q 465 781 417 739 q 504 808 486 797 q 531 819 524 819 m 219 819 q 246 803 235 819 l 407 560 q 426 515 426 535 q 407 471 426 496 l 246 228 q 219 211 235 211 q 193 222 213 211 q 154 250 175 233 q 106 310 106 292 q 131 356 106 324 q 183 417 146 375 l 238 475 q 261 515 261 504 q 238 556 261 526 l 183 614 q 131 675 146 656 q 106 721 106 707 q 154 781 106 739 q 193 808 175 797 q 219 819 213 819 z "},"…":{"ha":1389,"x_min":82,"x_max":1307,"o":"m 382 129 q 339 24 382 68 q 232 -21 296 -21 q 125 24 168 -21 q 82 129 82 68 q 125 235 82 190 q 232 279 168 279 q 339 235 296 279 q 382 129 382 190 m 844 129 q 801 24 844 68 q 694 -21 758 -21 q 588 24 631 -21 q 544 129 544 68 q 588 235 544 190 q 694 279 631 279 q 801 235 758 279 q 844 129 844 190 m 1307 129 q 1264 24 1307 68 q 1157 -21 1221 -21 q 1050 24 1093 -21 q 1007 129 1007 68 q 1050 235 1007 190 q 1157 279 1093 279 q 1264 235 1221 279 q 1307 129 1307 190 z "},"‰":{"ha":1826,"x_min":65,"x_max":1757,"o":"m 336 1056 q 531 971 457 1056 q 601 767 601 889 q 540 574 601 656 q 333 476 468 476 q 129 571 204 476 q 65 767 65 653 q 129 961 65 881 q 333 1056 203 1056 l 336 1056 m 333 993 q 281 768 281 993 q 293 606 281 663 q 338 538 307 538 q 378 601 367 538 q 386 768 386 651 l 386 814 q 381 890 385 856 q 335 993 368 993 l 333 993 m 925 557 q 1119 472 1046 557 q 1189 269 1189 393 q 1129 76 1189 158 q 924 -21 1056 -21 q 719 74 794 -21 q 656 269 656 156 q 719 464 656 383 q 924 557 793 557 l 925 557 m 922 496 q 869 271 869 496 q 882 108 869 167 q 926 40 897 40 q 968 104 957 40 q 976 269 976 154 l 976 315 q 971 393 975 358 q 924 496 958 496 l 922 496 m 1492 557 q 1688 472 1613 557 q 1757 269 1757 392 q 1697 76 1757 158 q 1490 -21 1624 -21 q 1286 74 1360 -21 q 1222 269 1222 156 q 1285 463 1222 382 q 1490 557 1358 557 l 1492 557 m 1489 496 q 1436 271 1436 496 q 1449 108 1436 167 q 1494 40 1464 40 q 1543 269 1543 40 l 1543 315 q 1538 393 1542 358 q 1490 496 1525 496 l 1489 496 m 301 -71 l 235 -15 l 939 1085 l 1010 1038 l 301 -71 z "},"¿":{"ha":842,"x_min":104,"x_max":739,"o":"m 451 -233 q 454 -232 453 -233 l 465 -229 q 476 -224 472 -226 q 488 -200 488 -215 q 481 -169 488 -190 q 471 -122 471 -146 q 510 -36 471 -72 q 599 -1 547 -1 q 697 -37 657 -1 q 739 -132 739 -74 q 672 -253 739 -201 q 451 -314 593 -314 l 451 -233 m 385 -306 q 186 -207 268 -294 q 104 -3 104 -119 q 196 219 104 129 q 433 328 285 308 q 485 379 483 335 q 524 425 485 425 q 565 363 565 425 l 565 101 q 561 88 564 92 q 518 79 554 79 q 338 -108 338 75 q 385 -225 338 -187 l 385 -306 m 654 621 q 611 515 654 560 q 504 471 568 471 q 397 515 440 471 q 354 621 354 560 q 397 726 354 682 q 504 771 440 771 q 611 726 568 771 q 654 621 654 682 z "},"`":{"ha":506,"x_min":108,"x_max":408,"o":"m 408 1103 l 250 1103 l 108 1319 l 338 1319 l 408 1103 z "},"´":{"ha":506,"x_min":161,"x_max":461,"o":"m 461 1319 l 318 1103 l 161 1103 l 232 1319 l 461 1319 z "},"ˆ":{"ha":722,"x_min":126,"x_max":597,"o":"m 408 1103 l 361 1197 l 314 1103 l 126 1103 l 275 1319 l 449 1319 l 597 1103 l 408 1103 z "},"˜":{"ha":750,"x_min":117,"x_max":635,"o":"m 635 1299 q 583 1174 624 1228 q 474 1110 538 1110 q 443 1117 460 1110 q 411 1132 431 1121 l 381 1149 q 349 1160 363 1157 l 306 1167 q 276 1168 286 1169 q 240 1131 257 1164 l 117 1131 q 174 1249 126 1196 q 288 1315 224 1306 q 339 1306 308 1315 q 392 1286 360 1300 q 482 1264 460 1258 q 514 1299 494 1267 l 635 1299 z "},"¯":{"ha":472,"x_min":8,"x_max":464,"o":"m 464 1163 l 8 1163 l 8 1292 l 464 1292 l 464 1163 z "},"˘":{"ha":472,"x_min":8,"x_max":464,"o":"m 464 1292 q 393 1096 464 1168 q 236 1032 329 1032 q 79 1097 143 1032 q 8 1292 8 1169 l 125 1292 q 236 1168 125 1168 q 347 1292 347 1168 l 464 1292 z "},"˙":{"ha":521,"x_min":111,"x_max":411,"o":"m 411 1246 q 368 1140 411 1185 q 261 1096 325 1096 q 154 1140 197 1096 q 111 1246 111 1185 q 154 1351 111 1307 q 261 1396 197 1396 q 368 1351 325 1396 q 411 1246 411 1307 z "},"¨":{"ha":521,"x_min":-104,"x_max":624,"o":"m 196 1246 q 153 1140 196 1185 q 46 1096 110 1096 q -61 1140 -18 1096 q -104 1246 -104 1185 q -61 1351 -104 1307 q 46 1396 -18 1396 q 153 1351 110 1396 q 196 1246 196 1307 m 624 1246 q 581 1140 624 1185 q 474 1096 538 1096 q 367 1140 410 1096 q 324 1246 324 1185 q 367 1351 324 1307 q 474 1396 410 1396 q 581 1351 538 1396 q 624 1246 624 1307 z "},"˚":{"ha":583,"x_min":131,"x_max":453,"o":"m 453 1256 q 406 1143 453 1190 q 292 1096 358 1096 q 178 1143 225 1096 q 131 1256 131 1190 q 178 1368 131 1321 q 292 1415 225 1415 q 406 1368 358 1415 q 453 1256 453 1321 m 342 1256 q 290 1304 342 1304 q 242 1256 242 1304 q 290 1207 242 1207 q 342 1256 342 1207 z "},"¸":{"ha":472,"x_min":100,"x_max":311,"o":"m 167 -131 q 122 -87 122 -131 l 122 0 l 235 0 l 235 -53 l 267 -53 q 311 -97 311 -53 l 311 -249 q 257 -328 311 -328 l 100 -328 l 100 -210 l 193 -210 l 193 -131 l 167 -131 z "},"˝":{"ha":639,"x_min":117,"x_max":738,"o":"m 417 1319 l 274 1103 l 117 1103 l 188 1319 l 417 1319 m 738 1319 l 594 1103 l 438 1103 l 508 1319 l 738 1319 z "},"˛":{"ha":472,"x_min":99,"x_max":317,"o":"m 317 0 q 233 -151 233 -122 q 315 -165 235 -181 l 315 -293 l 185 -293 q 144 -281 164 -293 q 111 -235 121 -264 q 111 -144 99 -197 q 175 0 126 -82 l 317 0 z "},"ˇ":{"ha":474,"x_min":1,"x_max":472,"o":"m 190 1313 l 238 1218 l 285 1313 l 472 1313 l 324 1096 l 150 1096 l 1 1313 l 190 1313 z "},"—":{"ha":1389,"x_min":0,"x_max":1389,"o":"m 1389 621 l 1389 410 l 0 410 l 0 621 l 1389 621 z "},"Æ":{"ha":1371,"x_min":-19,"x_max":1319,"o":"m 1000 81 q 1236 282 1175 103 q 1279 325 1256 325 q 1317 304 1307 325 q 1319 288 1319 296 l 1319 0 l 1000 0 l 1000 81 m 378 347 l 597 347 l 597 883 q 550 958 597 943 q 519 996 519 968 q 543 1032 519 1021 q 561 1038 551 1036 q 571 1039 567 1039 l 938 1039 l 938 0 l 571 0 q 561 1 567 0 q 543 7 551 3 q 519 43 519 18 q 550 81 519 71 q 597 156 597 96 l 597 267 l 322 267 l 378 347 m 1000 1039 l 1310 1039 l 1310 757 q 1308 749 1310 753 q 1304 738 1307 743 q 1292 728 1299 732 q 1267 724 1281 724 q 1229 758 1240 724 q 1000 958 1174 931 l 1000 1039 m 543 874 l 546 874 l 546 732 l 211 185 q 203 169 206 176 q 193 138 193 150 q 249 79 193 101 l 263 74 q 275 65 271 69 q 288 39 288 56 q 229 0 288 0 l 39 0 q -19 38 -19 0 q 14 78 -19 64 q 104 158 68 99 l 543 874 m 1000 575 q 1065 622 1040 586 q 1097 697 1086 651 q 1142 743 1111 743 q 1176 717 1169 743 q 1178 696 1178 708 l 1178 368 q 1176 347 1178 356 q 1142 321 1169 321 q 1097 367 1111 321 q 1065 442 1086 413 q 1000 489 1040 478 l 1000 575 z "},"ª":{"ha":533,"x_min":7,"x_max":536,"o":"m 219 1022 l 206 1022 q 192 1018 197 1021 q 176 992 178 1013 l 193 976 q 203 926 208 954 q 121 867 193 857 q 57 961 44 883 q 104 1029 63 997 q 176 1060 144 1060 l 219 1060 l 219 1022 m 446 678 q 461 658 449 664 q 479 663 468 656 l 489 667 q 504 669 496 669 q 536 639 536 669 q 515 589 536 617 q 476 549 497 565 q 354 524 422 524 q 261 657 261 524 l 261 1060 q 382 1022 324 1060 q 438 950 425 996 q 444 906 443 931 q 446 858 446 890 l 446 678 m 221 524 l 178 524 q 142 525 156 524 q 74 547 103 529 q 7 674 7 589 q 74 800 7 758 q 142 822 103 818 q 178 824 156 824 l 221 824 l 221 786 q 186 763 194 782 q 181 721 181 747 l 181 622 q 221 561 181 568 l 221 524 z "},"Ł":{"ha":829,"x_min":56,"x_max":829,"o":"m 474 657 l 547 703 l 547 633 l 474 588 l 474 0 l 107 0 q 97 1 103 0 q 79 7 88 3 q 56 43 56 18 q 86 81 56 71 q 133 156 133 96 l 133 375 l 56 326 l 56 396 l 133 444 l 133 883 q 86 958 133 943 q 56 996 56 968 q 79 1032 56 1021 q 97 1038 88 1036 q 107 1039 103 1039 l 500 1039 q 510 1038 504 1039 q 528 1032 519 1036 q 551 996 551 1021 q 521 958 551 968 q 474 883 474 943 l 474 657 m 536 81 q 671 158 617 92 q 742 322 718 219 q 794 361 750 361 q 829 308 829 361 l 829 0 l 536 0 l 536 81 z "},"Ø":{"ha":988,"x_min":31,"x_max":957,"o":"m 890 1039 l 942 996 l 847 889 q 957 519 957 744 q 851 156 957 300 q 525 -21 736 -1 l 525 60 q 585 106 568 75 q 596 160 596 126 l 596 606 l 533 535 l 533 636 l 596 707 l 596 879 q 585 933 596 913 q 525 979 568 964 l 525 1060 q 801 939 693 1046 l 890 1039 m 97 0 l 46 43 l 140 150 q 31 519 31 294 q 136 883 31 739 q 463 1060 251 1040 l 463 979 q 403 933 419 964 q 392 879 392 913 l 392 474 l 468 560 l 468 461 l 392 375 l 392 160 q 403 106 392 126 q 463 60 419 75 l 463 -21 q 186 100 294 -7 l 97 0 z "},"Œ":{"ha":1374,"x_min":31,"x_max":1322,"o":"m 940 0 l 629 0 q 579 -14 600 -11 q 529 -21 551 -21 l 529 60 q 589 106 572 75 q 600 160 600 126 l 600 879 q 589 933 600 913 q 529 979 572 964 l 529 1060 q 629 1039 569 1060 l 940 1039 l 940 0 m 463 979 q 403 933 419 964 q 392 879 392 913 l 392 160 q 403 106 392 126 q 463 60 419 75 l 463 -21 q 136 156 251 -1 q 31 519 31 300 q 136 883 31 739 q 463 1060 251 1040 l 463 979 m 1313 757 q 1311 749 1313 753 q 1307 738 1310 743 q 1294 728 1301 732 q 1269 724 1283 724 q 1232 758 1243 724 q 1003 958 1176 931 l 1003 1039 l 1313 1039 l 1313 757 m 1003 81 q 1239 282 1178 103 q 1282 325 1258 325 q 1319 304 1310 325 q 1322 288 1322 296 l 1322 0 l 1003 0 l 1003 81 m 1003 575 q 1068 622 1043 586 q 1100 697 1089 651 q 1144 743 1114 743 q 1179 717 1172 743 q 1181 696 1181 708 l 1181 368 q 1179 347 1181 356 q 1144 321 1172 321 q 1100 367 1114 321 q 1068 442 1089 413 q 1003 489 1043 478 l 1003 575 z "},"º":{"ha":517,"x_min":17,"x_max":500,"o":"m 232 1024 q 203 999 210 1014 q 199 986 199 993 q 197 974 197 981 l 197 615 q 199 601 197 607 q 203 588 199 593 q 232 565 210 572 l 232 526 q 69 614 126 535 q 17 794 17 685 q 69 975 17 904 q 232 1063 126 1054 l 232 1024 m 285 563 q 315 588 307 572 q 318 600 318 593 q 319 613 319 606 l 319 971 q 318 985 319 979 q 315 999 318 993 q 285 1021 307 1014 l 285 1060 q 447 972 390 1051 q 500 792 500 901 q 447 611 500 682 q 285 524 390 532 l 285 563 z "},"æ":{"ha":1371,"x_min":-19,"x_max":1319,"o":"m 1000 81 q 1236 282 1175 103 q 1279 325 1256 325 q 1317 304 1307 325 q 1319 288 1319 296 l 1319 0 l 1000 0 l 1000 81 m 378 347 l 597 347 l 597 883 q 550 958 597 943 q 519 996 519 968 q 543 1032 519 1021 q 561 1038 551 1036 q 571 1039 567 1039 l 938 1039 l 938 0 l 571 0 q 561 1 567 0 q 543 7 551 3 q 519 43 519 18 q 550 81 519 71 q 597 156 597 96 l 597 267 l 322 267 l 378 347 m 1000 1039 l 1310 1039 l 1310 757 q 1308 749 1310 753 q 1304 738 1307 743 q 1292 728 1299 732 q 1267 724 1281 724 q 1229 758 1240 724 q 1000 958 1174 931 l 1000 1039 m 543 874 l 546 874 l 546 732 l 211 185 q 203 169 206 176 q 193 138 193 150 q 249 79 193 101 l 263 74 q 275 65 271 69 q 288 39 288 56 q 229 0 288 0 l 39 0 q -19 38 -19 0 q 14 78 -19 64 q 104 158 68 99 l 543 874 m 1000 575 q 1065 622 1040 586 q 1097 697 1086 651 q 1142 743 1111 743 q 1176 717 1169 743 q 1178 696 1178 708 l 1178 368 q 1176 347 1178 356 q 1142 321 1169 321 q 1097 367 1111 321 q 1065 442 1086 413 q 1000 489 1040 478 l 1000 575 z "},"ı":{"ha":621,"x_min":63,"x_max":558,"o":"m 481 156 q 528 81 481 96 q 558 43 558 71 q 535 7 558 18 q 517 1 526 3 q 507 0 511 0 l 114 0 q 104 1 110 0 q 86 7 94 3 q 63 43 63 18 q 93 81 63 71 q 140 156 140 96 l 140 883 q 93 958 140 943 q 63 996 63 968 q 86 1032 63 1021 q 104 1038 94 1036 q 114 1039 110 1039 l 507 1039 q 517 1038 511 1039 q 535 1032 526 1036 q 558 996 558 1021 q 528 958 558 968 q 481 883 481 943 l 481 156 z "},"ł":{"ha":829,"x_min":56,"x_max":829,"o":"m 474 657 l 547 703 l 547 633 l 474 588 l 474 0 l 107 0 q 97 1 103 0 q 79 7 88 3 q 56 43 56 18 q 86 81 56 71 q 133 156 133 96 l 133 375 l 56 326 l 56 396 l 133 444 l 133 883 q 86 958 133 943 q 56 996 56 968 q 79 1032 56 1021 q 97 1038 88 1036 q 107 1039 103 1039 l 500 1039 q 510 1038 504 1039 q 528 1032 519 1036 q 551 996 551 1021 q 521 958 551 968 q 474 883 474 943 l 474 657 m 536 81 q 671 158 617 92 q 742 322 718 219 q 794 361 750 361 q 829 308 829 361 l 829 0 l 536 0 l 536 81 z "},"ø":{"ha":988,"x_min":31,"x_max":957,"o":"m 890 1039 l 942 996 l 847 889 q 957 519 957 744 q 851 156 957 300 q 525 -21 736 -1 l 525 60 q 585 106 568 75 q 596 160 596 126 l 596 606 l 533 535 l 533 636 l 596 707 l 596 879 q 585 933 596 913 q 525 979 568 964 l 525 1060 q 801 939 693 1046 l 890 1039 m 97 0 l 46 43 l 140 150 q 31 519 31 294 q 136 883 31 739 q 463 1060 251 1040 l 463 979 q 403 933 419 964 q 392 879 392 913 l 392 474 l 468 560 l 468 461 l 392 375 l 392 160 q 403 106 392 126 q 463 60 419 75 l 463 -21 q 186 100 294 -7 l 97 0 z "},"œ":{"ha":1374,"x_min":31,"x_max":1322,"o":"m 940 0 l 629 0 q 579 -14 600 -11 q 529 -21 551 -21 l 529 60 q 589 106 572 75 q 600 160 600 126 l 600 879 q 589 933 600 913 q 529 979 572 964 l 529 1060 q 629 1039 569 1060 l 940 1039 l 940 0 m 463 979 q 403 933 419 964 q 392 879 392 913 l 392 160 q 403 106 392 126 q 463 60 419 75 l 463 -21 q 136 156 251 -1 q 31 519 31 300 q 136 883 31 739 q 463 1060 251 1040 l 463 979 m 1313 757 q 1311 749 1313 753 q 1307 738 1310 743 q 1294 728 1301 732 q 1269 724 1283 724 q 1232 758 1243 724 q 1003 958 1176 931 l 1003 1039 l 1313 1039 l 1313 757 m 1003 81 q 1239 282 1178 103 q 1282 325 1258 325 q 1319 304 1310 325 q 1322 288 1322 296 l 1322 0 l 1003 0 l 1003 81 m 1003 575 q 1068 622 1043 586 q 1100 697 1089 651 q 1144 743 1114 743 q 1179 717 1172 743 q 1181 696 1181 708 l 1181 368 q 1179 347 1181 356 q 1144 321 1172 321 q 1100 367 1114 321 q 1068 442 1089 413 q 1003 489 1043 478 l 1003 575 z "},"ß":{"ha":1753,"x_min":57,"x_max":1696,"o":"m 414 979 q 315 865 315 946 q 354 776 315 813 q 518 692 399 738 q 761 528 688 626 q 819 339 819 449 q 704 81 819 182 q 435 -21 594 -18 l 435 60 q 522 103 493 78 q 561 188 560 135 q 504 286 563 244 q 449 317 482 301 l 329 368 l 268 399 q 160 472 203 433 q 57 711 57 564 q 158 963 57 867 q 414 1060 257 1054 l 414 979 m 57 311 q 65 356 57 340 q 101 379 75 379 q 153 333 144 379 q 224 164 169 240 q 372 60 288 78 l 372 -21 q 297 -11 332 -19 q 247 6 272 -6 l 210 24 q 175 31 192 31 q 133 8 151 31 q 100 -15 117 -15 q 63 11 72 -15 q 57 31 58 19 l 57 311 m 933 311 q 942 356 933 340 q 978 379 951 379 q 1029 333 1021 379 q 1100 164 1046 240 q 1249 60 1164 78 l 1249 -21 q 1174 -11 1208 -19 q 1124 6 1149 -6 l 1086 24 q 1051 31 1068 31 q 1010 8 1028 31 q 976 -15 993 -15 q 939 11 949 -15 q 933 31 935 19 l 933 311 m 1290 979 q 1192 865 1192 946 q 1231 776 1192 813 q 1394 692 1275 738 q 1638 528 1564 626 q 1696 339 1696 449 q 1581 81 1696 182 q 1311 -21 1471 -18 l 1311 60 q 1399 103 1369 78 q 1438 188 1436 135 q 1381 286 1439 244 q 1325 317 1358 301 l 1206 368 l 1144 399 q 1036 472 1079 433 q 933 711 933 564 q 1035 963 933 867 q 1290 1060 1133 1054 l 1290 979 m 782 760 q 736 693 782 693 q 686 747 694 693 q 617 893 675 826 q 476 979 556 963 l 476 1060 q 542 1050 507 1060 q 601 1032 569 1044 l 647 1014 q 672 1006 668 1006 q 707 1031 690 1006 q 742 1056 724 1056 q 778 1031 769 1056 q 782 1011 781 1022 l 782 760 m 1658 760 q 1613 693 1658 693 q 1563 747 1571 693 q 1493 893 1551 826 q 1353 979 1432 963 l 1353 1060 q 1418 1050 1383 1060 q 1478 1032 1446 1044 l 1524 1014 q 1549 1006 1544 1006 q 1583 1031 1567 1006 q 1618 1056 1600 1056 q 1654 1031 1646 1056 q 1658 1011 1657 1022 l 1658 760 z "},"¹":{"ha":567,"x_min":126,"x_max":440,"o":"m 379 521 q 417 485 379 494 q 440 461 440 482 q 435 447 440 453 q 421 439 429 442 l 407 436 l 161 436 l 147 439 q 133 447 139 442 q 128 461 128 453 q 151 485 128 482 q 189 521 189 494 l 189 940 q 160 999 189 994 q 126 1021 126 1001 q 132 1038 126 1031 q 144 1046 136 1043 q 160 1049 151 1049 l 379 1060 l 379 521 z "},"¬":{"ha":814,"x_min":67,"x_max":747,"o":"m 581 182 l 581 474 l 67 474 l 67 638 l 747 638 l 747 182 l 581 182 z "},"µ":{"ha":983,"x_min":128,"x_max":924,"o":"m 838 164 q 856 106 838 129 q 896 74 869 88 q 924 35 924 58 q 882 -3 924 10 q 804 -15 842 -15 q 654 74 699 -15 l 651 74 q 521 -15 617 -15 q 442 15 468 -15 l 442 122 l 469 119 q 575 269 575 119 l 575 765 l 838 765 l 838 164 m 390 -76 q 410 -110 390 -103 q 442 -143 442 -121 q 429 -165 442 -157 q 375 -189 417 -176 q 269 -215 329 -203 q 176 -229 206 -229 q 128 -139 128 -229 l 128 765 l 390 765 l 390 -76 z "},"™":{"ha":1217,"x_min":38,"x_max":1179,"o":"m 147 1039 l 147 994 q 107 939 121 976 q 97 907 101 925 q 93 890 94 899 l 88 863 q 83 851 86 856 q 63 839 78 839 q 42 849 49 839 q 38 861 38 856 l 38 1039 l 147 1039 m 361 1039 l 361 553 q 388 511 361 519 q 404 490 404 507 q 392 471 404 476 q 382 467 388 468 l 154 467 q 144 471 149 468 q 131 490 131 476 q 147 511 131 507 q 174 553 174 519 l 174 1039 l 361 1039 m 636 940 q 622 974 628 963 q 599 989 615 985 q 569 1015 569 997 q 583 1036 569 1031 l 596 1039 l 796 1039 l 876 804 l 879 804 l 914 931 l 915 931 l 915 792 l 818 467 l 796 467 l 636 940 m 1157 1039 l 1167 1036 q 1179 1015 1179 1029 q 1163 994 1179 999 q 1136 953 1136 986 l 1136 553 q 1163 511 1136 519 q 1179 490 1179 507 q 1167 471 1179 476 q 1157 467 1163 468 l 929 467 q 919 471 924 468 q 907 490 907 476 q 924 511 907 507 q 949 553 949 519 l 949 1039 l 1157 1039 m 499 1039 l 499 861 q 494 849 499 856 q 474 839 488 839 q 453 851 458 839 q 449 863 450 856 l 443 890 q 439 907 442 899 q 429 939 435 925 q 389 994 415 976 l 389 1039 l 499 1039 m 678 719 l 678 603 q 715 517 678 540 q 740 489 740 501 q 726 469 740 474 q 713 467 721 467 l 601 467 l 589 469 q 574 489 574 475 q 583 504 574 497 l 604 518 q 614 529 610 522 q 624 546 619 536 q 633 603 633 567 l 633 846 l 636 846 l 678 719 z "},"Ð":{"ha":1010,"x_min":36,"x_max":972,"o":"m 517 1039 q 824 915 704 1042 q 967 519 954 776 q 935 300 972 401 q 833 138 901 207 q 517 0 701 0 l 517 81 q 593 136 572 88 q 604 181 600 156 q 606 224 606 197 l 606 815 q 604 858 606 842 q 593 903 600 883 q 517 958 572 951 l 517 1039 m 454 664 l 517 664 l 517 583 l 454 583 l 454 0 l 101 0 q 36 43 36 0 q 67 81 36 71 q 114 156 114 96 l 114 583 l 36 583 l 36 664 l 114 664 l 114 901 q 113 921 114 913 q 90 950 107 944 l 69 957 q 53 965 60 961 q 36 999 36 976 q 99 1039 36 1039 l 454 1039 l 454 664 z "},"½":{"ha":1210,"x_min":49,"x_max":1168,"o":"m 50 464 l 50 525 q 133 549 113 528 q 153 633 153 569 l 153 853 q 146 919 153 907 q 100 938 138 933 l 49 943 l 49 1001 l 194 1021 q 353 1057 293 1038 l 353 633 q 372 549 353 568 q 457 525 390 532 l 457 464 l 50 464 m 274 -71 l 208 -22 l 876 1083 l 946 1040 l 274 -71 m 1168 217 q 1153 164 1163 199 l 1144 135 q 1136 106 1139 118 q 1107 0 1115 33 l 667 0 l 667 54 l 749 121 q 825 189 797 161 q 903 353 903 269 q 811 454 903 454 q 682 376 747 454 l 642 418 l 696 490 q 785 563 731 535 q 910 594 844 594 q 1051 554 996 594 q 1117 422 1115 507 q 1083 319 1118 369 q 943 203 1040 258 l 844 149 l 844 146 l 997 146 q 1118 233 1075 146 l 1168 217 z "},"±":{"ha":814,"x_min":67,"x_max":747,"o":"m 490 483 l 490 203 l 322 203 l 322 483 l 67 483 l 67 647 l 322 647 l 322 915 l 490 915 l 490 647 l 743 647 l 743 483 l 490 483 m 71 -22 l 71 140 l 747 140 l 747 -22 l 71 -22 z "},"Þ":{"ha":975,"x_min":44,"x_max":926,"o":"m 529 860 q 735 833 650 860 q 856 763 810 808 q 913 665 894 722 q 926 556 926 617 q 913 446 926 494 q 856 349 894 389 q 735 278 810 303 q 529 251 650 251 l 529 332 q 600 379 582 342 q 611 465 611 406 l 611 656 q 596 736 611 708 q 529 779 576 772 l 529 860 m 44 996 q 68 1032 44 1021 q 86 1038 76 1036 q 96 1039 92 1039 l 463 1039 l 463 156 q 510 81 463 96 q 540 43 540 71 q 517 7 540 18 q 499 1 508 3 q 489 0 493 0 l 96 0 q 86 1 92 0 q 68 7 76 3 q 44 43 44 18 q 75 81 44 71 q 122 156 122 96 l 122 883 q 75 958 122 943 q 44 996 44 968 z "},"¼":{"ha":1210,"x_min":67,"x_max":1139,"o":"m 1038 154 l 1038 144 q 1054 78 1038 93 q 1131 57 1071 61 l 1131 0 l 746 0 l 746 57 q 824 75 810 60 q 836 144 836 88 l 836 154 l 583 154 l 583 207 q 747 435 657 317 q 876 594 842 561 l 1038 594 l 1038 240 l 1139 240 l 1139 154 l 1038 154 m 836 432 l 832 432 q 800 383 819 410 q 764 336 788 365 q 758 331 761 335 q 757 328 758 329 l 725 289 q 690 240 704 263 l 836 240 l 836 432 m 69 464 l 69 525 q 151 549 133 529 q 171 633 171 569 l 171 853 q 165 919 171 908 q 119 938 157 933 l 67 943 l 67 1001 l 214 1021 q 374 1057 314 1038 l 374 633 q 392 549 374 568 q 476 525 408 532 l 476 464 l 69 464 m 299 -72 l 235 -24 l 903 1083 l 971 1040 l 299 -72 z "},"÷":{"ha":814,"x_min":67,"x_max":747,"o":"m 408 594 q 331 632 365 594 q 293 719 293 669 q 331 808 293 769 q 411 847 367 847 q 494 808 460 847 q 529 719 529 771 q 494 632 529 668 q 411 594 460 594 l 408 594 m 67 339 l 67 503 l 747 503 l 747 339 l 67 339 m 413 251 q 490 214 456 251 q 526 126 526 176 q 490 36 526 75 q 410 -3 454 -3 q 325 36 360 -3 q 290 126 290 75 q 325 214 290 178 q 410 251 360 251 l 413 251 z "},"¦":{"ha":439,"x_min":135,"x_max":303,"o":"m 135 540 l 135 1121 l 303 1121 l 303 540 l 135 540 m 135 -290 l 135 290 l 303 290 l 303 -290 l 135 -290 z "},"°":{"ha":597,"x_min":57,"x_max":536,"o":"m 297 1076 q 471 1000 403 1076 q 536 819 536 926 q 465 629 536 701 q 296 563 399 563 q 128 629 194 563 q 57 819 57 700 q 128 1007 57 935 q 296 1076 196 1076 l 297 1076 m 294 974 q 183 821 183 974 q 296 665 183 665 q 407 815 407 665 q 381 926 407 885 q 296 974 351 974 l 294 974 z "},"þ":{"ha":975,"x_min":44,"x_max":926,"o":"m 529 860 q 735 833 650 860 q 856 763 810 808 q 913 665 894 722 q 926 556 926 617 q 913 446 926 494 q 856 349 894 389 q 735 278 810 303 q 529 251 650 251 l 529 332 q 600 379 582 342 q 611 465 611 406 l 611 656 q 596 736 611 708 q 529 779 576 772 l 529 860 m 44 996 q 68 1032 44 1021 q 86 1038 76 1036 q 96 1039 92 1039 l 463 1039 l 463 156 q 510 81 463 96 q 540 43 540 71 q 517 7 540 18 q 499 1 508 3 q 489 0 493 0 l 96 0 q 86 1 92 0 q 68 7 76 3 q 44 43 44 18 q 75 81 44 71 q 122 156 122 96 l 122 883 q 75 958 122 943 q 44 996 44 968 z "},"¾":{"ha":1210,"x_min":56,"x_max":1154,"o":"m 1051 154 l 1051 144 q 1069 78 1051 93 q 1144 57 1086 61 l 1144 0 l 760 0 l 760 57 q 839 75 824 60 q 850 144 850 88 l 850 154 l 597 154 l 597 207 q 761 436 667 313 q 890 594 854 560 l 1051 594 l 1051 240 l 1154 240 l 1154 154 l 1051 154 m 850 432 l 847 432 q 815 383 835 410 l 758 313 q 740 289 749 300 q 706 240 719 263 l 850 240 l 850 432 m 417 803 q 575 669 575 779 q 538 572 575 618 q 444 503 504 533 q 229 447 336 447 q 149 461 189 447 q 92 490 117 472 q 71 563 56 522 q 128 633 92 608 q 171 626 150 644 q 199 596 181 618 q 228 563 217 572 q 304 525 264 525 q 376 607 376 525 q 343 700 376 671 q 271 724 318 722 q 228 724 253 725 q 190 718 208 722 l 181 778 q 331 879 331 814 q 254 935 331 935 q 118 854 190 935 l 81 900 l 144 979 q 217 1031 181 1013 q 329 1056 269 1056 l 332 1056 q 483 1014 428 1056 q 535 921 535 976 q 496 847 535 876 q 418 806 464 822 l 417 803 m 324 -72 l 257 -24 l 926 1083 l 994 1040 l 324 -72 z "},"²":{"ha":567,"x_min":43,"x_max":528,"o":"m 263 1060 q 432 1017 363 1063 q 508 878 510 967 q 458 758 507 808 q 342 689 418 717 l 210 632 l 201 625 q 154 618 181 625 q 113 601 136 613 l 110 604 q 178 671 138 640 l 211 694 q 242 717 231 707 q 288 774 272 743 q 307 876 306 814 l 307 899 q 303 940 306 921 q 263 1011 292 999 l 263 1060 m 132 453 q 94 439 114 453 l 88 433 q 81 428 83 429 q 67 424 72 424 q 43 450 43 424 q 93 550 43 510 q 214 588 140 588 q 278 583 240 588 l 386 567 q 432 564 413 564 q 465 574 454 564 q 472 583 469 578 q 476 594 475 588 q 478 600 478 596 l 483 615 q 503 625 490 625 q 528 590 528 625 q 479 472 528 532 q 350 411 428 411 q 293 418 325 411 q 235 432 272 422 l 181 446 q 132 453 151 453 m 221 1010 q 190 990 190 1006 q 199 979 190 986 l 218 967 q 238 943 231 957 q 246 904 246 926 q 149 819 246 819 q 50 915 50 819 q 106 1015 50 975 q 221 1058 153 1050 l 221 1010 z "},"®":{"ha":1304,"x_min":113,"x_max":1193,"o":"m 653 -21 q 271 139 429 -21 q 113 519 113 297 q 271 900 113 742 q 653 1060 429 1060 q 1033 900 875 1060 q 1193 519 1193 742 q 1033 139 1193 297 q 653 -21 875 -21 m 653 64 q 976 197 843 64 q 1108 519 1108 331 q 976 842 1108 708 q 653 975 843 975 q 331 842 464 975 q 197 519 199 708 q 329 197 196 331 q 653 64 464 64 m 424 742 q 396 788 424 778 q 376 811 376 794 q 390 832 376 826 q 401 836 396 835 l 631 836 l 631 301 q 660 257 631 265 q 678 233 678 250 q 664 213 678 218 q 653 208 658 210 l 401 208 q 390 213 396 210 q 376 233 376 218 q 396 257 376 250 q 424 301 424 265 l 424 742 m 663 535 q 713 608 713 539 l 713 711 q 663 788 713 769 l 663 836 l 667 836 q 915 676 915 836 q 874 568 915 608 q 767 518 838 535 l 767 515 q 868 485 835 507 q 913 394 913 456 l 913 313 q 914 306 913 308 q 922 296 915 296 q 931 300 926 296 q 939 308 933 301 q 946 315 943 314 q 958 319 951 319 q 983 296 983 319 q 943 232 983 264 q 842 196 899 196 q 751 226 785 196 q 713 338 713 263 l 713 429 q 711 438 713 433 q 707 457 710 447 q 663 486 694 482 l 663 535 z "},"−":{"ha":814,"x_min":67,"x_max":747,"o":"m 67 339 l 67 503 l 747 503 l 747 339 l 67 339 z "},"ð":{"ha":1010,"x_min":36,"x_max":972,"o":"m 517 1039 q 824 915 704 1042 q 967 519 954 776 q 935 300 972 401 q 833 138 901 207 q 517 0 701 0 l 517 81 q 593 136 572 88 q 604 181 600 156 q 606 224 606 197 l 606 815 q 604 858 606 842 q 593 903 600 883 q 517 958 572 951 l 517 1039 m 454 664 l 517 664 l 517 583 l 454 583 l 454 0 l 101 0 q 36 43 36 0 q 67 81 36 71 q 114 156 114 96 l 114 583 l 36 583 l 36 664 l 114 664 l 114 901 q 113 921 114 913 q 90 950 107 944 l 69 957 q 53 965 60 961 q 36 999 36 976 q 99 1039 36 1039 l 454 1039 l 454 664 z "},"×":{"ha":814,"x_min":53,"x_max":754,"o":"m 633 32 l 403 288 l 172 32 l 53 143 l 296 407 l 58 668 l 178 782 l 411 528 l 636 783 l 754 671 l 514 408 l 753 143 l 633 32 z "},"³":{"ha":567,"x_min":40,"x_max":529,"o":"m 231 1008 q 219 1006 224 1007 q 207 1000 211 1003 q 193 983 193 993 q 200 972 193 978 l 217 960 q 239 908 239 940 q 153 826 239 826 q 64 910 64 826 q 117 1011 64 971 q 231 1057 163 1047 l 231 1008 m 232 744 q 269 769 232 767 q 319 803 306 774 q 326 824 325 813 q 328 832 328 828 l 328 933 q 272 1011 328 999 l 272 1060 q 463 1006 394 1064 q 519 894 519 958 q 378 743 519 774 l 378 740 q 529 588 529 701 q 478 469 529 517 q 272 411 411 408 l 272 460 q 328 535 328 472 l 328 647 q 269 721 328 718 q 232 744 232 724 m 231 411 q 104 450 156 417 q 40 551 40 489 q 138 643 40 643 q 200 618 171 643 q 228 563 228 593 q 203 504 228 528 l 186 489 q 178 478 178 482 q 200 464 178 469 l 231 460 l 231 411 z "},"©":{"ha":1304,"x_min":113,"x_max":1193,"o":"m 653 -21 q 271 139 429 -21 q 113 519 113 297 q 271 900 113 742 q 653 1060 429 1060 q 1033 900 875 1060 q 1193 519 1193 742 q 1033 139 1193 297 q 653 -21 875 -21 m 653 64 q 976 197 843 64 q 1108 519 1108 331 q 976 842 1108 708 q 653 975 843 975 q 331 842 464 975 q 197 519 199 708 q 329 197 196 331 q 653 64 464 64 m 625 179 q 414 278 489 182 q 344 504 344 364 q 422 750 344 654 q 625 851 500 846 l 625 801 q 569 721 569 790 l 569 311 q 625 229 569 244 l 625 179 m 664 850 q 693 844 675 850 q 728 833 706 842 l 736 831 q 746 828 742 828 q 761 822 754 824 q 785 817 778 817 q 808 833 800 817 q 831 851 815 851 q 856 838 849 851 l 858 826 l 858 613 l 856 601 l 847 592 q 831 588 840 588 q 803 619 811 588 q 756 729 785 685 q 664 800 718 786 l 664 850 m 664 232 q 806 351 774 250 q 833 379 815 379 q 860 350 860 379 q 794 236 858 294 q 664 181 728 176 l 664 232 z "},"Á":{"ha":965,"x_min":-11,"x_max":954,"o":"m 343 688 l 213 213 q 208 124 197 153 q 257 83 218 100 q 299 38 299 65 q 274 4 299 13 q 250 0 264 1 l 56 0 q 43 1 49 0 q 18 6 28 3 q -11 42 -11 15 q 4 72 -11 63 l 43 89 q 90 131 71 103 q 136 235 118 168 l 303 844 l 307 844 l 343 688 m 492 269 l 289 269 l 308 350 l 478 350 l 338 964 l 356 1039 l 663 1039 l 876 135 q 883 113 879 121 q 919 79 893 90 q 954 36 954 64 q 926 4 954 11 q 901 0 915 1 l 532 0 q 488 6 503 0 q 464 39 464 15 q 490 78 464 64 q 519 163 533 103 l 492 269 m 692 1319 l 549 1103 l 392 1103 l 463 1319 l 692 1319 z "},"Â":{"ha":965,"x_min":-11,"x_max":954,"o":"m 343 688 l 213 213 q 208 124 197 153 q 257 83 218 100 q 299 38 299 65 q 274 4 299 13 q 250 0 264 1 l 56 0 q 43 1 49 0 q 18 6 28 3 q -11 42 -11 15 q 4 72 -11 63 l 43 89 q 90 131 71 103 q 136 235 118 168 l 303 844 l 307 844 l 343 688 m 492 269 l 289 269 l 308 350 l 478 350 l 338 964 l 356 1039 l 663 1039 l 876 135 q 883 113 879 121 q 919 79 893 90 q 954 36 954 64 q 926 4 954 11 q 901 0 915 1 l 532 0 q 488 6 503 0 q 464 39 464 15 q 490 78 464 64 q 519 163 533 103 l 492 269 m 531 1103 l 483 1197 l 436 1103 l 249 1103 l 397 1319 l 571 1319 l 719 1103 l 531 1103 z "},"Ä":{"ha":965,"x_min":-11,"x_max":954,"o":"m 343 688 l 213 213 q 208 124 197 153 q 257 83 218 100 q 299 38 299 65 q 274 4 299 13 q 250 0 264 1 l 56 0 q 43 1 49 0 q 18 6 28 3 q -11 42 -11 15 q 4 72 -11 63 l 43 89 q 90 131 71 103 q 136 235 118 168 l 303 844 l 307 844 l 343 688 m 492 269 l 289 269 l 308 350 l 478 350 l 338 964 l 356 1039 l 663 1039 l 876 135 q 883 113 879 121 q 919 79 893 90 q 954 36 954 64 q 926 4 954 11 q 901 0 915 1 l 532 0 q 488 6 503 0 q 464 39 464 15 q 490 78 464 64 q 519 163 533 103 l 492 269 m 418 1246 q 375 1140 418 1185 q 268 1096 332 1096 q 161 1140 204 1096 q 118 1246 118 1185 q 161 1351 118 1307 q 268 1396 204 1396 q 375 1351 332 1396 q 418 1246 418 1307 m 846 1246 q 803 1140 846 1185 q 696 1096 760 1096 q 589 1140 632 1096 q 546 1246 546 1185 q 589 1351 546 1307 q 696 1396 632 1396 q 803 1351 760 1396 q 846 1246 846 1307 z "},"À":{"ha":965,"x_min":-11,"x_max":954,"o":"m 343 688 l 213 213 q 208 124 197 153 q 257 83 218 100 q 299 38 299 65 q 274 4 299 13 q 250 0 264 1 l 56 0 q 43 1 49 0 q 18 6 28 3 q -11 42 -11 15 q 4 72 -11 63 l 43 89 q 90 131 71 103 q 136 235 118 168 l 303 844 l 307 844 l 343 688 m 492 269 l 289 269 l 308 350 l 478 350 l 338 964 l 356 1039 l 663 1039 l 876 135 q 883 113 879 121 q 919 79 893 90 q 954 36 954 64 q 926 4 954 11 q 901 0 915 1 l 532 0 q 488 6 503 0 q 464 39 464 15 q 490 78 464 64 q 519 163 533 103 l 492 269 m 639 1103 l 481 1103 l 339 1319 l 568 1319 l 639 1103 z "},"Å":{"ha":965,"x_min":-11,"x_max":954,"o":"m 644 1256 q 597 1143 644 1190 q 483 1096 550 1096 q 369 1143 417 1096 q 322 1256 322 1190 q 369 1368 322 1321 q 483 1415 417 1415 q 597 1368 550 1415 q 644 1256 644 1321 m 533 1256 q 482 1304 533 1304 q 433 1256 433 1304 q 482 1207 433 1207 q 533 1256 533 1207 m 343 688 l 213 213 q 208 124 197 153 q 257 83 218 100 q 299 38 299 65 q 274 4 299 13 q 250 0 264 1 l 56 0 q 43 1 49 0 q 18 6 28 3 q -11 42 -11 15 q 4 72 -11 63 l 43 89 q 90 131 71 103 q 136 235 118 168 l 303 844 l 307 844 l 343 688 m 492 269 l 289 269 l 308 350 l 478 350 l 338 964 l 356 1039 l 663 1039 l 876 135 q 883 113 879 121 q 919 79 893 90 q 954 36 954 64 q 926 4 954 11 q 901 0 915 1 l 532 0 q 488 6 503 0 q 464 39 464 15 q 490 78 464 64 q 519 163 533 103 l 492 269 z "},"Ã":{"ha":965,"x_min":-11,"x_max":954,"o":"m 343 688 l 213 213 q 208 124 197 153 q 257 83 218 100 q 299 38 299 65 q 274 4 299 13 q 250 0 264 1 l 56 0 q 43 1 49 0 q 18 6 28 3 q -11 42 -11 15 q 4 72 -11 63 l 43 89 q 90 131 71 103 q 136 235 118 168 l 303 844 l 307 844 l 343 688 m 492 269 l 289 269 l 308 350 l 478 350 l 338 964 l 356 1039 l 663 1039 l 876 135 q 883 113 879 121 q 919 79 893 90 q 954 36 954 64 q 926 4 954 11 q 901 0 915 1 l 532 0 q 488 6 503 0 q 464 39 464 15 q 490 78 464 64 q 519 163 533 103 l 492 269 m 743 1299 q 692 1174 732 1228 q 582 1110 646 1110 q 551 1117 568 1110 q 519 1132 539 1121 l 489 1149 q 457 1160 471 1157 l 414 1167 q 385 1168 394 1169 q 349 1131 365 1164 l 225 1131 q 282 1249 235 1196 q 396 1315 332 1306 q 447 1306 417 1315 q 500 1286 468 1300 q 590 1264 568 1258 q 622 1299 603 1267 l 743 1299 z "},"Ç":{"ha":911,"x_min":31,"x_max":858,"o":"m 543 1060 q 590 1050 560 1060 q 646 1032 610 1044 l 699 1013 q 738 1004 725 1004 q 775 1031 763 1004 q 813 1060 789 1060 q 851 1038 840 1060 q 857 1021 856 1031 l 857 676 q 851 660 856 667 q 813 638 840 638 q 761 688 772 638 q 692 863 740 788 q 543 979 632 956 l 543 1060 m 771 257 q 817 301 783 301 q 858 254 858 301 q 754 72 856 165 q 543 -21 649 -25 l 543 60 q 771 257 722 99 m 413 -131 q 368 -87 368 -131 l 368 -7 q 114 175 203 33 q 31 501 31 308 q 154 897 31 743 q 481 1060 279 1053 l 481 979 q 411 932 433 969 q 392 850 392 899 l 392 192 q 481 60 392 82 l 481 -53 l 513 -53 q 557 -97 557 -53 l 557 -249 q 503 -328 557 -328 l 346 -328 l 346 -210 l 439 -210 l 439 -131 l 413 -131 z "},"É":{"ha":914,"x_min":51,"x_max":851,"o":"m 51 996 q 75 1032 51 1021 q 93 1038 83 1036 q 103 1039 99 1039 l 469 1039 l 469 0 l 103 0 q 93 1 99 0 q 75 7 83 3 q 51 43 51 18 q 82 81 51 71 q 129 156 129 96 l 129 883 q 82 958 129 943 q 51 996 51 968 m 532 1039 l 842 1039 l 842 757 q 840 749 842 753 q 836 738 839 743 q 824 728 831 732 q 799 724 813 724 q 761 758 772 724 q 532 958 706 931 l 532 1039 m 532 81 q 768 282 707 103 q 811 325 788 325 q 849 304 839 325 q 851 288 851 296 l 851 0 l 532 0 l 532 81 m 532 575 q 597 622 572 586 q 629 697 618 651 q 674 743 643 743 q 708 717 701 743 q 710 696 710 708 l 710 368 q 708 347 710 356 q 674 321 701 321 q 629 367 643 321 q 597 442 618 413 q 532 489 572 478 l 532 575 m 665 1319 l 522 1103 l 365 1103 l 436 1319 l 665 1319 z "},"Ê":{"ha":914,"x_min":51,"x_max":851,"o":"m 51 996 q 75 1032 51 1021 q 93 1038 83 1036 q 103 1039 99 1039 l 469 1039 l 469 0 l 103 0 q 93 1 99 0 q 75 7 83 3 q 51 43 51 18 q 82 81 51 71 q 129 156 129 96 l 129 883 q 82 958 129 943 q 51 996 51 968 m 532 1039 l 842 1039 l 842 757 q 840 749 842 753 q 836 738 839 743 q 824 728 831 732 q 799 724 813 724 q 761 758 772 724 q 532 958 706 931 l 532 1039 m 532 81 q 768 282 707 103 q 811 325 788 325 q 849 304 839 325 q 851 288 851 296 l 851 0 l 532 0 l 532 81 m 532 575 q 597 622 572 586 q 629 697 618 651 q 674 743 643 743 q 708 717 701 743 q 710 696 710 708 l 710 368 q 708 347 710 356 q 674 321 701 321 q 629 367 643 321 q 597 442 618 413 q 532 489 572 478 l 532 575 m 504 1103 l 457 1197 l 410 1103 l 222 1103 l 371 1319 l 544 1319 l 693 1103 l 504 1103 z "},"Ë":{"ha":914,"x_min":51,"x_max":851,"o":"m 51 996 q 75 1032 51 1021 q 93 1038 83 1036 q 103 1039 99 1039 l 469 1039 l 469 0 l 103 0 q 93 1 99 0 q 75 7 83 3 q 51 43 51 18 q 82 81 51 71 q 129 156 129 96 l 129 883 q 82 958 129 943 q 51 996 51 968 m 532 1039 l 842 1039 l 842 757 q 840 749 842 753 q 836 738 839 743 q 824 728 831 732 q 799 724 813 724 q 761 758 772 724 q 532 958 706 931 l 532 1039 m 532 81 q 768 282 707 103 q 811 325 788 325 q 849 304 839 325 q 851 288 851 296 l 851 0 l 532 0 l 532 81 m 532 575 q 597 622 572 586 q 629 697 618 651 q 674 743 643 743 q 708 717 701 743 q 710 696 710 708 l 710 368 q 708 347 710 356 q 674 321 701 321 q 629 367 643 321 q 597 442 618 413 q 532 489 572 478 l 532 575 m 393 1246 q 350 1140 393 1185 q 243 1096 307 1096 q 136 1140 179 1096 q 93 1246 93 1185 q 136 1351 93 1307 q 243 1396 179 1396 q 350 1351 307 1396 q 393 1246 393 1307 m 821 1246 q 778 1140 821 1185 q 671 1096 735 1096 q 564 1140 607 1096 q 521 1246 521 1185 q 564 1351 521 1307 q 671 1396 607 1396 q 778 1351 735 1396 q 821 1246 821 1307 z "},"È":{"ha":914,"x_min":51,"x_max":851,"o":"m 51 996 q 75 1032 51 1021 q 93 1038 83 1036 q 103 1039 99 1039 l 469 1039 l 469 0 l 103 0 q 93 1 99 0 q 75 7 83 3 q 51 43 51 18 q 82 81 51 71 q 129 156 129 96 l 129 883 q 82 958 129 943 q 51 996 51 968 m 532 1039 l 842 1039 l 842 757 q 840 749 842 753 q 836 738 839 743 q 824 728 831 732 q 799 724 813 724 q 761 758 772 724 q 532 958 706 931 l 532 1039 m 532 81 q 768 282 707 103 q 811 325 788 325 q 849 304 839 325 q 851 288 851 296 l 851 0 l 532 0 l 532 81 m 532 575 q 597 622 572 586 q 629 697 618 651 q 674 743 643 743 q 708 717 701 743 q 710 696 710 708 l 710 368 q 708 347 710 356 q 674 321 701 321 q 629 367 643 321 q 597 442 618 413 q 532 489 572 478 l 532 575 m 613 1103 l 454 1103 l 313 1319 l 542 1319 l 613 1103 z "},"Í":{"ha":621,"x_min":63,"x_max":558,"o":"m 481 156 q 528 81 481 96 q 558 43 558 71 q 535 7 558 18 q 517 1 526 3 q 507 0 511 0 l 114 0 q 104 1 110 0 q 86 7 94 3 q 63 43 63 18 q 93 81 63 71 q 140 156 140 96 l 140 883 q 93 958 140 943 q 63 996 63 968 q 86 1032 63 1021 q 104 1038 94 1036 q 114 1039 110 1039 l 507 1039 q 517 1038 511 1039 q 535 1032 526 1036 q 558 996 558 1021 q 528 958 558 968 q 481 883 481 943 l 481 156 m 519 1319 l 376 1103 l 219 1103 l 290 1319 l 519 1319 z "},"Î":{"ha":621,"x_min":63,"x_max":558,"o":"m 481 156 q 528 81 481 96 q 558 43 558 71 q 535 7 558 18 q 517 1 526 3 q 507 0 511 0 l 114 0 q 104 1 110 0 q 86 7 94 3 q 63 43 63 18 q 93 81 63 71 q 140 156 140 96 l 140 883 q 93 958 140 943 q 63 996 63 968 q 86 1032 63 1021 q 104 1038 94 1036 q 114 1039 110 1039 l 507 1039 q 517 1038 511 1039 q 535 1032 526 1036 q 558 996 558 1021 q 528 958 558 968 q 481 883 481 943 l 481 156 m 358 1103 l 311 1197 l 264 1103 l 76 1103 l 225 1319 l 399 1319 l 547 1103 l 358 1103 z "},"Ï":{"ha":621,"x_min":-54,"x_max":674,"o":"m 481 156 q 528 81 481 96 q 558 43 558 71 q 535 7 558 18 q 517 1 526 3 q 507 0 511 0 l 114 0 q 104 1 110 0 q 86 7 94 3 q 63 43 63 18 q 93 81 63 71 q 140 156 140 96 l 140 883 q 93 958 140 943 q 63 996 63 968 q 86 1032 63 1021 q 104 1038 94 1036 q 114 1039 110 1039 l 507 1039 q 517 1038 511 1039 q 535 1032 526 1036 q 558 996 558 1021 q 528 958 558 968 q 481 883 481 943 l 481 156 m 246 1246 q 203 1140 246 1185 q 96 1096 160 1096 q -11 1140 32 1096 q -54 1246 -54 1185 q -11 1351 -54 1307 q 96 1396 32 1396 q 203 1351 160 1396 q 246 1246 246 1307 m 674 1246 q 631 1140 674 1185 q 524 1096 588 1096 q 417 1140 460 1096 q 374 1246 374 1185 q 417 1351 374 1307 q 524 1396 460 1396 q 631 1351 588 1396 q 674 1246 674 1307 z "},"Ì":{"ha":621,"x_min":63,"x_max":558,"o":"m 481 156 q 528 81 481 96 q 558 43 558 71 q 535 7 558 18 q 517 1 526 3 q 507 0 511 0 l 114 0 q 104 1 110 0 q 86 7 94 3 q 63 43 63 18 q 93 81 63 71 q 140 156 140 96 l 140 883 q 93 958 140 943 q 63 996 63 968 q 86 1032 63 1021 q 104 1038 94 1036 q 114 1039 110 1039 l 507 1039 q 517 1038 511 1039 q 535 1032 526 1036 q 558 996 558 1021 q 528 958 558 968 q 481 883 481 943 l 481 156 m 467 1103 l 308 1103 l 167 1319 l 396 1319 l 467 1103 z "},"Ñ":{"ha":1046,"x_min":49,"x_max":997,"o":"m 160 778 l 163 778 l 240 639 l 240 219 q 267 126 247 161 q 304 88 281 101 l 338 69 q 351 40 351 60 q 321 4 351 13 q 297 0 311 1 l 103 0 q 79 4 89 1 q 49 40 49 13 q 63 69 49 60 l 96 88 q 133 126 119 101 q 160 219 153 161 l 160 778 m 803 788 q 785 894 803 856 q 746 943 772 925 l 715 960 q 707 965 710 963 q 689 997 689 978 q 714 1033 689 1022 q 733 1038 722 1036 q 749 1039 740 1039 l 938 1039 q 953 1038 946 1039 q 972 1033 964 1036 q 997 997 997 1022 q 979 965 997 978 q 971 960 976 963 l 940 943 q 901 894 914 925 q 883 788 883 856 l 883 450 l 881 450 l 803 590 l 803 788 m 883 336 l 883 0 l 676 0 l 153 903 q 139 922 146 915 q 93 951 124 942 q 51 996 51 967 q 76 1032 51 1024 q 99 1038 85 1036 l 117 1039 l 479 1039 l 883 336 m 783 1299 q 732 1174 772 1228 q 622 1110 686 1110 q 592 1117 608 1110 q 560 1132 579 1121 l 529 1149 q 497 1160 511 1157 l 454 1167 q 425 1168 435 1169 q 389 1131 406 1164 l 265 1131 q 322 1249 275 1196 q 436 1315 372 1306 q 488 1306 457 1315 q 540 1286 508 1300 q 631 1264 608 1258 q 663 1299 643 1267 l 783 1299 z "},"Ó":{"ha":988,"x_min":31,"x_max":957,"o":"m 463 979 q 403 933 419 964 q 392 879 392 913 l 392 160 q 403 106 392 126 q 463 60 419 75 l 463 -21 q 136 156 251 -1 q 31 519 31 300 q 136 883 31 739 q 463 1060 251 1040 l 463 979 m 525 60 q 585 106 568 75 q 596 160 596 126 l 596 879 q 585 933 596 913 q 525 979 568 964 l 525 1060 q 851 883 736 1040 q 957 519 957 739 q 851 156 957 300 q 525 -21 736 -1 l 525 60 m 703 1319 l 560 1103 l 403 1103 l 474 1319 l 703 1319 z "},"Ô":{"ha":988,"x_min":31,"x_max":957,"o":"m 463 979 q 403 933 419 964 q 392 879 392 913 l 392 160 q 403 106 392 126 q 463 60 419 75 l 463 -21 q 136 156 251 -1 q 31 519 31 300 q 136 883 31 739 q 463 1060 251 1040 l 463 979 m 525 60 q 585 106 568 75 q 596 160 596 126 l 596 879 q 585 933 596 913 q 525 979 568 964 l 525 1060 q 851 883 736 1040 q 957 519 957 739 q 851 156 957 300 q 525 -21 736 -1 l 525 60 m 542 1103 l 494 1197 l 447 1103 l 260 1103 l 408 1319 l 582 1319 l 731 1103 l 542 1103 z "},"Ö":{"ha":988,"x_min":31,"x_max":957,"o":"m 463 979 q 403 933 419 964 q 392 879 392 913 l 392 160 q 403 106 392 126 q 463 60 419 75 l 463 -21 q 136 156 251 -1 q 31 519 31 300 q 136 883 31 739 q 463 1060 251 1040 l 463 979 m 525 60 q 585 106 568 75 q 596 160 596 126 l 596 879 q 585 933 596 913 q 525 979 568 964 l 525 1060 q 851 883 736 1040 q 957 519 957 739 q 851 156 957 300 q 525 -21 736 -1 l 525 60 m 429 1246 q 386 1140 429 1185 q 279 1096 343 1096 q 172 1140 215 1096 q 129 1246 129 1185 q 172 1351 129 1307 q 279 1396 215 1396 q 386 1351 343 1396 q 429 1246 429 1307 m 857 1246 q 814 1140 857 1185 q 707 1096 771 1096 q 600 1140 643 1096 q 557 1246 557 1185 q 600 1351 557 1307 q 707 1396 643 1396 q 814 1351 771 1396 q 857 1246 857 1307 z "},"Ò":{"ha":988,"x_min":31,"x_max":957,"o":"m 463 979 q 403 933 419 964 q 392 879 392 913 l 392 160 q 403 106 392 126 q 463 60 419 75 l 463 -21 q 136 156 251 -1 q 31 519 31 300 q 136 883 31 739 q 463 1060 251 1040 l 463 979 m 525 60 q 585 106 568 75 q 596 160 596 126 l 596 879 q 585 933 596 913 q 525 979 568 964 l 525 1060 q 851 883 736 1040 q 957 519 957 739 q 851 156 957 300 q 525 -21 736 -1 l 525 60 m 650 1103 l 492 1103 l 350 1319 l 579 1319 l 650 1103 z "},"Õ":{"ha":988,"x_min":31,"x_max":957,"o":"m 463 979 q 403 933 419 964 q 392 879 392 913 l 392 160 q 403 106 392 126 q 463 60 419 75 l 463 -21 q 136 156 251 -1 q 31 519 31 300 q 136 883 31 739 q 463 1060 251 1040 l 463 979 m 525 60 q 585 106 568 75 q 596 160 596 126 l 596 879 q 585 933 596 913 q 525 979 568 964 l 525 1060 q 851 883 736 1040 q 957 519 957 739 q 851 156 957 300 q 525 -21 736 -1 l 525 60 m 754 1299 q 703 1174 743 1228 q 593 1110 657 1110 q 563 1117 579 1110 q 531 1132 550 1121 l 500 1149 q 468 1160 482 1157 l 425 1167 q 396 1168 406 1169 q 360 1131 376 1164 l 236 1131 q 293 1249 246 1196 q 407 1315 343 1306 q 458 1306 428 1315 q 511 1286 479 1300 q 601 1264 579 1258 q 633 1299 614 1267 l 754 1299 z "},"Š":{"ha":876,"x_min":57,"x_max":819,"o":"m 414 979 q 315 865 315 946 q 354 776 315 813 q 518 692 399 738 q 761 528 688 626 q 819 339 819 449 q 704 81 819 182 q 435 -21 594 -18 l 435 60 q 522 103 493 78 q 561 188 560 135 q 504 286 563 244 q 449 317 482 301 l 329 368 l 268 399 q 160 472 203 433 q 57 711 57 564 q 158 963 57 867 q 414 1060 257 1054 l 414 979 m 782 760 q 736 693 782 693 q 686 747 694 693 q 617 893 675 826 q 476 979 556 963 l 476 1060 q 542 1050 507 1060 q 601 1032 569 1044 l 647 1014 q 672 1006 668 1006 q 707 1031 690 1006 q 742 1056 724 1056 q 778 1031 769 1056 q 782 1011 781 1022 l 782 760 m 57 311 q 65 356 57 340 q 101 379 75 379 q 153 333 144 379 q 224 164 169 240 q 372 60 288 78 l 372 -21 q 297 -11 332 -19 q 247 6 272 -6 l 210 24 q 175 31 192 31 q 133 8 151 31 q 100 -15 117 -15 q 63 11 72 -15 q 57 31 58 19 l 57 311 m 392 1313 l 439 1218 l 486 1313 l 674 1313 l 525 1096 l 351 1096 l 203 1313 l 392 1313 z "},"Ú":{"ha":1056,"x_min":61,"x_max":1011,"o":"m 819 819 q 793 913 813 878 q 756 951 779 938 l 722 969 q 708 999 708 979 q 739 1035 708 1026 q 763 1039 749 1038 l 957 1039 q 981 1035 971 1038 q 1011 999 1011 1026 q 997 969 1011 979 l 964 951 q 926 913 940 938 q 900 819 907 878 l 900 296 q 867 150 896 215 q 796 54 840 94 q 633 -18 719 -17 l 633 64 q 819 299 807 117 l 819 819 m 571 -21 q 493 -19 519 -21 q 421 -14 453 -18 q 281 33 346 -3 q 163 129 193 82 q 139 225 139 167 l 139 883 q 92 958 139 943 q 61 996 61 968 q 85 1032 61 1021 q 103 1038 93 1036 q 113 1039 108 1039 l 506 1039 q 515 1038 510 1039 q 533 1032 525 1036 q 557 996 557 1021 q 526 958 557 968 q 479 883 479 943 l 479 190 q 486 144 479 165 q 571 61 506 81 l 571 -21 m 736 1319 l 593 1103 l 436 1103 l 507 1319 l 736 1319 z "},"Û":{"ha":1056,"x_min":61,"x_max":1011,"o":"m 819 819 q 793 913 813 878 q 756 951 779 938 l 722 969 q 708 999 708 979 q 739 1035 708 1026 q 763 1039 749 1038 l 957 1039 q 981 1035 971 1038 q 1011 999 1011 1026 q 997 969 1011 979 l 964 951 q 926 913 940 938 q 900 819 907 878 l 900 296 q 867 150 896 215 q 796 54 840 94 q 633 -18 719 -17 l 633 64 q 819 299 807 117 l 819 819 m 571 -21 q 493 -19 519 -21 q 421 -14 453 -18 q 281 33 346 -3 q 163 129 193 82 q 139 225 139 167 l 139 883 q 92 958 139 943 q 61 996 61 968 q 85 1032 61 1021 q 103 1038 93 1036 q 113 1039 108 1039 l 506 1039 q 515 1038 510 1039 q 533 1032 525 1036 q 557 996 557 1021 q 526 958 557 968 q 479 883 479 943 l 479 190 q 486 144 479 165 q 571 61 506 81 l 571 -21 m 575 1103 l 528 1197 l 481 1103 l 293 1103 l 442 1319 l 615 1319 l 764 1103 l 575 1103 z "},"Ü":{"ha":1056,"x_min":61,"x_max":1011,"o":"m 819 819 q 793 913 813 878 q 756 951 779 938 l 722 969 q 708 999 708 979 q 739 1035 708 1026 q 763 1039 749 1038 l 957 1039 q 981 1035 971 1038 q 1011 999 1011 1026 q 997 969 1011 979 l 964 951 q 926 913 940 938 q 900 819 907 878 l 900 296 q 867 150 896 215 q 796 54 840 94 q 633 -18 719 -17 l 633 64 q 819 299 807 117 l 819 819 m 571 -21 q 493 -19 519 -21 q 421 -14 453 -18 q 281 33 346 -3 q 163 129 193 82 q 139 225 139 167 l 139 883 q 92 958 139 943 q 61 996 61 968 q 85 1032 61 1021 q 103 1038 93 1036 q 113 1039 108 1039 l 506 1039 q 515 1038 510 1039 q 533 1032 525 1036 q 557 996 557 1021 q 526 958 557 968 q 479 883 479 943 l 479 190 q 486 144 479 165 q 571 61 506 81 l 571 -21 m 464 1246 q 421 1140 464 1185 q 314 1096 378 1096 q 207 1140 250 1096 q 164 1246 164 1185 q 207 1351 164 1307 q 314 1396 250 1396 q 421 1351 378 1396 q 464 1246 464 1307 m 892 1246 q 849 1140 892 1185 q 742 1096 806 1096 q 635 1140 678 1096 q 592 1246 592 1185 q 635 1351 592 1307 q 742 1396 678 1396 q 849 1351 806 1396 q 892 1246 892 1307 z "},"Ù":{"ha":1056,"x_min":61,"x_max":1011,"o":"m 819 819 q 793 913 813 878 q 756 951 779 938 l 722 969 q 708 999 708 979 q 739 1035 708 1026 q 763 1039 749 1038 l 957 1039 q 981 1035 971 1038 q 1011 999 1011 1026 q 997 969 1011 979 l 964 951 q 926 913 940 938 q 900 819 907 878 l 900 296 q 867 150 896 215 q 796 54 840 94 q 633 -18 719 -17 l 633 64 q 819 299 807 117 l 819 819 m 571 -21 q 493 -19 519 -21 q 421 -14 453 -18 q 281 33 346 -3 q 163 129 193 82 q 139 225 139 167 l 139 883 q 92 958 139 943 q 61 996 61 968 q 85 1032 61 1021 q 103 1038 93 1036 q 113 1039 108 1039 l 506 1039 q 515 1038 510 1039 q 533 1032 525 1036 q 557 996 557 1021 q 526 958 557 968 q 479 883 479 943 l 479 190 q 486 144 479 165 q 571 61 506 81 l 571 -21 m 683 1103 l 525 1103 l 383 1319 l 613 1319 l 683 1103 z "},"Ý":{"ha":932,"x_min":6,"x_max":926,"o":"m 613 651 l 685 813 q 706 886 706 857 q 658 951 706 931 q 611 996 611 971 q 644 1036 611 1028 q 674 1039 656 1039 l 856 1039 q 903 1032 888 1039 q 926 994 926 1022 q 892 953 926 968 q 793 851 828 926 l 657 553 l 613 651 m 288 403 l 78 900 q 38 958 61 943 q 6 999 6 975 q 32 1035 6 1026 q 56 1039 42 1038 l 447 1039 q 472 1035 463 1038 q 499 997 499 1026 q 468 956 499 975 q 442 922 442 942 q 456 869 442 903 l 628 476 l 628 156 q 675 81 628 96 q 706 43 706 71 q 682 7 706 18 q 664 1 674 3 q 654 0 658 0 l 261 0 q 251 1 257 0 q 233 7 242 3 q 210 43 210 18 q 240 81 210 71 q 288 156 288 96 l 288 403 m 675 1319 l 532 1103 l 375 1103 l 446 1319 l 675 1319 z "},"Ÿ":{"ha":932,"x_min":6,"x_max":926,"o":"m 613 651 l 685 813 q 706 886 706 857 q 658 951 706 931 q 611 996 611 971 q 644 1036 611 1028 q 674 1039 656 1039 l 856 1039 q 903 1032 888 1039 q 926 994 926 1022 q 892 953 926 968 q 793 851 828 926 l 657 553 l 613 651 m 288 403 l 78 900 q 38 958 61 943 q 6 999 6 975 q 32 1035 6 1026 q 56 1039 42 1038 l 447 1039 q 472 1035 463 1038 q 499 997 499 1026 q 468 956 499 975 q 442 922 442 942 q 456 869 442 903 l 628 476 l 628 156 q 675 81 628 96 q 706 43 706 71 q 682 7 706 18 q 664 1 674 3 q 654 0 658 0 l 261 0 q 251 1 257 0 q 233 7 242 3 q 210 43 210 18 q 240 81 210 71 q 288 156 288 96 l 288 403 m 401 1246 q 358 1140 401 1185 q 251 1096 315 1096 q 144 1140 188 1096 q 101 1246 101 1185 q 144 1351 101 1307 q 251 1396 188 1396 q 358 1351 315 1396 q 401 1246 401 1307 m 829 1246 q 786 1140 829 1185 q 679 1096 743 1096 q 572 1140 615 1096 q 529 1246 529 1185 q 572 1351 529 1307 q 679 1396 615 1396 q 786 1351 743 1396 q 829 1246 829 1307 z "},"Ž":{"ha":815,"x_min":31,"x_max":785,"o":"m 785 951 l 364 0 l 31 0 l 31 75 l 454 1039 l 785 1039 l 785 951 m 57 1039 l 392 1039 l 357 958 q 138 765 181 924 q 96 724 125 724 q 74 729 82 724 q 63 740 65 733 q 57 754 58 746 l 57 1039 m 785 0 l 426 0 l 463 81 q 619 144 569 103 q 704 282 667 185 q 744 324 717 324 q 767 318 758 324 q 779 307 775 314 q 783 293 782 301 l 785 0 m 361 1313 l 408 1218 l 456 1313 l 643 1313 l 494 1096 l 321 1096 l 172 1313 l 361 1313 z "},"á":{"ha":965,"x_min":-11,"x_max":954,"o":"m 343 688 l 213 213 q 208 124 197 153 q 257 83 218 100 q 299 38 299 65 q 274 4 299 13 q 250 0 264 1 l 56 0 q 43 1 49 0 q 18 6 28 3 q -11 42 -11 15 q 4 72 -11 63 l 43 89 q 90 131 71 103 q 136 235 118 168 l 303 844 l 307 844 l 343 688 m 492 269 l 289 269 l 308 350 l 478 350 l 338 964 l 356 1039 l 663 1039 l 876 135 q 883 113 879 121 q 919 79 893 90 q 954 36 954 64 q 926 4 954 11 q 901 0 915 1 l 532 0 q 488 6 503 0 q 464 39 464 15 q 490 78 464 64 q 519 163 533 103 l 492 269 m 692 1319 l 549 1103 l 392 1103 l 463 1319 l 692 1319 z "},"â":{"ha":965,"x_min":-11,"x_max":954,"o":"m 343 688 l 213 213 q 208 124 197 153 q 257 83 218 100 q 299 38 299 65 q 274 4 299 13 q 250 0 264 1 l 56 0 q 43 1 49 0 q 18 6 28 3 q -11 42 -11 15 q 4 72 -11 63 l 43 89 q 90 131 71 103 q 136 235 118 168 l 303 844 l 307 844 l 343 688 m 492 269 l 289 269 l 308 350 l 478 350 l 338 964 l 356 1039 l 663 1039 l 876 135 q 883 113 879 121 q 919 79 893 90 q 954 36 954 64 q 926 4 954 11 q 901 0 915 1 l 532 0 q 488 6 503 0 q 464 39 464 15 q 490 78 464 64 q 519 163 533 103 l 492 269 m 531 1103 l 483 1197 l 436 1103 l 249 1103 l 397 1319 l 571 1319 l 719 1103 l 531 1103 z "},"ä":{"ha":965,"x_min":-11,"x_max":954,"o":"m 343 688 l 213 213 q 208 124 197 153 q 257 83 218 100 q 299 38 299 65 q 274 4 299 13 q 250 0 264 1 l 56 0 q 43 1 49 0 q 18 6 28 3 q -11 42 -11 15 q 4 72 -11 63 l 43 89 q 90 131 71 103 q 136 235 118 168 l 303 844 l 307 844 l 343 688 m 492 269 l 289 269 l 308 350 l 478 350 l 338 964 l 356 1039 l 663 1039 l 876 135 q 883 113 879 121 q 919 79 893 90 q 954 36 954 64 q 926 4 954 11 q 901 0 915 1 l 532 0 q 488 6 503 0 q 464 39 464 15 q 490 78 464 64 q 519 163 533 103 l 492 269 m 418 1246 q 375 1140 418 1185 q 268 1096 332 1096 q 161 1140 204 1096 q 118 1246 118 1185 q 161 1351 118 1307 q 268 1396 204 1396 q 375 1351 332 1396 q 418 1246 418 1307 m 846 1246 q 803 1140 846 1185 q 696 1096 760 1096 q 589 1140 632 1096 q 546 1246 546 1185 q 589 1351 546 1307 q 696 1396 632 1396 q 803 1351 760 1396 q 846 1246 846 1307 z "},"à":{"ha":965,"x_min":-11,"x_max":954,"o":"m 343 688 l 213 213 q 208 124 197 153 q 257 83 218 100 q 299 38 299 65 q 274 4 299 13 q 250 0 264 1 l 56 0 q 43 1 49 0 q 18 6 28 3 q -11 42 -11 15 q 4 72 -11 63 l 43 89 q 90 131 71 103 q 136 235 118 168 l 303 844 l 307 844 l 343 688 m 492 269 l 289 269 l 308 350 l 478 350 l 338 964 l 356 1039 l 663 1039 l 876 135 q 883 113 879 121 q 919 79 893 90 q 954 36 954 64 q 926 4 954 11 q 901 0 915 1 l 532 0 q 488 6 503 0 q 464 39 464 15 q 490 78 464 64 q 519 163 533 103 l 492 269 m 639 1103 l 481 1103 l 339 1319 l 568 1319 l 639 1103 z "},"å":{"ha":965,"x_min":-11,"x_max":954,"o":"m 644 1256 q 597 1143 644 1190 q 483 1096 550 1096 q 369 1143 417 1096 q 322 1256 322 1190 q 369 1368 322 1321 q 483 1415 417 1415 q 597 1368 550 1415 q 644 1256 644 1321 m 533 1256 q 482 1304 533 1304 q 433 1256 433 1304 q 482 1207 433 1207 q 533 1256 533 1207 m 343 688 l 213 213 q 208 124 197 153 q 257 83 218 100 q 299 38 299 65 q 274 4 299 13 q 250 0 264 1 l 56 0 q 43 1 49 0 q 18 6 28 3 q -11 42 -11 15 q 4 72 -11 63 l 43 89 q 90 131 71 103 q 136 235 118 168 l 303 844 l 307 844 l 343 688 m 492 269 l 289 269 l 308 350 l 478 350 l 338 964 l 356 1039 l 663 1039 l 876 135 q 883 113 879 121 q 919 79 893 90 q 954 36 954 64 q 926 4 954 11 q 901 0 915 1 l 532 0 q 488 6 503 0 q 464 39 464 15 q 490 78 464 64 q 519 163 533 103 l 492 269 z "},"ã":{"ha":965,"x_min":-11,"x_max":954,"o":"m 343 688 l 213 213 q 208 124 197 153 q 257 83 218 100 q 299 38 299 65 q 274 4 299 13 q 250 0 264 1 l 56 0 q 43 1 49 0 q 18 6 28 3 q -11 42 -11 15 q 4 72 -11 63 l 43 89 q 90 131 71 103 q 136 235 118 168 l 303 844 l 307 844 l 343 688 m 492 269 l 289 269 l 308 350 l 478 350 l 338 964 l 356 1039 l 663 1039 l 876 135 q 883 113 879 121 q 919 79 893 90 q 954 36 954 64 q 926 4 954 11 q 901 0 915 1 l 532 0 q 488 6 503 0 q 464 39 464 15 q 490 78 464 64 q 519 163 533 103 l 492 269 m 743 1299 q 692 1174 732 1228 q 582 1110 646 1110 q 551 1117 568 1110 q 519 1132 539 1121 l 489 1149 q 457 1160 471 1157 l 414 1167 q 385 1168 394 1169 q 349 1131 365 1164 l 225 1131 q 282 1249 235 1196 q 396 1315 332 1306 q 447 1306 417 1315 q 500 1286 468 1300 q 590 1264 568 1258 q 622 1299 603 1267 l 743 1299 z "},"ç":{"ha":911,"x_min":31,"x_max":858,"o":"m 543 1060 q 590 1050 560 1060 q 646 1032 610 1044 l 699 1013 q 738 1004 725 1004 q 775 1031 763 1004 q 813 1060 789 1060 q 851 1038 840 1060 q 857 1021 856 1031 l 857 676 q 851 660 856 667 q 813 638 840 638 q 761 688 772 638 q 692 863 740 788 q 543 979 632 956 l 543 1060 m 771 257 q 817 301 783 301 q 858 254 858 301 q 754 72 856 165 q 543 -21 649 -25 l 543 60 q 771 257 722 99 m 413 -131 q 368 -87 368 -131 l 368 -7 q 114 175 203 33 q 31 501 31 308 q 154 897 31 743 q 481 1060 279 1053 l 481 979 q 411 932 433 969 q 392 850 392 899 l 392 192 q 481 60 392 82 l 481 -53 l 513 -53 q 557 -97 557 -53 l 557 -249 q 503 -328 557 -328 l 346 -328 l 346 -210 l 439 -210 l 439 -131 l 413 -131 z "},"é":{"ha":914,"x_min":51,"x_max":851,"o":"m 51 996 q 75 1032 51 1021 q 93 1038 83 1036 q 103 1039 99 1039 l 469 1039 l 469 0 l 103 0 q 93 1 99 0 q 75 7 83 3 q 51 43 51 18 q 82 81 51 71 q 129 156 129 96 l 129 883 q 82 958 129 943 q 51 996 51 968 m 532 1039 l 842 1039 l 842 757 q 840 749 842 753 q 836 738 839 743 q 824 728 831 732 q 799 724 813 724 q 761 758 772 724 q 532 958 706 931 l 532 1039 m 532 81 q 768 282 707 103 q 811 325 788 325 q 849 304 839 325 q 851 288 851 296 l 851 0 l 532 0 l 532 81 m 532 575 q 597 622 572 586 q 629 697 618 651 q 674 743 643 743 q 708 717 701 743 q 710 696 710 708 l 710 368 q 708 347 710 356 q 674 321 701 321 q 629 367 643 321 q 597 442 618 413 q 532 489 572 478 l 532 575 m 665 1319 l 522 1103 l 365 1103 l 436 1319 l 665 1319 z "},"ê":{"ha":914,"x_min":51,"x_max":851,"o":"m 51 996 q 75 1032 51 1021 q 93 1038 83 1036 q 103 1039 99 1039 l 469 1039 l 469 0 l 103 0 q 93 1 99 0 q 75 7 83 3 q 51 43 51 18 q 82 81 51 71 q 129 156 129 96 l 129 883 q 82 958 129 943 q 51 996 51 968 m 532 1039 l 842 1039 l 842 757 q 840 749 842 753 q 836 738 839 743 q 824 728 831 732 q 799 724 813 724 q 761 758 772 724 q 532 958 706 931 l 532 1039 m 532 81 q 768 282 707 103 q 811 325 788 325 q 849 304 839 325 q 851 288 851 296 l 851 0 l 532 0 l 532 81 m 532 575 q 597 622 572 586 q 629 697 618 651 q 674 743 643 743 q 708 717 701 743 q 710 696 710 708 l 710 368 q 708 347 710 356 q 674 321 701 321 q 629 367 643 321 q 597 442 618 413 q 532 489 572 478 l 532 575 m 504 1103 l 457 1197 l 410 1103 l 222 1103 l 371 1319 l 544 1319 l 693 1103 l 504 1103 z "},"ë":{"ha":914,"x_min":51,"x_max":851,"o":"m 51 996 q 75 1032 51 1021 q 93 1038 83 1036 q 103 1039 99 1039 l 469 1039 l 469 0 l 103 0 q 93 1 99 0 q 75 7 83 3 q 51 43 51 18 q 82 81 51 71 q 129 156 129 96 l 129 883 q 82 958 129 943 q 51 996 51 968 m 532 1039 l 842 1039 l 842 757 q 840 749 842 753 q 836 738 839 743 q 824 728 831 732 q 799 724 813 724 q 761 758 772 724 q 532 958 706 931 l 532 1039 m 532 81 q 768 282 707 103 q 811 325 788 325 q 849 304 839 325 q 851 288 851 296 l 851 0 l 532 0 l 532 81 m 532 575 q 597 622 572 586 q 629 697 618 651 q 674 743 643 743 q 708 717 701 743 q 710 696 710 708 l 710 368 q 708 347 710 356 q 674 321 701 321 q 629 367 643 321 q 597 442 618 413 q 532 489 572 478 l 532 575 m 393 1246 q 350 1140 393 1185 q 243 1096 307 1096 q 136 1140 179 1096 q 93 1246 93 1185 q 136 1351 93 1307 q 243 1396 179 1396 q 350 1351 307 1396 q 393 1246 393 1307 m 821 1246 q 778 1140 821 1185 q 671 1096 735 1096 q 564 1140 607 1096 q 521 1246 521 1185 q 564 1351 521 1307 q 671 1396 607 1396 q 778 1351 735 1396 q 821 1246 821 1307 z "},"è":{"ha":914,"x_min":51,"x_max":851,"o":"m 51 996 q 75 1032 51 1021 q 93 1038 83 1036 q 103 1039 99 1039 l 469 1039 l 469 0 l 103 0 q 93 1 99 0 q 75 7 83 3 q 51 43 51 18 q 82 81 51 71 q 129 156 129 96 l 129 883 q 82 958 129 943 q 51 996 51 968 m 532 1039 l 842 1039 l 842 757 q 840 749 842 753 q 836 738 839 743 q 824 728 831 732 q 799 724 813 724 q 761 758 772 724 q 532 958 706 931 l 532 1039 m 532 81 q 768 282 707 103 q 811 325 788 325 q 849 304 839 325 q 851 288 851 296 l 851 0 l 532 0 l 532 81 m 532 575 q 597 622 572 586 q 629 697 618 651 q 674 743 643 743 q 708 717 701 743 q 710 696 710 708 l 710 368 q 708 347 710 356 q 674 321 701 321 q 629 367 643 321 q 597 442 618 413 q 532 489 572 478 l 532 575 m 613 1103 l 454 1103 l 313 1319 l 542 1319 l 613 1103 z "},"í":{"ha":621,"x_min":63,"x_max":558,"o":"m 481 156 q 528 81 481 96 q 558 43 558 71 q 535 7 558 18 q 517 1 526 3 q 507 0 511 0 l 114 0 q 104 1 110 0 q 86 7 94 3 q 63 43 63 18 q 93 81 63 71 q 140 156 140 96 l 140 883 q 93 958 140 943 q 63 996 63 968 q 86 1032 63 1021 q 104 1038 94 1036 q 114 1039 110 1039 l 507 1039 q 517 1038 511 1039 q 535 1032 526 1036 q 558 996 558 1021 q 528 958 558 968 q 481 883 481 943 l 481 156 m 519 1319 l 376 1103 l 219 1103 l 290 1319 l 519 1319 z "},"î":{"ha":621,"x_min":63,"x_max":558,"o":"m 481 156 q 528 81 481 96 q 558 43 558 71 q 535 7 558 18 q 517 1 526 3 q 507 0 511 0 l 114 0 q 104 1 110 0 q 86 7 94 3 q 63 43 63 18 q 93 81 63 71 q 140 156 140 96 l 140 883 q 93 958 140 943 q 63 996 63 968 q 86 1032 63 1021 q 104 1038 94 1036 q 114 1039 110 1039 l 507 1039 q 517 1038 511 1039 q 535 1032 526 1036 q 558 996 558 1021 q 528 958 558 968 q 481 883 481 943 l 481 156 m 358 1103 l 311 1197 l 264 1103 l 76 1103 l 225 1319 l 399 1319 l 547 1103 l 358 1103 z "},"ï":{"ha":621,"x_min":-54,"x_max":674,"o":"m 481 156 q 528 81 481 96 q 558 43 558 71 q 535 7 558 18 q 517 1 526 3 q 507 0 511 0 l 114 0 q 104 1 110 0 q 86 7 94 3 q 63 43 63 18 q 93 81 63 71 q 140 156 140 96 l 140 883 q 93 958 140 943 q 63 996 63 968 q 86 1032 63 1021 q 104 1038 94 1036 q 114 1039 110 1039 l 507 1039 q 517 1038 511 1039 q 535 1032 526 1036 q 558 996 558 1021 q 528 958 558 968 q 481 883 481 943 l 481 156 m 246 1246 q 203 1140 246 1185 q 96 1096 160 1096 q -11 1140 32 1096 q -54 1246 -54 1185 q -11 1351 -54 1307 q 96 1396 32 1396 q 203 1351 160 1396 q 246 1246 246 1307 m 674 1246 q 631 1140 674 1185 q 524 1096 588 1096 q 417 1140 460 1096 q 374 1246 374 1185 q 417 1351 374 1307 q 524 1396 460 1396 q 631 1351 588 1396 q 674 1246 674 1307 z "},"ì":{"ha":621,"x_min":63,"x_max":558,"o":"m 481 156 q 528 81 481 96 q 558 43 558 71 q 535 7 558 18 q 517 1 526 3 q 507 0 511 0 l 114 0 q 104 1 110 0 q 86 7 94 3 q 63 43 63 18 q 93 81 63 71 q 140 156 140 96 l 140 883 q 93 958 140 943 q 63 996 63 968 q 86 1032 63 1021 q 104 1038 94 1036 q 114 1039 110 1039 l 507 1039 q 517 1038 511 1039 q 535 1032 526 1036 q 558 996 558 1021 q 528 958 558 968 q 481 883 481 943 l 481 156 m 467 1103 l 308 1103 l 167 1319 l 396 1319 l 467 1103 z "},"ñ":{"ha":1046,"x_min":49,"x_max":997,"o":"m 160 778 l 163 778 l 240 639 l 240 219 q 267 126 247 161 q 304 88 281 101 l 338 69 q 351 40 351 60 q 321 4 351 13 q 297 0 311 1 l 103 0 q 79 4 89 1 q 49 40 49 13 q 63 69 49 60 l 96 88 q 133 126 119 101 q 160 219 153 161 l 160 778 m 803 788 q 785 894 803 856 q 746 943 772 925 l 715 960 q 707 965 710 963 q 689 997 689 978 q 714 1033 689 1022 q 733 1038 722 1036 q 749 1039 740 1039 l 938 1039 q 953 1038 946 1039 q 972 1033 964 1036 q 997 997 997 1022 q 979 965 997 978 q 971 960 976 963 l 940 943 q 901 894 914 925 q 883 788 883 856 l 883 450 l 881 450 l 803 590 l 803 788 m 883 336 l 883 0 l 676 0 l 153 903 q 139 922 146 915 q 93 951 124 942 q 51 996 51 967 q 76 1032 51 1024 q 99 1038 85 1036 l 117 1039 l 479 1039 l 883 336 m 783 1299 q 732 1174 772 1228 q 622 1110 686 1110 q 592 1117 608 1110 q 560 1132 579 1121 l 529 1149 q 497 1160 511 1157 l 454 1167 q 425 1168 435 1169 q 389 1131 406 1164 l 265 1131 q 322 1249 275 1196 q 436 1315 372 1306 q 488 1306 457 1315 q 540 1286 508 1300 q 631 1264 608 1258 q 663 1299 643 1267 l 783 1299 z "},"ó":{"ha":988,"x_min":31,"x_max":957,"o":"m 463 979 q 403 933 419 964 q 392 879 392 913 l 392 160 q 403 106 392 126 q 463 60 419 75 l 463 -21 q 136 156 251 -1 q 31 519 31 300 q 136 883 31 739 q 463 1060 251 1040 l 463 979 m 525 60 q 585 106 568 75 q 596 160 596 126 l 596 879 q 585 933 596 913 q 525 979 568 964 l 525 1060 q 851 883 736 1040 q 957 519 957 739 q 851 156 957 300 q 525 -21 736 -1 l 525 60 m 703 1319 l 560 1103 l 403 1103 l 474 1319 l 703 1319 z "},"ô":{"ha":988,"x_min":31,"x_max":957,"o":"m 463 979 q 403 933 419 964 q 392 879 392 913 l 392 160 q 403 106 392 126 q 463 60 419 75 l 463 -21 q 136 156 251 -1 q 31 519 31 300 q 136 883 31 739 q 463 1060 251 1040 l 463 979 m 525 60 q 585 106 568 75 q 596 160 596 126 l 596 879 q 585 933 596 913 q 525 979 568 964 l 525 1060 q 851 883 736 1040 q 957 519 957 739 q 851 156 957 300 q 525 -21 736 -1 l 525 60 m 542 1103 l 494 1197 l 447 1103 l 260 1103 l 408 1319 l 582 1319 l 731 1103 l 542 1103 z "},"ö":{"ha":988,"x_min":31,"x_max":957,"o":"m 463 979 q 403 933 419 964 q 392 879 392 913 l 392 160 q 403 106 392 126 q 463 60 419 75 l 463 -21 q 136 156 251 -1 q 31 519 31 300 q 136 883 31 739 q 463 1060 251 1040 l 463 979 m 525 60 q 585 106 568 75 q 596 160 596 126 l 596 879 q 585 933 596 913 q 525 979 568 964 l 525 1060 q 851 883 736 1040 q 957 519 957 739 q 851 156 957 300 q 525 -21 736 -1 l 525 60 m 429 1246 q 386 1140 429 1185 q 279 1096 343 1096 q 172 1140 215 1096 q 129 1246 129 1185 q 172 1351 129 1307 q 279 1396 215 1396 q 386 1351 343 1396 q 429 1246 429 1307 m 857 1246 q 814 1140 857 1185 q 707 1096 771 1096 q 600 1140 643 1096 q 557 1246 557 1185 q 600 1351 557 1307 q 707 1396 643 1396 q 814 1351 771 1396 q 857 1246 857 1307 z "},"ò":{"ha":988,"x_min":31,"x_max":957,"o":"m 463 979 q 403 933 419 964 q 392 879 392 913 l 392 160 q 403 106 392 126 q 463 60 419 75 l 463 -21 q 136 156 251 -1 q 31 519 31 300 q 136 883 31 739 q 463 1060 251 1040 l 463 979 m 525 60 q 585 106 568 75 q 596 160 596 126 l 596 879 q 585 933 596 913 q 525 979 568 964 l 525 1060 q 851 883 736 1040 q 957 519 957 739 q 851 156 957 300 q 525 -21 736 -1 l 525 60 m 650 1103 l 492 1103 l 350 1319 l 579 1319 l 650 1103 z "},"õ":{"ha":988,"x_min":31,"x_max":957,"o":"m 463 979 q 403 933 419 964 q 392 879 392 913 l 392 160 q 403 106 392 126 q 463 60 419 75 l 463 -21 q 136 156 251 -1 q 31 519 31 300 q 136 883 31 739 q 463 1060 251 1040 l 463 979 m 525 60 q 585 106 568 75 q 596 160 596 126 l 596 879 q 585 933 596 913 q 525 979 568 964 l 525 1060 q 851 883 736 1040 q 957 519 957 739 q 851 156 957 300 q 525 -21 736 -1 l 525 60 m 754 1299 q 703 1174 743 1228 q 593 1110 657 1110 q 563 1117 579 1110 q 531 1132 550 1121 l 500 1149 q 468 1160 482 1157 l 425 1167 q 396 1168 406 1169 q 360 1131 376 1164 l 236 1131 q 293 1249 246 1196 q 407 1315 343 1306 q 458 1306 428 1315 q 511 1286 479 1300 q 601 1264 579 1258 q 633 1299 614 1267 l 754 1299 z "},"š":{"ha":876,"x_min":57,"x_max":819,"o":"m 414 979 q 315 865 315 946 q 354 776 315 813 q 518 692 399 738 q 761 528 688 626 q 819 339 819 449 q 704 81 819 182 q 435 -21 594 -18 l 435 60 q 522 103 493 78 q 561 188 560 135 q 504 286 563 244 q 449 317 482 301 l 329 368 l 268 399 q 160 472 203 433 q 57 711 57 564 q 158 963 57 867 q 414 1060 257 1054 l 414 979 m 782 760 q 736 693 782 693 q 686 747 694 693 q 617 893 675 826 q 476 979 556 963 l 476 1060 q 542 1050 507 1060 q 601 1032 569 1044 l 647 1014 q 672 1006 668 1006 q 707 1031 690 1006 q 742 1056 724 1056 q 778 1031 769 1056 q 782 1011 781 1022 l 782 760 m 57 311 q 65 356 57 340 q 101 379 75 379 q 153 333 144 379 q 224 164 169 240 q 372 60 288 78 l 372 -21 q 297 -11 332 -19 q 247 6 272 -6 l 210 24 q 175 31 192 31 q 133 8 151 31 q 100 -15 117 -15 q 63 11 72 -15 q 57 31 58 19 l 57 311 m 392 1313 l 439 1218 l 486 1313 l 674 1313 l 525 1096 l 351 1096 l 203 1313 l 392 1313 z "},"ú":{"ha":1056,"x_min":61,"x_max":1011,"o":"m 819 819 q 793 913 813 878 q 756 951 779 938 l 722 969 q 708 999 708 979 q 739 1035 708 1026 q 763 1039 749 1038 l 957 1039 q 981 1035 971 1038 q 1011 999 1011 1026 q 997 969 1011 979 l 964 951 q 926 913 940 938 q 900 819 907 878 l 900 296 q 867 150 896 215 q 796 54 840 94 q 633 -18 719 -17 l 633 64 q 819 299 807 117 l 819 819 m 571 -21 q 493 -19 519 -21 q 421 -14 453 -18 q 281 33 346 -3 q 163 129 193 82 q 139 225 139 167 l 139 883 q 92 958 139 943 q 61 996 61 968 q 85 1032 61 1021 q 103 1038 93 1036 q 113 1039 108 1039 l 506 1039 q 515 1038 510 1039 q 533 1032 525 1036 q 557 996 557 1021 q 526 958 557 968 q 479 883 479 943 l 479 190 q 486 144 479 165 q 571 61 506 81 l 571 -21 m 736 1319 l 593 1103 l 436 1103 l 507 1319 l 736 1319 z "},"û":{"ha":1056,"x_min":61,"x_max":1011,"o":"m 819 819 q 793 913 813 878 q 756 951 779 938 l 722 969 q 708 999 708 979 q 739 1035 708 1026 q 763 1039 749 1038 l 957 1039 q 981 1035 971 1038 q 1011 999 1011 1026 q 997 969 1011 979 l 964 951 q 926 913 940 938 q 900 819 907 878 l 900 296 q 867 150 896 215 q 796 54 840 94 q 633 -18 719 -17 l 633 64 q 819 299 807 117 l 819 819 m 571 -21 q 493 -19 519 -21 q 421 -14 453 -18 q 281 33 346 -3 q 163 129 193 82 q 139 225 139 167 l 139 883 q 92 958 139 943 q 61 996 61 968 q 85 1032 61 1021 q 103 1038 93 1036 q 113 1039 108 1039 l 506 1039 q 515 1038 510 1039 q 533 1032 525 1036 q 557 996 557 1021 q 526 958 557 968 q 479 883 479 943 l 479 190 q 486 144 479 165 q 571 61 506 81 l 571 -21 m 575 1103 l 528 1197 l 481 1103 l 293 1103 l 442 1319 l 615 1319 l 764 1103 l 575 1103 z "},"ü":{"ha":1056,"x_min":61,"x_max":1011,"o":"m 819 819 q 793 913 813 878 q 756 951 779 938 l 722 969 q 708 999 708 979 q 739 1035 708 1026 q 763 1039 749 1038 l 957 1039 q 981 1035 971 1038 q 1011 999 1011 1026 q 997 969 1011 979 l 964 951 q 926 913 940 938 q 900 819 907 878 l 900 296 q 867 150 896 215 q 796 54 840 94 q 633 -18 719 -17 l 633 64 q 819 299 807 117 l 819 819 m 571 -21 q 493 -19 519 -21 q 421 -14 453 -18 q 281 33 346 -3 q 163 129 193 82 q 139 225 139 167 l 139 883 q 92 958 139 943 q 61 996 61 968 q 85 1032 61 1021 q 103 1038 93 1036 q 113 1039 108 1039 l 506 1039 q 515 1038 510 1039 q 533 1032 525 1036 q 557 996 557 1021 q 526 958 557 968 q 479 883 479 943 l 479 190 q 486 144 479 165 q 571 61 506 81 l 571 -21 m 464 1246 q 421 1140 464 1185 q 314 1096 378 1096 q 207 1140 250 1096 q 164 1246 164 1185 q 207 1351 164 1307 q 314 1396 250 1396 q 421 1351 378 1396 q 464 1246 464 1307 m 892 1246 q 849 1140 892 1185 q 742 1096 806 1096 q 635 1140 678 1096 q 592 1246 592 1185 q 635 1351 592 1307 q 742 1396 678 1396 q 849 1351 806 1396 q 892 1246 892 1307 z "},"ù":{"ha":1056,"x_min":61,"x_max":1011,"o":"m 819 819 q 793 913 813 878 q 756 951 779 938 l 722 969 q 708 999 708 979 q 739 1035 708 1026 q 763 1039 749 1038 l 957 1039 q 981 1035 971 1038 q 1011 999 1011 1026 q 997 969 1011 979 l 964 951 q 926 913 940 938 q 900 819 907 878 l 900 296 q 867 150 896 215 q 796 54 840 94 q 633 -18 719 -17 l 633 64 q 819 299 807 117 l 819 819 m 571 -21 q 493 -19 519 -21 q 421 -14 453 -18 q 281 33 346 -3 q 163 129 193 82 q 139 225 139 167 l 139 883 q 92 958 139 943 q 61 996 61 968 q 85 1032 61 1021 q 103 1038 93 1036 q 113 1039 108 1039 l 506 1039 q 515 1038 510 1039 q 533 1032 525 1036 q 557 996 557 1021 q 526 958 557 968 q 479 883 479 943 l 479 190 q 486 144 479 165 q 571 61 506 81 l 571 -21 m 683 1103 l 525 1103 l 383 1319 l 613 1319 l 683 1103 z "},"ý":{"ha":932,"x_min":6,"x_max":926,"o":"m 613 651 l 685 813 q 706 886 706 857 q 658 951 706 931 q 611 996 611 971 q 644 1036 611 1028 q 674 1039 656 1039 l 856 1039 q 903 1032 888 1039 q 926 994 926 1022 q 892 953 926 968 q 793 851 828 926 l 657 553 l 613 651 m 288 403 l 78 900 q 38 958 61 943 q 6 999 6 975 q 32 1035 6 1026 q 56 1039 42 1038 l 447 1039 q 472 1035 463 1038 q 499 997 499 1026 q 468 956 499 975 q 442 922 442 942 q 456 869 442 903 l 628 476 l 628 156 q 675 81 628 96 q 706 43 706 71 q 682 7 706 18 q 664 1 674 3 q 654 0 658 0 l 261 0 q 251 1 257 0 q 233 7 242 3 q 210 43 210 18 q 240 81 210 71 q 288 156 288 96 l 288 403 m 675 1319 l 532 1103 l 375 1103 l 446 1319 l 675 1319 z "},"ÿ":{"ha":932,"x_min":6,"x_max":926,"o":"m 613 651 l 685 813 q 706 886 706 857 q 658 951 706 931 q 611 996 611 971 q 644 1036 611 1028 q 674 1039 656 1039 l 856 1039 q 903 1032 888 1039 q 926 994 926 1022 q 892 953 926 968 q 793 851 828 926 l 657 553 l 613 651 m 288 403 l 78 900 q 38 958 61 943 q 6 999 6 975 q 32 1035 6 1026 q 56 1039 42 1038 l 447 1039 q 472 1035 463 1038 q 499 997 499 1026 q 468 956 499 975 q 442 922 442 942 q 456 869 442 903 l 628 476 l 628 156 q 675 81 628 96 q 706 43 706 71 q 682 7 706 18 q 664 1 674 3 q 654 0 658 0 l 261 0 q 251 1 257 0 q 233 7 242 3 q 210 43 210 18 q 240 81 210 71 q 288 156 288 96 l 288 403 m 401 1246 q 358 1140 401 1185 q 251 1096 315 1096 q 144 1140 188 1096 q 101 1246 101 1185 q 144 1351 101 1307 q 251 1396 188 1396 q 358 1351 315 1396 q 401 1246 401 1307 m 829 1246 q 786 1140 829 1185 q 679 1096 743 1096 q 572 1140 615 1096 q 529 1246 529 1185 q 572 1351 529 1307 q 679 1396 615 1396 q 786 1351 743 1396 q 829 1246 829 1307 z "},"ž":{"ha":815,"x_min":31,"x_max":785,"o":"m 785 951 l 364 0 l 31 0 l 31 75 l 454 1039 l 785 1039 l 785 951 m 57 1039 l 392 1039 l 357 958 q 138 765 181 924 q 96 724 125 724 q 74 729 82 724 q 63 740 65 733 q 57 754 58 746 l 57 1039 m 785 0 l 426 0 l 463 81 q 619 144 569 103 q 704 282 667 185 q 744 324 717 324 q 767 318 758 324 q 779 307 775 314 q 783 293 782 301 l 785 0 m 361 1313 l 408 1218 l 456 1313 l 643 1313 l 494 1096 l 321 1096 l 172 1313 l 361 1313 z "},"∆":{"ha":1053,"x_min":51,"x_max":1000,"o":"m 51 0 l 51 75 l 456 1029 l 575 1056 l 1000 75 l 1000 0 l 51 0 m 422 704 l 185 121 l 667 121 l 422 704 z "},"Ω":{"ha":1144,"x_min":50,"x_max":1094,"o":"m 1047 0 l 625 0 l 606 40 l 628 103 q 651 168 642 139 q 696 310 678 247 q 729 453 718 388 q 743 589 743 528 q 697 896 742 801 q 568 983 656 983 q 443 904 481 983 q 400 586 400 814 q 413 453 400 525 q 443 313 422 389 q 486 172 461 249 q 533 40 506 115 l 517 0 l 89 0 l 50 300 l 115 300 q 243 201 156 201 l 368 201 q 357 208 361 207 l 322 232 q 275 267 296 250 q 185 350 221 308 q 118 458 142 400 q 92 600 92 524 q 228 932 92 807 q 575 1056 361 1056 q 918 935 786 1056 q 1051 607 1051 811 q 1025 474 1051 536 q 957 367 1001 418 q 863 279 919 325 l 760 201 l 914 201 q 1028 300 992 201 l 1094 300 l 1047 0 z "},"π":{"ha":944,"x_min":35,"x_max":913,"o":"m 913 728 q 849 501 904 572 q 758 489 817 489 q 750 257 749 382 q 768 156 751 186 q 804 132 781 132 q 864 150 822 132 l 883 96 q 794 17 851 51 q 672 -21 731 -21 q 542 25 589 -21 q 485 199 485 79 q 489 361 485 288 l 499 493 l 354 496 l 354 493 q 343 274 354 369 q 315 132 332 193 q 282 50 300 85 q 267 26 275 38 l 260 17 q 254 10 258 14 q 185 -12 219 -4 q 125 -21 157 -18 l 110 22 q 224 271 185 136 q 257 499 257 388 q 64 454 150 500 l 35 514 l 78 575 q 135 633 106 610 q 217 676 171 663 q 336 693 269 694 l 547 690 l 765 690 q 857 739 832 690 l 913 728 z "},"€":{"ha":875,"x_min":25,"x_max":806,"o":"m 763 828 q 611 967 739 967 q 431 636 456 967 l 728 636 l 692 551 l 429 551 l 428 506 q 429 461 428 472 l 653 461 l 618 376 l 431 376 q 614 71 446 71 q 763 204 739 71 l 806 204 l 794 49 q 706 -1 758 15 q 540 -19 643 -19 q 251 83 351 -19 q 132 376 156 181 l 25 376 l 60 461 l 119 461 q 117 510 117 492 l 118 551 l 25 551 l 60 636 l 125 636 q 246 949 150 844 q 540 1060 347 1060 q 710 1039 644 1060 q 794 990 761 1022 l 806 828 l 763 828 z "},"℮":{"ha":1301,"x_min":50,"x_max":1249,"o":"m 279 504 q 271 497 271 504 l 271 204 q 283 169 271 185 q 650 10 439 10 q 1036 189 882 10 l 1124 189 q 649 -19 947 -19 q 225 138 400 -19 q 50 518 50 296 q 225 900 50 742 q 649 1057 400 1057 q 1074 900 897 1057 q 1249 518 1249 742 l 1249 504 l 279 504 m 1029 838 q 1014 872 1029 857 q 650 1025 861 1025 q 285 868 439 1025 q 271 831 271 854 l 271 542 q 279 532 271 532 l 1022 532 q 1028 536 1026 532 q 1029 542 1029 539 l 1029 838 z "},"∂":{"ha":899,"x_min":60,"x_max":829,"o":"m 431 657 q 592 586 536 657 q 615 763 608 667 q 617 817 617 794 q 615 872 618 847 q 583 978 608 933 q 447 1035 546 1035 q 313 994 385 1035 q 254 956 285 978 q 206 917 232 939 q 146 986 179 918 q 126 1094 111 1057 q 171 1115 153 1108 q 221 1133 196 1126 q 364 1151 285 1151 q 586 1090 489 1151 q 739 929 678 1033 q 810 740 786 846 q 829 565 829 651 q 746 210 829 354 q 600 44 692 104 q 371 -19 501 -19 q 146 61 231 -19 q 60 282 60 143 q 90 435 60 361 q 161 546 117 499 q 429 657 265 657 l 431 657 m 490 567 q 442 554 463 567 q 385 486 410 535 q 335 326 353 424 q 318 144 318 235 q 382 49 318 49 q 449 101 414 49 q 475 151 461 122 q 499 204 486 172 q 572 503 550 331 q 493 567 543 567 l 490 567 z "},"∏":{"ha":1178,"x_min":33,"x_max":1136,"o":"m 1136 997 q 1014 958 1038 988 q 990 814 990 928 l 990 128 q 1014 -19 990 10 q 1136 -58 1036 -47 l 1136 -124 l 607 -124 l 607 -58 q 697 -22 682 -50 q 713 126 713 6 l 713 918 q 701 971 713 960 q 650 981 690 981 l 519 981 q 472 971 481 981 q 464 922 464 963 l 464 126 q 476 -19 464 6 q 558 -58 490 -51 l 558 -124 l 38 -124 l 38 -58 q 161 -18 136 -50 q 185 126 185 11 l 185 814 q 161 960 185 929 q 33 997 136 989 l 33 1061 l 1136 1061 l 1136 997 z "},"∑":{"ha":910,"x_min":38,"x_max":878,"o":"m 796 -142 l 38 -142 l 38 -76 l 363 356 l 43 993 l 43 1061 l 794 1061 l 814 763 l 747 749 q 718 836 732 799 q 683 914 700 881 q 631 969 661 956 q 515 985 597 985 l 367 985 l 589 546 l 250 83 l 572 83 q 718 108 682 83 q 811 258 756 135 l 878 242 l 796 -142 z "},"∙":{"ha":506,"x_min":103,"x_max":403,"o":"m 403 382 q 360 276 403 321 q 253 232 317 232 q 146 276 189 232 q 103 382 103 321 q 146 488 103 443 q 253 532 189 532 q 360 488 317 532 q 403 382 403 443 z "},"√":{"ha":897,"x_min":60,"x_max":893,"o":"m 603 -276 l 542 -299 l 222 506 l 85 449 l 60 525 l 400 668 l 585 160 l 588 160 l 796 1306 l 893 1289 l 603 -276 z "},"∞":{"ha":1169,"x_min":64,"x_max":1103,"o":"m 1103 426 q 1022 215 1103 296 q 846 140 949 140 q 788 144 813 140 q 724 165 753 150 q 586 300 650 201 q 468 183 526 219 q 317 140 401 140 q 143 214 215 140 q 64 418 64 293 q 142 622 64 543 q 332 699 217 699 q 592 549 488 699 l 631 594 q 685 644 658 624 q 757 683 719 669 q 851 699 801 699 q 1028 625 956 697 q 1103 428 1103 549 l 1103 426 m 336 288 q 428 324 383 288 q 506 410 461 350 l 468 468 q 431 514 447 496 q 333 554 390 554 q 213 417 213 554 q 249 326 213 365 q 335 288 286 288 l 336 288 m 836 554 q 738 510 785 554 q 699 468 719 493 l 682 446 q 674 435 678 442 l 665 424 q 761 313 722 340 q 847 288 796 288 q 926 332 896 288 q 954 415 954 371 q 924 513 954 472 q 838 554 892 554 l 836 554 z "},"∫":{"ha":683,"x_min":4,"x_max":682,"o":"m 218 518 q 236 889 206 733 q 319 1108 263 1022 q 432 1213 367 1179 q 538 1239 483 1239 q 633 1211 592 1239 q 682 1131 682 1181 q 643 1039 682 1074 q 563 1010 610 1010 q 499 1075 521 1010 l 490 1099 q 483 1118 486 1113 q 467 1139 476 1139 q 446 1103 449 1139 q 451 942 443 1069 l 482 415 q 469 88 492 235 q 397 -150 447 -50 q 146 -342 303 -342 q 49 -310 90 -342 q 6 -229 6 -276 q 51 -137 4 -175 q 143 -103 93 -103 q 199 -172 178 -103 l 206 -193 q 207 -199 206 -196 q 214 -221 211 -214 q 233 -243 222 -243 q 254 -61 265 -243 l 218 518 z "},"≈":{"ha":814,"x_min":36,"x_max":771,"o":"m 771 622 q 547 454 675 454 q 388 508 467 454 q 374 518 379 515 l 360 528 q 332 543 344 538 q 272 557 303 557 q 194 525 231 557 l 138 454 l 36 549 q 136 664 71 617 q 279 714 207 714 q 365 700 326 714 q 426 668 393 690 q 540 613 511 613 q 610 643 576 613 q 669 717 632 664 l 771 622 m 771 313 q 544 144 672 144 q 388 199 469 144 q 272 249 317 249 q 194 215 229 249 q 165 182 182 203 l 138 146 l 36 240 q 138 356 71 308 q 279 406 207 406 q 367 392 328 406 q 397 376 382 385 l 425 360 q 454 340 435 354 l 482 321 q 539 303 513 303 q 608 333 576 303 q 638 367 621 346 l 669 408 l 771 313 z "},"≠":{"ha":814,"x_min":67,"x_max":747,"o":"m 579 669 l 747 669 l 747 511 l 521 511 l 447 332 l 747 332 l 747 174 l 386 174 l 319 11 l 194 60 l 242 174 l 67 174 l 67 332 l 301 332 l 375 511 l 67 511 l 67 669 l 433 669 l 501 829 l 626 781 l 579 669 z "},"≤":{"ha":814,"x_min":69,"x_max":750,"o":"m 72 493 l 72 665 l 743 992 l 743 813 l 226 581 l 226 578 l 744 346 l 744 165 l 72 493 m 69 -46 l 69 117 l 750 117 l 750 -46 l 69 -46 z "},"≥":{"ha":814,"x_min":71,"x_max":747,"o":"m 747 664 l 747 492 l 76 165 l 76 346 l 594 578 l 594 582 l 76 813 l 76 992 l 747 664 m 71 -46 l 71 117 l 744 117 l 744 -46 l 71 -46 z "},"◊":{"ha":917,"x_min":67,"x_max":849,"o":"m 556 -111 l 357 -111 l 67 503 l 363 1121 l 557 1121 l 849 503 l 556 -111 m 461 963 l 456 963 l 246 503 l 457 39 l 461 39 l 669 503 l 461 963 z "},"ˉ":{"ha":472,"x_min":8,"x_max":464,"o":"m 464 1163 l 8 1163 l 8 1292 l 464 1292 l 464 1163 z "},"­":{"ha":694,"x_min":104,"x_max":590,"o":"m 590 621 l 590 410 l 104 410 l 104 621 l 590 621 z "},"Ω":{"ha":1144,"x_min":50,"x_max":1094,"o":"m 1047 0 l 625 0 l 606 40 l 628 103 q 651 168 642 139 q 696 310 678 247 q 729 453 718 388 q 743 589 743 528 q 697 896 742 801 q 568 983 656 983 q 443 904 481 983 q 400 586 400 814 q 413 453 400 525 q 443 313 422 389 q 486 172 461 249 q 533 40 506 115 l 517 0 l 89 0 l 50 300 l 115 300 q 243 201 156 201 l 368 201 q 357 208 361 207 l 322 232 q 275 267 296 250 q 185 350 221 308 q 118 458 142 400 q 92 600 92 524 q 228 932 92 807 q 575 1056 361 1056 q 918 935 786 1056 q 1051 607 1051 811 q 1025 474 1051 536 q 957 367 1001 418 q 863 279 919 325 l 760 201 l 914 201 q 1028 300 992 201 l 1094 300 l 1047 0 z "}," ":{"ha":472,"x_min":0,"x_max":0,"o":""},"ℓ":{"ha":756,"x_min":29,"x_max":731,"o":"m 731 211 q 593 43 672 101 q 401 -19 508 -19 q 276 -1 328 -19 q 201 43 232 14 q 154 122 167 86 q 136 281 136 175 l 136 350 l 54 304 l 29 367 l 136 433 l 136 654 q 157 867 136 788 q 222 1006 175 940 q 443 1129 315 1129 q 588 1064 538 1129 q 635 903 635 1003 q 579 690 635 782 q 399 493 529 607 l 399 393 q 421 196 399 250 q 514 135 444 135 q 611 174 564 135 q 683 254 644 200 l 731 211 m 399 600 q 467 717 443 649 q 493 899 493 794 q 442 1061 493 1061 q 404 1001 411 1061 q 399 900 400 968 l 399 600 z "},"μ":{"ha":983,"x_min":128,"x_max":924,"o":"m 838 164 q 856 106 838 129 q 896 74 869 88 q 924 35 924 58 q 882 -3 924 10 q 804 -15 842 -15 q 654 74 699 -15 l 651 74 q 521 -15 617 -15 q 442 15 468 -15 l 442 122 l 469 119 q 575 269 575 119 l 575 765 l 838 765 l 838 164 m 390 -76 q 410 -110 390 -103 q 442 -143 442 -121 q 429 -165 442 -157 q 375 -189 417 -176 q 269 -215 329 -203 q 176 -229 206 -229 q 128 -139 128 -229 l 128 765 l 390 765 l 390 -76 z "},"∕":{"ha":293,"x_min":-219,"x_max":517,"o":"m -153 -71 l -219 -21 l 449 1083 l 517 1040 l -153 -71 z "},"‐":{"ha":694,"x_min":104,"x_max":590,"o":"m 590 621 l 590 410 l 104 410 l 104 621 l 590 621 z "}}}
